<svg width="135" height="376" viewBox="0 0 135 376" fill="none" xmlns="http://www.w3.org/2000/svg">
<rect x="4" y="4" width="127" height="368" fill="#EBEBEB"/>
<rect x="4" y="99" width="127" height="273" fill="#F7C13F"/>
<path d="M44.4873 223H41.7627V204.938L36.2988 206.945V204.484L44.0625 201.569H44.4873V223ZM53.6719 212.307L54.7559 201.672H65.6836V204.177H57.0557L56.4111 209.992C57.4561 209.377 58.6426 209.069 59.9707 209.069C61.9141 209.069 63.457 209.714 64.5996 211.003C65.7422 212.282 66.3135 214.016 66.3135 216.203C66.3135 218.4 65.7178 220.134 64.5264 221.403C63.3447 222.663 61.6895 223.293 59.5605 223.293C57.6758 223.293 56.1377 222.771 54.9463 221.726C53.7549 220.681 53.0762 219.235 52.9102 217.39H55.4736C55.6396 218.61 56.0742 219.533 56.7773 220.158C57.4805 220.773 58.4082 221.081 59.5605 221.081C60.8203 221.081 61.8066 220.651 62.5195 219.792C63.2422 218.933 63.6035 217.746 63.6035 216.232C63.6035 214.807 63.2129 213.664 62.4316 212.805C61.6602 211.936 60.6299 211.501 59.3408 211.501C58.1592 211.501 57.2314 211.76 56.5576 212.277L55.8398 212.863L53.6719 212.307ZM82.6465 213.903C82.6465 217.077 82.1045 219.436 81.0205 220.979C79.9365 222.521 78.2422 223.293 75.9375 223.293C73.6621 223.293 71.9775 222.541 70.8838 221.037C69.79 219.523 69.2236 217.268 69.1846 214.27V210.651C69.1846 207.517 69.7266 205.188 70.8105 203.664C71.8945 202.141 73.5938 201.379 75.9082 201.379C78.2031 201.379 79.8926 202.116 80.9766 203.591C82.0605 205.056 82.6172 207.321 82.6465 210.388V213.903ZM79.9365 210.197C79.9365 207.902 79.6143 206.232 78.9697 205.188C78.3252 204.133 77.3047 203.605 75.9082 203.605C74.5215 203.605 73.5107 204.128 72.876 205.173C72.2412 206.218 71.9141 207.824 71.8945 209.992V214.328C71.8945 216.633 72.2266 218.337 72.8906 219.44C73.5645 220.534 74.5801 221.081 75.9375 221.081C77.2754 221.081 78.2666 220.563 78.9111 219.528C79.5654 218.493 79.9072 216.862 79.9365 214.636V210.197ZM99.4922 213.903C99.4922 217.077 98.9502 219.436 97.8662 220.979C96.7822 222.521 95.0879 223.293 92.7832 223.293C90.5078 223.293 88.8232 222.541 87.7295 221.037C86.6357 219.523 86.0693 217.268 86.0303 214.27V210.651C86.0303 207.517 86.5723 205.188 87.6562 203.664C88.7402 202.141 90.4395 201.379 92.7539 201.379C95.0488 201.379 96.7383 202.116 97.8223 203.591C98.9062 205.056 99.4629 207.321 99.4922 210.388V213.903ZM96.7822 210.197C96.7822 207.902 96.46 206.232 95.8154 205.188C95.1709 204.133 94.1504 203.605 92.7539 203.605C91.3672 203.605 90.3564 204.128 89.7217 205.173C89.0869 206.218 88.7598 207.824 88.7402 209.992V214.328C88.7402 216.633 89.0723 218.337 89.7363 219.44C90.4102 220.534 91.4258 221.081 92.7832 221.081C94.1211 221.081 95.1123 220.563 95.7568 219.528C96.4111 218.493 96.7529 216.862 96.7822 214.636V210.197Z" fill="white"/>
<rect x="2" y="2" width="131" height="372" stroke="black" stroke-width="4"/>
</svg>
