<svg width="735" height="1596" viewBox="0 0 735 1596" fill="none" xmlns="http://www.w3.org/2000/svg">
<g clip-path="url(#clip0)">
<path d="M695.794 901.328L692.548 892.005C691.747 892.512 673.873 902.678 672.524 903.564C669.995 905.392 667.875 907.728 666.3 910.423C664.725 913.118 663.729 916.112 663.376 919.213V922.883L652.921 936.719C662.996 948.193 673.156 959.667 682.431 971.605C689.007 966.29 696.3 959.962 697.354 959.541L700.811 961.439L722.311 953.002C721.772 951.882 720.842 950.997 719.697 950.513H721.257C723.054 950.573 724.805 949.939 726.147 948.742C726.814 948.145 727.353 947.418 727.73 946.606C728.107 945.793 728.314 944.912 728.339 944.017V941.064C728.407 939.529 727.993 938.012 727.153 936.725C726.314 935.439 725.092 934.448 723.66 933.893H727.875C728.38 933.951 728.889 933.951 729.393 933.893C728.559 928.169 727.248 922.525 725.472 917.02C725.472 917.02 725.472 917.02 725.472 916.767C723.828 911.157 721.721 905.546 719.36 899.894C718.559 897.784 717.631 895.675 716.704 893.44L695.794 901.328Z" fill="#E6B07C"/>
<path d="M710.465 916.641C708.403 916.542 706.464 915.63 705.074 914.104C703.683 912.578 702.954 910.563 703.045 908.499V907.065C703.144 905.002 704.055 903.062 705.58 901.671C707.105 900.279 709.119 899.549 711.181 899.641L726.906 900.358C728.826 900.457 730.629 901.309 731.924 902.731C733.219 904.153 733.9 906.029 733.82 907.951V910.904C733.732 912.698 732.938 914.385 731.61 915.595C730.283 916.804 728.531 917.438 726.737 917.358L710.465 916.641Z" fill="#F5C08C"/>
<path d="M733.061 919.593C733.722 920.305 734.233 921.142 734.566 922.055C734.899 922.968 735.047 923.938 735 924.908V927.819C734.938 929.341 734.369 930.799 733.383 931.961C732.398 933.123 731.053 933.922 729.562 934.231C729.058 934.288 728.549 934.288 728.044 934.231H723.829L707.556 933.725C706.528 933.7 705.517 933.467 704.582 933.039C703.647 932.611 702.809 931.998 702.118 931.236C701.409 930.483 700.86 929.594 700.505 928.622C700.15 927.65 699.996 926.616 700.052 925.583V923.812C700.151 921.771 701.045 919.851 702.542 918.463C704.04 917.075 706.022 916.33 708.062 916.387H710.338H710.634L725.388 916.851H727.96C728.141 916.818 728.327 916.818 728.508 916.851C729.412 916.981 730.28 917.29 731.062 917.761C731.844 918.232 732.524 918.855 733.061 919.593Z" fill="#F5C08C"/>
<path d="M723.786 934.062C725.218 934.617 726.44 935.607 727.28 936.894C728.119 938.18 728.534 939.698 728.466 941.233V944.186C728.441 945.081 728.234 945.962 727.857 946.774C727.48 947.587 726.941 948.314 726.273 948.91C724.931 950.108 723.18 950.742 721.383 950.682H719.824L705.195 950.007C704.845 950.046 704.492 950.046 704.141 950.007C702.289 949.682 700.618 948.694 699.439 947.227C698.26 945.76 697.654 943.915 697.733 942.035V940.6C697.819 938.72 698.584 936.934 699.887 935.576C701.19 934.218 702.941 933.38 704.816 933.218H705.87L721.552 933.935C722.299 933.882 723.05 933.925 723.786 934.062Z" fill="#F5C08C"/>
<path d="M719.613 950.556C720.758 951.039 721.687 951.924 722.227 953.045C722.806 954.039 723.071 955.187 722.985 956.335V958.781C722.98 959.496 722.834 960.203 722.555 960.861C722.277 961.519 721.872 962.116 721.363 962.617C720.854 963.118 720.251 963.515 719.589 963.783C718.927 964.051 718.219 964.187 717.505 964.181L704.858 963.633C704.039 963.59 703.24 963.372 702.512 962.993C701.785 962.615 701.147 962.085 700.642 961.439C699.632 960.142 699.124 958.525 699.209 956.883V955.702C699.252 954.353 699.719 953.052 700.544 951.984C701.369 950.916 702.51 950.135 703.804 949.754C704.364 949.684 704.93 949.684 705.49 949.754L717.547 950.345C718.243 950.274 718.946 950.346 719.613 950.556Z" fill="#F5C08C"/>
<path d="M708.652 896.519L696.511 892.005C695.236 891.511 693.823 891.511 692.548 892.005C691.705 892.511 673.831 902.635 672.482 903.563C669.958 905.387 667.841 907.717 666.266 910.404C664.691 913.091 663.692 916.077 663.334 919.171L663.123 922.841L652.71 936.719C658.275 943.047 663.84 949.374 669.32 955.786L676.908 946.632C700.6 940.516 693.223 912.886 693.223 912.886L695.583 911.494C696.155 911.168 696.792 910.973 697.448 910.922C698.103 910.871 698.762 910.965 699.378 911.198L705.701 913.645C707.002 914.121 708.384 914.335 709.767 914.274C711.151 914.214 712.509 913.88 713.762 913.291C715.016 912.703 716.142 911.873 717.073 910.847C718.005 909.822 718.725 908.622 719.191 907.318L719.739 905.757C720.188 904.52 720.13 903.156 719.577 901.963C719.024 900.769 718.021 899.843 716.788 899.387L708.652 896.519Z" fill="#FFCF9F"/>
<path d="M573.835 1026.27H573.161C568.724 1027.32 564.124 1027.48 559.624 1026.75C555.125 1026.02 550.814 1024.4 546.938 1022C543.062 1019.6 539.697 1016.46 537.035 1012.75C534.374 1009.05 532.468 1004.86 531.426 1000.42L501.916 874.626C500.871 870.186 500.71 865.584 501.443 861.081C502.176 856.579 503.788 852.265 506.188 848.387C508.588 844.509 511.728 841.141 515.429 838.478C519.131 835.815 523.32 833.907 527.758 832.865H528.433C532.87 831.819 537.47 831.658 541.969 832.391C546.469 833.125 550.78 834.738 554.656 837.14C558.532 839.541 561.897 842.683 564.558 846.387C567.22 850.09 569.126 854.282 570.168 858.723L599.677 984.514C600.723 988.954 600.884 993.556 600.151 998.059C599.418 1002.56 597.805 1006.87 595.405 1010.75C593.005 1014.63 589.865 1018 586.164 1020.66C582.463 1023.33 578.273 1025.23 573.835 1026.27Z" fill="#F9B233"/>
<path d="M669.067 906.263L555.835 965.32C547.938 970.038 542.237 977.7 539.984 986.623C537.731 995.545 539.111 1005 543.82 1012.9L544.199 1013.49C546.541 1017.4 549.63 1020.82 553.289 1023.53C556.948 1026.25 561.106 1028.22 565.526 1029.33C569.945 1030.43 574.54 1030.66 579.047 1029.99C583.554 1029.32 587.886 1027.77 591.794 1025.43L702.582 958.992C704.015 958.106 671.344 909.3 669.067 906.263Z" fill="#F9B233"/>
<path d="M466.969 1523.78C459.802 1515.64 452.172 1506.91 450.485 1497.71L456.05 1493.5L479.236 1516.44L466.969 1523.78Z" fill="#30302F"/>
<path d="M456.008 1493.28C479.573 1548.12 504.572 1582.71 526.241 1596L533.787 1591.02L465.282 1487.17L456.008 1493.28Z" fill="#30302F"/>
<path d="M462.458 1489.07C464.903 1510.16 519.074 1589.67 533.787 1591.02C549.806 1578.37 516.039 1551.67 517.641 1515.43C519.833 1465.15 470.805 1483.54 462.458 1489.07Z" fill="#57443A"/>
<path d="M538.086 1358.3L537.328 1358.59C532.406 1360.57 527.143 1361.56 521.84 1361.5C516.537 1361.44 511.297 1360.34 506.419 1358.26C501.542 1356.17 497.122 1353.15 493.413 1349.36C489.703 1345.56 486.777 1341.08 484.8 1336.15L419.964 1173.83L495.845 1143.5L560.682 1305.82C564.638 1315.78 564.48 1326.9 560.243 1336.74C556.005 1346.58 548.036 1354.34 538.086 1358.3Z" fill="#30302F"/>
<path d="M531.173 1281.65H531.974C542.468 1283.66 551.74 1289.74 557.761 1298.57C563.782 1307.4 566.06 1318.26 564.097 1328.77L531.89 1500.58L448.799 1513.57L483.873 1313.71C484.874 1308.5 486.892 1303.53 489.811 1299.1C492.73 1294.67 496.493 1290.85 500.885 1287.88C505.278 1284.9 510.213 1282.82 515.41 1281.75C520.607 1280.68 525.963 1280.65 531.173 1281.65Z" fill="#30302F"/>
<path d="M577.292 1108.15L343.913 1084.11L359.132 847.25C371.779 794.521 430.334 736.687 492.22 743.099L494.412 743.31C542.26 748.246 576.154 795.744 568.819 847.84C556.003 938.998 594.155 1003.37 577.292 1108.15Z" fill="#00A19A"/>
<path d="M366.13 1520.41C358.71 1512.52 350.743 1504.17 348.719 1495.1L354.115 1490.33L378.102 1512.48L366.13 1520.41Z" fill="#3C3C3B"/>
<path d="M354.115 1490.33C379.409 1544.16 405.799 1578.03 427.889 1590.56L435.267 1585.33L363.179 1484.09L354.115 1490.33Z" fill="#3C3C3B"/>
<path d="M360.439 1485.86C363.642 1506.95 420.512 1584.44 435.266 1585.29C450.822 1572.12 416.17 1546.6 416.507 1510.33C416.971 1460 368.575 1480.08 360.439 1485.86Z" fill="#634E42"/>
<path d="M485.813 1205.93L388.304 1195.89C357.741 1192.73 335.777 1163.07 339.192 1129.67L346.654 1057.15C399.434 1089.25 522.194 1102.5 580.033 1081.2L575.437 1126.29C570.421 1174.8 530.33 1210.66 485.813 1205.93Z" fill="#3C3C3B"/>
<path d="M432.569 1353.53H431.768C426.575 1354.61 421.22 1354.66 416.009 1353.67C410.799 1352.68 405.834 1350.67 401.399 1347.76C396.963 1344.85 393.144 1341.09 390.16 1336.71C387.175 1332.32 385.084 1327.39 384.004 1322.19L348.382 1151.05L428.269 1134.73L463.723 1305.74C465.908 1316.21 463.856 1327.12 458.016 1336.08C452.176 1345.03 443.025 1351.31 432.569 1353.53Z" fill="#3C3C3B"/>
<path d="M430.377 1281.65H431.178C441.695 1283.63 450.998 1289.7 457.045 1298.53C463.092 1307.37 465.387 1318.24 463.427 1328.77L431.22 1500.58L348.129 1513.57L383.203 1313.71C385.226 1303.21 391.327 1293.94 400.169 1287.93C409.012 1281.92 419.874 1279.66 430.377 1281.65Z" fill="#3C3C3B"/>
<path d="M540.616 912.548L495.719 822.951L554.064 820.758L540.616 912.548Z" fill="#F9B233"/>
<path d="M581.381 857.922L524.891 834.13L486.571 875.934C432.779 835.058 412.165 779.714 436.742 749.68L526.114 747.444C556.759 776.76 576.291 815.805 581.381 857.922Z" fill="#D4972B"/>
<path d="M588.295 686.827L587.536 686.447C581.803 683.537 575.1 685.055 568.987 689.991L559.586 756.978C560.145 757.442 560.737 757.865 561.357 758.243C572.36 764.739 587.325 754.025 594.787 734.283C602.249 714.541 599.298 693.281 588.295 686.827Z" fill="#F3BF8D"/>
<path d="M598.623 718.422C598.038 720.518 597.32 722.576 596.473 724.581C589.096 741.454 574.088 751.24 560.893 748.414L556.678 755.163C557.226 755.627 560.893 757.863 561.61 758.243C572.613 764.739 587.578 754.024 595.04 734.283C596.9 729.169 598.104 723.839 598.623 718.422Z" fill="#E6B181"/>
<path d="M591.583 703.236C590.636 701.36 589.067 699.872 587.145 699.026C585.222 698.18 583.066 698.027 581.044 698.596C578.531 699.505 576.404 701.246 575.016 703.531C573.39 706.111 572.26 708.972 571.685 711.968C571.108 714.814 570.812 717.711 570.8 720.615C570.8 723.315 570.8 725.846 570.8 728.124C570.8 730.402 570.8 732.342 570.547 734.536C570.35 736.283 569.983 738.006 569.451 739.682C567.554 746.009 563.971 747.275 564.182 748.119C564.182 748.119 564.435 748.414 564.898 748.414C565.582 748.409 566.252 748.22 566.838 747.865C569.311 746.364 571.211 744.077 572.234 741.369C573.121 739.415 573.772 737.362 574.173 735.253C574.426 733.397 574.679 731.414 574.805 729.389H575.142C576.258 730.009 577.178 730.93 577.798 732.047C578.371 733.378 578.658 734.815 578.641 736.265C578.641 737.615 578.641 738.796 578.979 739.344C579.316 739.893 580.581 739.344 581.592 737.531C582.248 736.146 582.589 734.633 582.589 733.101C582.589 731.569 582.248 730.056 581.592 728.672C581.101 727.473 580.213 726.48 579.078 725.858C577.942 725.236 576.627 725.023 575.353 725.255H574.974C574.938 721.129 575.262 717.007 575.943 712.938C576.146 711.013 576.787 709.16 577.818 707.522C578.848 705.884 580.24 704.504 581.887 703.489C583.147 703.02 584.525 702.977 585.811 703.365C587.098 703.753 588.222 704.552 589.012 705.64C590.338 707.578 591.124 709.835 591.288 712.178C591.288 713.992 591.288 715.131 591.668 715.3C592.047 715.469 592.637 714.456 593.017 712.263C593.508 709.178 593.006 706.016 591.583 703.236Z" fill="#CF9F74"/>
<path d="M585.723 710.196C587.536 705.978 596.136 693.702 596.937 688.303C598.623 679.466 599.231 670.458 598.75 661.474C594.871 627.39 578.81 622.117 571.559 622.835C573.076 629.542 585.386 641.522 581.676 646.837C579.574 649.97 576.466 652.291 572.866 653.417C571.11 654.255 569.697 655.674 568.867 657.435C568.037 659.195 567.841 661.189 568.313 663.077C572.415 691.894 571.416 721.209 565.362 749.679C568.861 753.898 575.226 751.788 578.346 746.811C581.168 741.214 582.613 735.025 582.562 728.756C582.528 722.433 583.598 716.151 585.723 710.196Z" fill="#EDEDED"/>
<path d="M573.33 738.501C573.995 728.855 576.128 719.367 579.653 710.365C583.916 699.285 586.474 687.622 587.241 675.775C590.529 619.587 547.698 585.925 492.6 582.677C437.501 579.428 391.044 607.986 387.714 664.048C386.943 680.489 389.495 696.917 395.218 712.348C395.007 713.571 394.754 714.836 394.586 716.06C390.96 742.213 401.331 788.066 415.959 810.423C430.587 832.78 440.283 822.657 462.584 837.8C478.309 848.473 508.493 849.443 520.887 837.8C533.281 826.158 543.103 828.731 551.45 816.709C564.224 798.106 571.264 771.952 573.33 738.501Z" fill="#FFC994"/>
<path d="M559.212 719.325C559.57 713.231 554.188 707.958 547.192 707.547C540.196 707.136 534.235 711.743 533.878 717.836C533.52 723.93 538.902 729.202 545.898 729.613C552.894 730.024 558.855 725.418 559.212 719.325Z" fill="#936037"/>
<path d="M553.363 718.981C553.572 715.423 550.689 712.359 546.923 712.138C543.158 711.916 539.936 714.622 539.728 718.18C539.519 721.738 542.402 724.802 546.167 725.024C549.932 725.245 553.154 722.539 553.363 718.981Z" fill="#3C3C3B"/>
<path d="M550.059 722.935C550.024 723.566 550.239 724.185 550.657 724.659C551.076 725.133 551.663 725.423 552.293 725.466C552.924 725.501 553.543 725.286 554.016 724.867C554.49 724.449 554.779 723.861 554.823 723.23C554.858 722.599 554.643 721.98 554.224 721.506C553.806 721.033 553.219 720.743 552.588 720.699C551.958 720.665 551.339 720.88 550.866 721.298C550.392 721.717 550.102 722.305 550.059 722.935Z" fill="white"/>
<path d="M537.834 712.348C537.805 712.791 537.864 713.236 538.008 713.656C538.151 714.076 538.377 714.464 538.67 714.797C538.964 715.131 539.321 715.402 539.72 715.597C540.119 715.792 540.552 715.906 540.995 715.933C541.438 715.962 541.883 715.903 542.303 715.759C542.723 715.615 543.111 715.39 543.444 715.096C543.777 714.802 544.048 714.445 544.243 714.046C544.438 713.647 544.552 713.213 544.579 712.769C544.607 712.326 544.548 711.881 544.404 711.461C544.261 711.041 544.036 710.653 543.742 710.32C543.448 709.986 543.092 709.715 542.693 709.52C542.294 709.325 541.86 709.211 541.417 709.184C540.974 709.155 540.529 709.214 540.109 709.358C539.689 709.502 539.302 709.727 538.969 710.021C538.636 710.315 538.364 710.672 538.169 711.071C537.975 711.47 537.86 711.904 537.834 712.348Z" fill="white"/>
<path d="M485.286 714.978C485.643 708.884 480.262 703.612 473.266 703.201C466.27 702.79 460.309 707.396 459.951 713.489C459.594 719.583 464.975 724.856 471.971 725.267C478.967 725.678 484.928 721.071 485.286 714.978Z" fill="#936037"/>
<path d="M479.436 714.634C479.645 711.075 476.762 708.011 472.996 707.79C469.231 707.569 466.009 710.274 465.801 713.832C465.592 717.391 468.475 720.455 472.24 720.676C476.005 720.897 479.227 718.192 479.436 714.634Z" fill="#3C3C3B"/>
<path d="M476.116 718.591C476.082 719.222 476.297 719.841 476.715 720.315C477.133 720.788 477.721 721.078 478.351 721.122C478.981 721.157 479.6 720.941 480.074 720.523C480.547 720.105 480.837 719.517 480.88 718.886C480.915 718.255 480.7 717.636 480.282 717.162C479.864 716.688 479.276 716.399 478.646 716.355C478.015 716.32 477.396 716.536 476.923 716.954C476.449 717.372 476.16 717.96 476.116 718.591Z" fill="white"/>
<path d="M463.09 707.961C463.062 708.421 463.124 708.882 463.274 709.317C463.424 709.753 463.658 710.155 463.964 710.5C464.269 710.845 464.64 711.126 465.054 711.327C465.469 711.528 465.919 711.646 466.378 711.673C466.838 711.701 467.299 711.639 467.734 711.489C468.17 711.339 468.571 711.104 468.916 710.798C469.261 710.493 469.542 710.122 469.743 709.707C469.944 709.293 470.061 708.842 470.088 708.382C470.117 707.922 470.054 707.461 469.904 707.026C469.754 706.59 469.52 706.188 469.214 705.843C468.909 705.498 468.538 705.217 468.124 705.016C467.71 704.815 467.26 704.697 466.8 704.67C466.34 704.642 465.879 704.704 465.444 704.854C465.008 705.004 464.607 705.239 464.262 705.545C463.918 705.85 463.637 706.221 463.435 706.636C463.234 707.05 463.117 707.5 463.09 707.961Z" fill="white"/>
<path d="M498.206 707.201C490.197 707.876 480.754 697.626 443.951 713.866C436.489 717.325 434.171 709.648 439.229 706.821C448.117 701.016 457.862 696.646 468.107 693.871C479.7 690.539 496.942 688.514 501.621 694.588C503.898 697.71 504.277 707.539 498.206 707.201Z" fill="#F6F6F6"/>
<path d="M520.76 707.876C528.18 709.225 538.424 699.987 570.589 719.054C577.124 723.272 580.327 715.848 575.985 712.558C568.474 706.099 559.921 700.964 550.691 697.372C540.321 693.154 524.47 689.652 519.243 695.178C516.755 698.089 514.985 707.707 520.76 707.876Z" fill="#F6F6F6"/>
<path d="M514.31 815.19C514.31 816.624 508.366 822.066 500.609 821.644C492.852 821.222 486.487 815.317 486.74 813.924C486.993 812.532 492.642 815.696 500.103 815.991C507.565 816.287 514.31 813.671 514.31 815.19Z" fill="#DBA97B"/>
<path d="M529.698 805.699C529.402 807.344 517.051 807.386 501.663 806.88C497.785 806.88 494.117 806.88 490.787 806.542L486.023 806.247L482.271 805.909C482.271 805.909 482.271 805.699 481.934 805.361C481.597 805.024 481.934 805.572 482.187 805.572C482.44 805.572 482.187 805.572 482.187 805.572C481.957 805.851 481.772 806.164 481.639 806.5C481.311 807.257 480.931 807.99 480.501 808.694C479.742 809.875 479.067 810.423 478.646 810.254C478.224 810.086 478.098 809.326 478.098 808.103C478.098 806.88 478.098 806.753 478.098 805.783C478.124 805.162 478.252 804.549 478.477 803.969C478.729 803.438 479.105 802.975 479.573 802.619C480.097 802.278 480.685 802.048 481.302 801.944C482.083 801.816 482.872 801.731 483.663 801.691H485.813H490.576C493.949 801.691 497.659 801.691 501.537 801.691C517.346 801.48 529.95 804.222 529.698 805.699Z" fill="#C4986E"/>
<path d="M521.055 772.416C520.339 772.037 519.58 771.741 518.863 771.404C515.628 774.012 511.545 775.334 507.397 775.116C504.892 774.92 502.462 774.176 500.277 772.937C498.091 771.698 496.205 769.994 494.75 767.945C490.376 768.466 486.11 769.661 482.103 771.488C476.258 774.141 471.19 778.247 467.382 783.416C463.574 788.586 461.153 794.645 460.35 801.016C487.513 796.843 515.199 797.5 542.134 802.957C541.495 796.496 539.225 790.303 535.538 784.961C531.851 779.619 526.868 775.302 521.055 772.416Z" fill="#F6F6F6"/>
<path d="M519.749 748.119C520.381 754.784 520.507 763.769 516.46 768.704C512.413 773.639 504.741 772.416 499.345 769.084C494.088 765.109 489.77 760.025 486.698 754.193C488.256 759.654 490.691 764.826 493.907 769.505C511.359 790.007 527.084 774.652 527.126 759.255C527.192 741.43 522.847 723.865 514.479 708.129C516.755 721.346 518.512 734.676 519.749 748.119Z" fill="#DBA97B"/>
<path d="M392.941 698.849C391.171 694.631 381.812 681.09 381.475 675.606C381.053 668.055 382.234 657.425 382.74 648.735C384.594 617.351 395.387 614.651 404.619 616.339C403.464 618.971 402.873 621.817 402.882 624.692C402.891 627.567 403.5 630.408 404.671 633.034C405.842 635.659 407.549 638.011 409.681 639.937C411.814 641.864 414.326 643.323 417.055 644.222C418.993 644.995 420.553 646.494 421.404 648.401C422.254 650.307 422.327 652.47 421.608 654.43C412.511 682.237 409.844 711.748 413.809 740.737C408.75 744.576 400.867 741.538 397.536 736.139C394.679 730.414 393.621 723.958 394.501 717.62C395.38 711.325 394.847 704.913 392.941 698.849Z" fill="#EDEDED"/>
<path d="M373.128 676.365L374.013 676.112C377.662 675.242 381.476 675.362 385.063 676.46C388.65 677.557 391.879 679.592 394.417 682.355L398 750.481C397.321 750.853 396.617 751.178 395.892 751.451C382.908 756.302 367.268 743.436 360.987 722.724C354.705 702.013 360.102 681.216 373.128 676.365Z" fill="#FFC994"/>
<path d="M358.331 706.357C358.787 708.548 359.393 710.704 360.144 712.811C366.636 730.866 382.444 742.635 397.494 741.749L401.71 749.131C401.035 749.511 396.567 751.198 395.85 751.451C382.866 756.302 367.226 743.436 360.945 722.724C359.317 717.417 358.437 711.908 358.331 706.357Z" fill="#F2BB88"/>
<path d="M367.69 692.268C369.118 690.485 371.09 689.218 373.305 688.662C375.521 688.106 377.857 688.291 379.957 689.189C382.603 690.395 384.791 692.421 386.196 694.968C387.717 697.677 388.691 700.658 389.063 703.742C389.382 706.644 389.382 709.572 389.063 712.474C389.063 715.174 388.473 717.663 388.304 719.941C388.136 722.219 388.009 724.159 387.925 726.352C387.96 728.129 388.186 729.897 388.599 731.625C390.075 738.206 393.953 740.062 393.616 740.864C393.616 740.864 393.279 741.117 392.773 740.864C392.013 740.755 391.29 740.465 390.665 740.02C388.118 738.26 386.222 735.711 385.269 732.764C384.49 730.716 383.979 728.575 383.751 726.395C383.751 724.539 383.751 722.472 383.751 720.447H383.372C382.1 720.87 380.975 721.645 380.126 722.683C379.326 723.955 378.849 725.403 378.735 726.901C378.735 728.251 378.735 729.432 378.018 729.938C377.301 730.444 376.205 729.938 375.278 727.745C374.695 726.31 374.478 724.753 374.648 723.214C374.817 721.674 375.367 720.202 376.248 718.928C377.036 717.775 378.177 716.908 379.5 716.459C380.823 716.011 382.256 716.004 383.583 716.439L383.962 716.65C384.369 712.512 384.369 708.344 383.962 704.206C383.893 702.163 383.341 700.165 382.352 698.376C381.363 696.587 379.964 695.058 378.271 693.914C376.95 693.245 375.458 692.992 373.991 693.188C372.524 693.384 371.15 694.019 370.05 695.01C368.381 696.695 367.251 698.839 366.804 701.169C366.425 702.983 366.467 704.122 366.046 704.206C365.624 704.291 365.076 703.236 364.823 700.958C364.709 697.812 365.726 694.729 367.69 692.268Z" fill="#DBA97B"/>
<path opacity="0.1" d="M572.739 693.408C552.054 687.23 530.719 683.493 509.167 682.271C487.573 682.15 466.04 684.557 445.005 689.442C465.352 680.848 487.251 676.54 509.336 676.787C531.386 677.914 552.969 683.571 572.739 693.408Z" fill="#1D1D1B"/>
<path opacity="0.1" d="M562.58 680.162C545.755 672.603 527.761 667.98 509.378 666.494C490.985 666.319 472.696 669.272 455.291 675.226C471.788 665.491 490.65 660.499 509.8 660.799C528.838 662.27 547.102 668.97 562.58 680.162Z" fill="#1D1D1B"/>
<path opacity="0.1" d="M555.582 662.698C541.249 657.959 526.377 655.039 511.317 654.008C496.213 653.813 481.144 655.514 466.463 659.07C480.324 651.779 495.862 648.276 511.509 648.913C527.156 649.549 542.358 654.305 555.582 662.698Z" fill="#1D1D1B"/>
<path opacity="0.1" d="M442.644 813.798C432.189 785.451 464.819 763.178 484.801 749.384C476.833 759.255 467.938 768.156 459.043 777.31C449.389 787.518 441.548 799.076 442.644 813.798Z" fill="#1D1D1B"/>
<path opacity="0.1" d="M554.612 802.029C554.106 792.412 545.801 785.156 540.532 777.816C535.781 771.207 531.7 764.142 528.348 756.725C534.553 762.06 540.203 768.01 545.211 774.484C549.275 779.215 552.472 784.627 554.654 790.471C555.076 792.032 557.015 801.481 554.612 802.029Z" fill="#1D1D1B"/>
<path opacity="0.1" d="M488.005 725.044C479.746 733.448 468.69 738.521 456.937 739.299C445.185 740.076 433.556 736.505 424.264 729.263C445.253 736.186 468.11 734.674 488.005 725.044Z" fill="#1D1D1B"/>
<path opacity="0.1" d="M482.566 734.282C479.46 739.106 475.334 743.19 470.48 746.247C465.626 749.304 460.161 751.259 454.471 751.975C448.78 752.691 443.002 752.15 437.543 750.39C432.083 748.631 427.076 745.695 422.873 741.791C432.64 745.91 443.243 747.659 453.816 746.895C464.26 745.023 474.113 740.7 482.566 734.282Z" fill="#1D1D1B"/>
<path opacity="0.1" d="M566.669 738.67C563.612 740.936 560.056 742.435 556.3 743.038C552.544 743.642 548.698 743.333 545.086 742.138C541.474 740.943 538.202 738.896 535.546 736.171C532.89 733.446 530.928 730.122 529.824 726.479C534.772 730.976 540.608 734.384 546.955 736.484C553.301 738.584 560.017 739.328 566.669 738.67Z" fill="#1D1D1B"/>
<path opacity="0.1" d="M566.964 753.097C567.175 754.531 561.652 756.514 560.851 756.725C555.802 757.82 550.529 757.135 545.928 754.784C541.964 752.907 538.411 750.263 535.473 747.005C532.536 743.747 530.272 739.94 528.812 735.802C538.213 743.521 553.516 757.906 566.964 753.097Z" fill="#1D1D1B"/>
<path d="M467.095 905.124C466.163 903.418 465.946 901.411 466.491 899.544C467.036 897.678 468.3 896.104 470.004 895.169L522.025 866.738C523.73 865.805 525.736 865.588 527.601 866.133C529.466 866.679 531.039 867.943 531.974 869.648C532.906 871.355 533.123 873.361 532.578 875.228C532.032 877.094 530.769 878.668 529.065 879.603L477.044 908.035C475.338 908.967 473.333 909.185 471.468 908.639C469.602 908.093 468.03 906.829 467.095 905.124Z" fill="#F2BC88"/>
<path d="M479.953 915.037C479.451 914.182 479.124 913.235 478.988 912.253C478.852 911.27 478.911 910.27 479.162 909.311C479.412 908.351 479.849 907.45 480.448 906.659C481.047 905.868 481.795 905.204 482.651 904.702L534.672 876.271C535.555 875.819 536.518 875.545 537.507 875.466C538.495 875.387 539.49 875.503 540.434 875.809C541.377 876.114 542.251 876.603 543.006 877.247C543.761 877.891 544.381 878.677 544.832 879.561C545.333 880.417 545.661 881.363 545.797 882.346C545.932 883.329 545.873 884.328 545.623 885.288C545.372 886.248 544.935 887.149 544.336 887.94C543.738 888.73 542.989 889.395 542.134 889.896L490.112 918.328C489.23 918.78 488.266 919.053 487.278 919.133C486.289 919.212 485.295 919.095 484.351 918.79C483.407 918.484 482.533 917.996 481.779 917.352C481.024 916.708 480.403 915.921 479.953 915.037Z" fill="#F2BC88"/>
<path d="M482.44 931.11C481.487 929.392 481.254 927.366 481.791 925.476C482.329 923.586 483.593 921.987 485.306 921.028L537.328 892.597C539.061 891.67 541.091 891.469 542.972 892.039C544.853 892.608 546.431 893.901 547.361 895.634C548.313 897.352 548.547 899.378 548.009 901.267C547.472 903.157 546.208 904.757 544.494 905.715L492.473 934.147C490.74 935.074 488.71 935.274 486.829 934.705C484.948 934.135 483.369 932.842 482.44 931.11Z" fill="#F2BC88"/>
<path d="M453.9 917.527C453.138 916.781 452.539 915.885 452.14 914.896C451.741 913.907 451.552 912.845 451.584 911.779C451.615 910.713 451.867 909.665 452.324 908.701C452.781 907.737 453.432 906.879 454.237 906.18C466.565 894.008 477.546 880.545 486.993 866.021C488.19 864.312 489.976 863.108 492.008 862.641C494.041 862.173 496.174 862.476 497.996 863.49C498.905 864.023 499.694 864.738 500.315 865.59C500.935 866.442 501.374 867.412 501.604 868.441C501.833 869.47 501.848 870.536 501.648 871.571C501.448 872.606 501.037 873.588 500.441 874.458C490.606 889.682 479.189 903.822 466.378 916.641C464.784 918.32 462.62 919.342 460.311 919.506C458.002 919.67 455.715 918.964 453.9 917.527Z" fill="#F2BC88"/>
<path d="M493.949 940.221C493.533 939.471 493.269 938.646 493.173 937.794C493.077 936.942 493.151 936.079 493.39 935.256C493.629 934.432 494.029 933.664 494.566 932.996C495.103 932.328 495.767 931.773 496.52 931.363L531.342 912.675C532.091 912.259 532.915 911.996 533.767 911.9C534.618 911.804 535.481 911.878 536.304 912.117C537.127 912.356 537.894 912.756 538.562 913.293C539.23 913.831 539.785 914.495 540.194 915.249C540.61 915.998 540.874 916.823 540.97 917.675C541.066 918.528 540.992 919.39 540.753 920.214C540.514 921.037 540.114 921.805 539.577 922.474C539.04 923.142 538.376 923.697 537.623 924.107L502.801 942.794C502.052 943.21 501.228 943.474 500.376 943.57C499.525 943.666 498.662 943.592 497.839 943.353C497.016 943.114 496.249 942.714 495.581 942.176C494.913 941.639 494.358 940.974 493.949 940.221Z" fill="#F2BC88"/>
<path d="M462.165 910.797L427.759 929.606L445.87 962.775L480.275 943.965L462.165 910.797Z" fill="#FFC994"/>
<path d="M515.406 928.705C514.997 927.952 514.442 927.287 513.774 926.75C513.106 926.212 512.339 925.812 511.516 925.573C510.693 925.334 509.83 925.26 508.979 925.356C508.127 925.452 507.303 925.715 506.554 926.132L508.661 924.993C510.365 924.057 511.629 922.484 512.174 920.617C512.719 918.751 512.502 916.744 511.57 915.038C510.635 913.333 509.063 912.068 507.197 911.523C505.332 910.977 503.327 911.194 501.621 912.127L503.56 911.072C505.264 910.137 506.528 908.563 507.073 906.697C507.618 904.83 507.401 902.823 506.469 901.117C505.535 899.412 503.962 898.148 502.097 897.602C500.231 897.057 498.226 897.274 496.52 898.206C498.224 897.271 499.488 895.697 500.033 893.831C500.578 891.964 500.361 889.958 499.429 888.251C498.494 886.546 496.922 885.282 495.056 884.736C493.191 884.191 491.186 884.408 489.48 885.341L476.285 892.554L473.924 893.819L460.814 900.99C455.827 903.764 452.14 908.401 450.56 913.887C448.98 919.373 449.636 925.262 452.382 930.266L459.296 942.921C462.068 947.911 466.702 951.599 472.184 953.18C477.667 954.761 483.552 954.106 488.553 951.357L501.663 944.186L504.024 942.921L513.172 937.901C513.943 937.463 514.615 936.872 515.149 936.165C515.683 935.457 516.066 934.648 516.276 933.786C516.485 932.925 516.516 932.029 516.366 931.156C516.217 930.282 515.89 929.448 515.406 928.705Z" fill="#FFC994"/>
<path d="M368.587 814.932L300.128 924.794C289.972 941.091 294.943 962.541 311.23 972.703L311.84 973.083C328.127 983.245 349.563 978.271 359.718 961.974L428.177 852.112C438.333 835.814 433.362 814.365 417.075 804.203L416.466 803.823C400.179 793.661 378.743 798.635 368.587 814.932Z" fill="#F9B233"/>
<path d="M465.24 963.084L446.354 903.142L313.392 921.998C304.297 923.391 296.127 928.342 290.68 935.763C285.233 943.183 282.954 952.465 284.346 961.566V962.241C285.035 966.76 286.609 971.098 288.977 975.006C291.345 978.915 294.462 982.317 298.148 985.018C301.833 987.718 306.016 989.664 310.455 990.743C314.894 991.821 319.502 992.013 324.015 991.305L465.24 963.084Z" fill="#F9B233"/>
<path d="M712.109 918.075L674.969 390.954L671.892 386.398L711.139 917.146L712.109 918.075Z" fill="#56454A"/>
<path d="M710.591 923.305L532.859 409.557L527.674 415.715L709.537 923.221L710.591 923.305Z" fill="#56454A"/>
<path d="M530.161 442.122C571.433 395.341 634.499 370.411 673.831 385.934C673.831 385.934 666.917 49.3128 492.558 64.4988C271.32 83.6921 220.057 236.226 220.057 236.226C220.057 236.226 430.587 -18.8552 530.161 442.122Z" fill="#BC4B61"/>
<path d="M520.254 220.914C494.671 218.368 468.914 218.057 443.276 219.986C341.468 89.3444 220.057 236.226 220.057 236.226C220.057 236.226 271.32 83.6918 492.389 64.4985C593.565 55.7244 638.251 164.81 658.149 258.246C614.67 237.964 568.022 225.335 520.254 220.914Z" fill="#992E48"/>
<path d="M522.236 888.294L523.037 887.577L279.793 595.121L275.198 594.615L522.236 888.294Z" fill="#282230"/>
<path d="M524.133 894.326L524.723 893.524L181.526 662.74L181.105 668.055L524.133 894.326Z" fill="#282230"/>
<path d="M281.563 596.979C217.991 588.964 175.75 617.269 184.983 670.673C35.959 585.885 -184.646 272.211 279.708 45.0545C665.778 -143.799 691.157 317.727 673.872 385.937C666.411 299.841 630.915 37.7147 396.819 136.044C221.321 209.738 116.183 426.053 281.563 596.979Z" fill="#FFCA45"/>
<path d="M592.511 156.078C606.282 146.236 619.322 136.323 631.632 126.339C680.534 225.681 682.22 352.736 673.789 386.061C669.362 334.091 654.65 218.341 592.511 156.078Z" fill="#FFAC33"/>
<path d="M208.928 337.972C184.814 420.693 201.466 514.171 281.606 596.935C218.034 588.92 175.793 617.225 185.025 670.629C103.874 624.522 1.64411 510.417 0 379.649C70.8233 372.534 140.792 358.577 208.928 337.972Z" fill="#FFAC33"/>
<path d="M226.507 292.92L222.84 300.64C159.605 255.42 106.656 272.672 32.6292 284.357C32.6292 284.399 159.141 233.653 226.507 292.92Z" fill="#FFAC33"/>
<path d="M265.586 232.894L259.895 239.98C205.935 184.172 155.052 185.606 89.9622 192.524C89.9622 192.524 209.94 162.49 265.586 232.894Z" fill="#FFAC33"/>
<path d="M306.816 191.301L298.384 198.725C274.018 123.808 212.469 127.183 146.157 134.986C146.157 134.986 274.271 97.4857 306.816 191.301Z" fill="#FFAC33"/>
<path d="M361.24 153.463L351.122 159.368C347.792 82.2154 301.799 73.9475 248.344 71.2478C248.344 71.2478 356.729 58.7194 361.24 153.463Z" fill="#FFAC33"/>
<path d="M425.065 125.58L417.814 127.942C413.388 57.96 378.355 33.7468 348.972 30.8362C348.972 30.8362 414.526 25.3102 425.065 125.58Z" fill="#FFAC33"/>
<path d="M7.29297 387.115C7.29297 387.115 142.911 371.761 192.782 358.093L182.158 421.115C119.682 454.018 22.8487 462.075 22.8487 462.075C8.97923 438.705 7.29297 387.115 7.29297 387.115Z" fill="#FFCA45"/>
<path d="M488.679 114.358L477.423 114.907C477.423 114.907 478.182 31.4686 470.004 11.5581C470.004 11.5581 483.199 36.0243 488.679 114.358Z" fill="#FFAC33"/>
<path d="M543.778 123.681L533.702 120.222L564.266 50.1982L543.778 123.681Z" fill="#FFAC33"/>
<path d="M602.46 156.584L632.812 205.643L653.891 196.49C649.806 174.562 642.802 153.281 633.065 133.215L602.46 156.584Z" fill="#FFCA45"/>
</g>
<defs>
<clipPath id="clip0">
<rect width="735" height="1596" fill="white"/>
</clipPath>
</defs>
</svg>
