<svg width="471" height="935" viewBox="0 0 471 935" fill="none" xmlns="http://www.w3.org/2000/svg">
<path d="M436.463 468.975L443.483 462.678C442.757 462.194 427.345 450.124 425.892 449.236C423.35 447.683 420.512 446.677 417.56 446.281C414.608 445.885 411.606 446.108 408.745 446.935L405.436 448.106L389.297 444.069C382.882 457.188 376.507 470.429 369.447 483.104C376.548 487.14 384.819 491.177 385.586 491.863L385.182 495.617L400.474 511.562C401.271 510.674 401.716 509.526 401.724 508.332L402.208 509.745C402.813 511.354 404.011 512.669 405.557 513.419C406.341 513.755 407.185 513.929 408.039 513.929C408.892 513.929 409.736 513.755 410.52 513.419L413.183 512.49C414.563 511.984 415.749 511.057 416.574 509.84C417.399 508.623 417.822 507.178 417.782 505.709L419.154 509.382C419.333 509.837 419.563 510.271 419.84 510.674C424.538 507.832 428.991 504.605 433.155 501.026C433.155 501.026 433.155 501.026 433.155 501.026C437.512 497.474 441.668 493.558 445.985 489.32C447.558 487.826 449.092 486.212 450.705 484.597L436.463 468.975Z" fill="#E6B07C"/>
<path d="M379.977 532.552C382.877 532.552 385.658 531.4 387.709 529.348C389.76 527.297 390.911 524.514 390.911 521.613C391.085 515.606 393.092 509.797 396.664 504.966C400.235 500.134 405.199 496.513 410.888 494.588C416.578 492.662 422.72 492.526 428.489 494.196C434.259 495.867 439.379 499.265 443.161 503.933C448.688 511.158 449.132 519.312 449.132 530.897C449.132 552.238 449.132 573.591 449.132 594.958V933.349H471V594.958C471 573.591 471 552.224 471 530.857C471 519.635 471 504.296 460.51 490.491C453.948 482.184 444.978 476.112 434.83 473.107C424.682 470.103 413.854 470.313 403.83 473.709C393.806 477.104 385.078 483.52 378.843 492.075C372.608 500.63 369.171 510.905 369.003 521.492C368.987 522.942 369.259 524.381 369.804 525.725C370.349 527.069 371.155 528.291 372.177 529.32C373.198 530.349 374.413 531.165 375.753 531.72C377.092 532.275 378.528 532.558 379.977 532.552V532.552Z" fill="#7B6A58"/>
<path d="M428.394 487.544C427.717 485.686 427.804 483.636 428.636 481.842C429.468 480.049 430.977 478.659 432.832 477.977L434.123 477.493C435.98 476.815 438.029 476.903 439.822 477.735C441.614 478.567 443.004 480.077 443.685 481.933L448.85 496.101C449.481 497.821 449.411 499.719 448.657 501.388C447.902 503.057 446.522 504.362 444.815 505.022L442.152 505.991C441.342 506.277 440.483 506.4 439.625 506.351C438.767 506.303 437.927 506.084 437.154 505.709C436.381 505.334 435.69 504.808 435.121 504.164C434.552 503.519 434.117 502.768 433.841 501.955L428.394 487.544Z" fill="#F5C08C"/>
<path d="M434.405 508.615C434.014 509.466 433.455 510.231 432.762 510.862C432.068 511.493 431.255 511.978 430.371 512.288L427.748 513.216C426.383 513.725 424.888 513.763 423.499 513.324C422.11 512.885 420.908 511.995 420.082 510.794C419.805 510.391 419.575 509.958 419.396 509.503L418.025 505.829L412.497 491.257C412.109 490.351 411.908 489.376 411.908 488.391C411.908 487.406 412.109 486.43 412.497 485.525C412.864 484.616 413.411 483.79 414.104 483.096C414.797 482.403 415.623 481.856 416.532 481.488L417.782 481.004C419.624 480.335 421.654 480.417 423.436 481.233C425.217 482.049 426.607 483.532 427.304 485.364L428.071 487.422V487.664L433.114 500.864L434.002 503.165C434.029 503.325 434.029 503.489 434.002 503.649C434.786 505.186 434.931 506.971 434.405 508.615V508.615Z" fill="#F5C08C"/>
<path d="M418.105 505.748C418.144 507.218 417.722 508.663 416.896 509.88C416.071 511.097 414.885 512.023 413.506 512.53L410.843 513.458C410.059 513.795 409.214 513.968 408.361 513.968C407.508 513.968 406.664 513.795 405.88 513.458C404.334 512.709 403.135 511.394 402.531 509.785L402.047 508.372L397.246 495.172C397.128 494.846 397.046 494.508 397.004 494.163C396.609 492.406 396.866 490.565 397.727 488.984C398.588 487.402 399.994 486.187 401.684 485.565L402.975 485.121C404.659 484.442 406.533 484.404 408.243 485.014C409.953 485.624 411.38 486.84 412.255 488.431C412.428 488.728 412.576 489.039 412.699 489.36L417.863 503.488C418.045 504.227 418.127 504.987 418.105 505.748V505.748Z" fill="#F5C08C"/>
<path d="M402.007 508.171C401.998 509.365 401.553 510.513 400.756 511.401C400.089 512.269 399.175 512.917 398.134 513.258L395.955 514.065C394.676 514.584 393.244 514.573 391.973 514.036C390.702 513.498 389.696 512.478 389.177 511.199L385.142 500.017C384.871 499.276 384.763 498.484 384.826 497.697C384.889 496.91 385.12 496.145 385.505 495.456C386.279 494.105 387.509 493.074 388.975 492.55L390.024 492.106C391.234 491.636 392.562 491.563 393.816 491.897C395.07 492.231 396.187 492.954 397.004 493.962C397.331 494.398 397.602 494.872 397.811 495.375L401.846 506.274C402.022 506.89 402.077 507.535 402.007 508.171V508.171Z" fill="#F5C08C"/>
<path d="M445.662 478.542L445.178 466.15C445.129 464.847 444.596 463.61 443.685 462.678V462.678C442.959 462.113 427.546 450.084 426.094 449.236C423.552 447.683 420.714 446.677 417.762 446.281C414.81 445.885 411.808 446.108 408.947 446.935L405.638 448.106L389.499 444.069C385.989 451.295 382.439 458.561 378.807 465.786L389.701 469.137C403.822 487.786 425.327 471.155 425.327 471.155L427.425 472.729C427.921 473.114 428.326 473.602 428.612 474.16C428.897 474.718 429.057 475.332 429.08 475.959V482.458C429.136 483.785 429.456 485.088 430.019 486.291C430.582 487.495 431.379 488.574 432.362 489.468C433.345 490.361 434.495 491.051 435.746 491.496C436.997 491.942 438.324 492.135 439.65 492.065H441.224C442.48 492.002 443.66 491.445 444.507 490.514C445.353 489.584 445.798 488.357 445.743 487.1L445.662 478.542Z" fill="#FFCF9F"/>
<path d="M287.502 424.855L286.857 425.056C278.537 427.94 269.413 427.4 261.491 423.555C253.569 419.709 247.499 412.873 244.614 404.55L204.267 287.69C201.384 279.366 201.924 270.238 205.768 262.312C209.611 254.387 216.444 248.313 224.763 245.427L225.409 245.225C233.728 242.341 242.852 242.881 250.774 246.726C258.696 250.572 264.767 257.408 267.652 265.731L307.999 382.591C310.881 390.915 310.341 400.043 306.498 407.969C302.654 415.895 295.821 421.968 287.502 424.855V424.855Z" fill="#F9B233"/>
<path d="M395.188 438.62L294.603 369.23C287.07 364.671 278.035 363.292 269.485 365.397C260.935 367.501 253.571 372.916 249.011 380.452L248.648 381.017C244.091 388.554 242.713 397.594 244.816 406.148C246.92 414.702 252.333 422.069 259.865 426.631L365.654 490.652C367.066 491.5 393.655 441.89 395.188 438.62Z" fill="#F9B233"/>
<path d="M230.412 931.774C220.042 932.339 209.028 932.985 201.039 928.746V921.965L232.025 917.928L230.412 931.774Z" fill="#30302F"/>
<path d="M201.039 921.965C256.113 936.578 297.024 938.354 319.82 930.039L320.547 921.4L201.927 911.43L201.039 921.965Z" fill="#30302F"/>
<path d="M201.685 914.578C219.074 925.276 310.621 931.532 320.547 921.279C320.547 901.742 280.482 911.349 254.176 888.704C217.662 857.299 202.451 905.052 201.685 914.578Z" fill="#57443A"/>
<path d="M250.464 755.657H249.697C239.522 756.875 229.278 754 221.221 747.664C213.163 741.329 207.95 732.051 206.728 721.87L186.797 555.763L264.343 546.438L284.275 712.546C284.895 717.599 284.511 722.725 283.146 727.63C281.78 732.535 279.46 737.121 276.319 741.127C273.178 745.132 269.277 748.478 264.84 750.971C260.403 753.465 255.518 755.057 250.464 755.657V755.657Z" fill="#30302F"/>
<path d="M248.205 684.491H248.971C254.032 684.908 258.96 686.319 263.476 688.643C267.991 690.966 272.004 694.158 275.287 698.034C278.569 701.91 281.056 706.395 282.605 711.233C284.154 716.071 284.735 721.167 284.315 726.229L270.516 892.942L192.687 913.448L206.486 719.69C207.369 709.494 212.256 700.064 220.076 693.466C227.895 686.868 238.011 683.641 248.205 684.491Z" fill="#30302F"/>
<path d="M298.799 502.479H74.2689L65.554 275.54C72.3322 224.113 122.524 163.322 182.035 163.322H184.134C230.169 163.322 267.087 205.182 265.231 255.518C261.963 343.517 304.569 401.039 298.799 502.479Z" fill="#00A19A"/>
<path d="M134.063 931.774C123.694 932.339 112.679 932.985 104.69 928.746V921.965L135.677 917.928L134.063 931.774Z" fill="#3C3C3B"/>
<path d="M104.69 921.965C159.764 936.578 200.676 938.354 223.472 930.038L224.198 921.4L105.618 911.349L104.69 921.965Z" fill="#3C3C3B"/>
<path d="M105.336 914.578C122.726 925.276 214.273 931.532 224.198 921.279C224.198 901.742 184.134 911.349 157.827 888.704C121.314 857.299 106.103 905.052 105.336 914.578Z" fill="#634E42"/>
<path d="M221.293 604.525H127.486C98.0735 604.525 74.2688 578.448 74.2688 546.276V476.322C127.648 501.672 245.824 502.277 298.84 476.322V519.554C298.799 566.54 264.101 604.525 221.293 604.525Z" fill="#3C3C3B"/>
<path d="M154.035 755.657H153.268C143.092 756.875 132.849 754 124.791 747.664C116.734 741.329 111.521 732.051 110.299 721.87L90.3674 555.763L167.914 546.438L187.846 712.546C188.465 717.599 188.082 722.725 186.716 727.63C185.351 732.535 183.031 737.121 179.89 741.127C176.748 745.132 172.847 748.478 168.41 750.971C163.974 753.465 159.088 755.057 154.035 755.657V755.657Z" fill="#3C3C3B"/>
<path d="M151.856 684.491H152.623C157.683 684.908 162.612 686.319 167.127 688.643C171.643 690.967 175.656 694.158 178.938 698.034C182.22 701.91 184.707 706.395 186.256 711.233C187.805 716.071 188.387 721.167 187.967 726.229L174.208 893.023L96.3792 913.529L110.178 719.771C111.041 709.568 115.913 700.124 123.727 693.51C131.54 686.896 141.656 683.653 151.856 684.491V684.491Z" fill="#3C3C3B"/>
<path d="M244.694 319.862L193.212 238.968L248.487 231.178L244.694 319.862Z" fill="#F9B233"/>
<path d="M278.182 263.873L222.06 246.758L189.782 290.313C134.467 256.648 109.452 205.867 129.827 175.027L214.555 164.128C246.672 188.999 269.162 224.255 278.182 263.873Z" fill="#D4972B"/>
<path d="M308.079 94.0537L307.353 93.7308C301.704 91.2684 295.249 93.0849 289.842 98.1307L284.638 162.717C285.202 163.123 285.796 163.487 286.413 163.807C297.307 169.377 310.984 158.317 316.996 139.062C323.008 119.807 318.973 99.6243 308.079 94.0537Z" fill="#F3BF8D"/>
<path d="M319.659 123.682C319.207 125.708 318.628 127.703 317.924 129.656C311.831 146.367 298.033 156.378 285.243 154.4L281.45 161.101C282.015 161.505 285.727 163.442 286.373 163.765C297.266 169.336 310.944 158.276 316.955 139.021C318.502 134.043 319.41 128.889 319.659 123.682Z" fill="#E6B181"/>
<path d="M312.195 109.554C311.215 107.781 309.646 106.406 307.759 105.669C305.873 104.932 303.788 104.878 301.866 105.518C299.516 106.525 297.58 108.305 296.379 110.563C294.992 113.066 294.076 115.803 293.676 118.637C293.296 121.391 293.188 124.176 293.353 126.952C293.353 129.535 293.676 131.957 293.756 134.137C293.837 136.317 293.756 138.174 293.756 140.273C293.694 141.973 293.465 143.663 293.07 145.319C291.577 151.454 288.269 152.867 288.511 153.715C288.511 153.715 288.794 153.957 289.237 153.957C289.937 153.963 290.624 153.767 291.214 153.392C293.496 151.823 295.186 149.535 296.016 146.893C296.75 144.968 297.251 142.963 297.508 140.919C297.508 139.143 297.791 137.205 297.791 135.267H298.114C299.22 135.792 300.157 136.618 300.817 137.649C301.448 138.905 301.806 140.281 301.866 141.686C301.866 142.977 301.866 144.108 302.35 144.632C302.834 145.157 303.883 144.632 304.771 142.776C305.306 141.415 305.533 139.953 305.435 138.494C305.337 137.035 304.918 135.616 304.206 134.339C303.669 133.227 302.768 132.332 301.652 131.803C300.537 131.275 299.274 131.144 298.073 131.433H297.751C297.487 127.491 297.568 123.533 297.993 119.605C298.079 117.753 298.59 115.945 299.485 114.322C300.381 112.698 301.637 111.302 303.157 110.24C304.335 109.719 305.652 109.598 306.906 109.897C308.159 110.196 309.28 110.898 310.097 111.895C311.476 113.677 312.353 115.796 312.639 118.031C312.921 119.767 312.84 120.857 313.163 120.978C313.486 121.099 314.051 120.13 314.293 117.991C314.5 115.028 313.766 112.075 312.195 109.554V109.554Z" fill="#CF9F74"/>
<path d="M306.949 116.496C308.442 112.46 315.947 100.148 316.431 94.9409C317.539 86.3961 317.607 77.7483 316.633 69.1872C311.024 36.8942 295.37 32.8576 288.39 33.786C290.205 40.1235 302.632 50.8609 299.404 56.1489C297.566 59.2637 294.719 61.6565 291.335 62.9304C289.675 63.8592 288.397 65.3446 287.725 67.1244C287.054 68.9043 287.032 70.8643 287.664 72.6587C293.194 99.9635 293.877 128.029 289.681 155.571C293.272 159.608 299.203 157.065 301.785 152.1C304.19 146.589 305.242 140.581 304.851 134.581C304.482 128.476 305.192 122.354 306.949 116.496V116.496Z" fill="#EDEDED"/>
<path d="M296.58 144.269C296.683 135.025 298.193 125.851 301.059 117.062C304.515 106.241 306.311 94.9583 306.385 83.5985C306.385 29.7499 263.577 0 210.763 0C157.948 0 115.14 29.7499 115.14 83.5985C115.334 99.2964 118.682 114.795 124.985 129.172C124.985 130.383 124.662 131.554 124.582 132.765C122.564 157.953 135.072 201.145 150.283 221.57C165.493 241.996 174.208 232.187 196.359 245.386C211.973 254.711 240.74 253.944 252.078 242.278C263.415 230.612 272.816 232.389 280.079 220.319C291.214 201.831 296.621 176.279 296.58 144.269Z" fill="#FFC994"/>
<path d="M270.072 137.367C276.78 137.367 282.217 132.632 282.217 126.791C282.217 120.95 276.78 116.215 270.072 116.215C263.365 116.215 257.928 120.95 257.928 126.791C257.928 132.632 263.365 137.367 270.072 137.367Z" fill="#936037"/>
<path d="M270.073 132.966C273.682 132.966 276.609 130.201 276.609 126.79C276.609 123.379 273.682 120.614 270.073 120.614C266.463 120.614 263.536 123.379 263.536 126.79C263.536 130.201 266.463 132.966 270.073 132.966Z" fill="#3C3C3B"/>
<path d="M273.623 130.706C273.623 131.316 273.865 131.902 274.297 132.333C274.728 132.765 275.313 133.007 275.923 133.007V133.007C276.533 133.007 277.118 132.765 277.549 132.333C277.98 131.902 278.223 131.316 278.223 130.706C278.223 130.096 277.98 129.511 277.549 129.079C277.118 128.648 276.533 128.405 275.923 128.405C275.313 128.405 274.728 128.648 274.297 129.079C273.865 129.511 273.623 130.096 273.623 130.706V130.706Z" fill="white"/>
<path d="M261.358 121.098C261.358 121.955 261.698 122.776 262.303 123.382C262.908 123.988 263.729 124.328 264.585 124.328V124.328C265.441 124.328 266.262 123.988 266.868 123.382C267.473 122.776 267.813 121.955 267.813 121.098V121.098C267.813 120.242 267.473 119.421 266.868 118.815C266.262 118.209 265.441 117.869 264.585 117.869C263.729 117.869 262.908 118.209 262.303 118.815C261.698 119.421 261.358 120.242 261.358 121.098V121.098Z" fill="white"/>
<path d="M199.142 137.367C205.85 137.367 211.287 132.632 211.287 126.791C211.287 120.95 205.85 116.215 199.142 116.215C192.435 116.215 186.998 120.95 186.998 126.791C186.998 132.632 192.435 137.367 199.142 137.367Z" fill="#936037"/>
<path d="M199.143 132.966C202.752 132.966 205.679 130.201 205.679 126.79C205.679 123.379 202.752 120.614 199.143 120.614C195.533 120.614 192.606 123.379 192.606 126.79C192.606 130.201 195.533 132.966 199.143 132.966Z" fill="#3C3C3B"/>
<path d="M202.693 130.706C202.693 131.316 202.936 131.902 203.367 132.333C203.798 132.765 204.383 133.007 204.993 133.007C205.603 133.007 206.188 132.765 206.619 132.333C207.051 131.902 207.293 131.316 207.293 130.706C207.293 130.096 207.051 129.511 206.619 129.079C206.188 128.648 205.603 128.405 204.993 128.405C204.383 128.405 203.798 128.648 203.367 129.079C202.936 129.511 202.693 130.096 202.693 130.706Z" fill="white"/>
<path d="M189.701 121.098C189.701 121.987 190.054 122.839 190.682 123.467C191.31 124.095 192.162 124.448 193.05 124.448V124.448C193.938 124.448 194.79 124.095 195.418 123.467C196.046 122.839 196.399 121.987 196.399 121.098V121.098C196.399 120.209 196.046 119.357 195.418 118.729C194.79 118.101 193.938 117.748 193.05 117.748V117.748C192.162 117.748 191.31 118.101 190.682 118.729C190.054 119.357 189.701 120.209 189.701 121.098V121.098Z" fill="white"/>
<path d="M223.149 118.596C215.523 119.686 205.921 110.523 171.666 128.002C164.727 131.715 162.104 124.611 166.784 121.543C174.951 115.492 184.019 110.765 193.655 107.536C204.549 103.499 220.89 100.795 225.691 106.365C228.071 109.191 228.999 118.596 223.149 118.596Z" fill="#F6F6F6"/>
<path d="M244.735 117.99C251.876 118.878 261.196 109.472 293.151 126.063C299.606 129.534 302.269 122.47 297.952 119.564C290.439 113.827 282.008 109.405 273.018 106.485C262.85 102.973 247.519 100.551 242.838 106.162C240.377 108.988 239.247 118.151 244.735 117.99Z" fill="#F6F6F6"/>
<path d="M244.694 220.844C244.896 222.217 239.409 227.747 231.985 227.747C224.561 227.747 218.146 222.499 218.307 221.127C218.469 219.754 224.036 222.499 231.218 222.378C238.4 222.257 244.492 219.391 244.694 220.844Z" fill="#DBA97B"/>
<path d="M258.937 210.873C258.937 212.488 246.833 213.214 232.187 213.578C228.515 213.578 224.965 213.86 221.777 213.86H217.057H213.425C213.425 213.86 213.425 213.658 213.062 213.336C212.699 213.013 213.062 213.537 213.304 213.336C213.546 213.134 213.304 213.336 213.304 213.336C213.113 213.608 212.963 213.907 212.861 214.224C212.601 214.957 212.291 215.672 211.933 216.363C211.247 217.534 210.641 218.058 210.278 217.978C209.915 217.897 209.713 217.13 209.633 215.919C209.552 214.708 209.633 214.627 209.633 213.699C209.614 213.097 209.696 212.497 209.875 211.923C210.088 211.408 210.419 210.952 210.843 210.591C211.322 210.226 211.872 209.965 212.457 209.824C213.203 209.66 213.957 209.539 214.717 209.46L216.774 209.218L221.333 208.734C224.561 208.451 228.071 208.209 231.783 208.007C246.833 207.765 258.937 209.46 258.937 210.873Z" fill="#C4986E"/>
<path d="M248.648 179.59C247.962 179.267 247.196 179.025 246.47 178.783C243.496 181.406 239.661 182.843 235.697 182.819C233.27 182.794 230.878 182.231 228.694 181.17C226.511 180.109 224.589 178.577 223.068 176.684C218.958 177.419 214.985 178.78 211.287 180.72C205.847 183.586 201.232 187.8 197.884 192.959C194.535 198.118 192.566 204.05 192.163 210.188C217.878 204.689 244.362 203.774 270.395 207.483C269.417 201.376 266.91 195.615 263.108 190.738C259.305 185.861 254.331 182.026 248.648 179.59V179.59Z" fill="#F6F6F6"/>
<path d="M246.066 156.46C247.034 162.797 247.68 171.355 244.089 176.32C240.498 181.285 233.114 180.357 227.95 177.612C222.535 174.174 217.958 169.567 214.555 164.129C216.451 169.275 219.176 174.075 222.624 178.338C240.458 196.947 254.619 181.406 253.772 166.673C252.822 149.626 247.665 133.081 238.763 118.516C241.695 131.002 244.129 143.65 246.066 156.46Z" fill="#DBA97B"/>
<path d="M122.12 116.497C120.184 112.46 110.5 100.149 110.016 94.9413C109.169 87.7561 109.734 77.5434 109.734 69.1876C109.734 39.1148 119.901 35.9258 128.818 36.8946C127.859 39.4748 127.451 42.227 127.619 44.9745C127.787 47.722 128.527 50.404 129.792 52.8483C131.057 55.2926 132.82 57.4451 134.966 59.1675C137.112 60.89 139.594 62.1444 142.253 62.8501C143.217 63.1727 144.106 63.6836 144.87 64.353C145.634 65.0225 146.258 65.8373 146.705 66.7499C147.151 67.6626 147.412 68.6549 147.472 69.6694C147.533 70.6838 147.391 71.7001 147.055 72.6591C139.914 99.741 139.018 128.092 144.432 155.571C139.792 159.608 132.328 157.065 128.616 152.1C125.532 146.803 124.125 140.694 124.581 134.581C125.13 128.444 124.289 122.263 122.12 116.497V116.497Z" fill="#EDEDED"/>
<path d="M101.947 96.1527L102.794 95.8701C106.231 94.8311 109.882 94.7286 113.372 95.573C116.862 96.4174 120.063 98.1782 122.645 100.674L129.827 165.502C129.193 165.898 128.533 166.249 127.85 166.551C115.746 171.92 100.051 160.496 92.8689 141.04C85.6871 121.583 89.8025 101.521 101.947 96.1527Z" fill="#FFC994"/>
<path d="M89.4797 125.621C90.0269 127.683 90.7144 129.707 91.5374 131.676C98.7192 148.549 114.495 158.923 128.858 157.227L133.296 164.009C132.651 164.413 128.495 166.269 127.85 166.592C115.746 171.961 100.051 160.537 92.8689 141.081C91.0275 136.11 89.8868 130.906 89.4797 125.621V125.621Z" fill="#F2BB88"/>
<path d="M97.5491 111.653C98.8125 109.871 100.624 108.551 102.708 107.895C104.791 107.239 107.032 107.283 109.088 108.02C111.709 108.956 113.958 110.711 115.503 113.026C117.09 115.484 118.186 118.225 118.731 121.099C119.224 123.855 119.414 126.657 119.296 129.455C119.296 132.038 119.054 134.46 118.973 136.64C118.893 138.82 118.973 140.677 118.973 142.776C119.115 144.474 119.44 146.152 119.942 147.781C121.717 153.998 125.509 155.491 125.267 156.339C125.267 156.339 124.985 156.581 124.46 156.541C123.73 156.479 123.024 156.244 122.403 155.854C119.89 154.351 117.936 152.069 116.835 149.355C115.971 147.438 115.361 145.416 115.019 143.341C115.019 141.565 114.656 139.627 114.575 137.69H114.212C113.015 138.17 111.979 138.982 111.227 140.031C110.546 141.27 110.173 142.654 110.137 144.068C110.137 145.359 110.137 146.489 109.653 147.014C109.169 147.539 107.918 147.014 106.91 145.077C106.274 143.738 105.982 142.262 106.059 140.782C106.137 139.302 106.581 137.865 107.353 136.6C108.042 135.456 109.083 134.567 110.319 134.064C111.556 133.562 112.922 133.475 114.212 133.814H114.575C114.788 129.851 114.612 125.876 114.051 121.947C113.779 120.1 113.093 118.338 112.045 116.793C110.997 115.249 109.614 113.961 107.999 113.026C106.698 112.466 105.258 112.313 103.868 112.586C102.478 112.86 101.204 113.548 100.212 114.56C98.7754 116.227 97.8507 118.273 97.5491 120.453C97.2666 122.189 97.5491 123.279 96.9842 123.4C96.4194 123.521 95.9755 122.512 95.6528 120.373C95.2001 117.332 95.8746 114.231 97.5491 111.653V111.653Z" fill="#DBA97B"/>
<path opacity="0.1" d="M293.635 101.238C273.524 96.5001 252.928 94.1293 232.267 94.1743C211.635 95.273 191.202 98.7818 171.384 104.629C190.323 95.2381 210.994 89.8516 232.106 88.8056C253.251 88.6774 274.197 92.9097 293.635 101.238V101.238Z" fill="#1D1D1B"/>
<path opacity="0.1" d="M283.145 89.1689C266.645 82.8843 249.192 79.4711 231.541 79.0774C213.926 79.9341 196.585 83.7835 180.26 90.4607C195.469 80.2427 213.199 74.4183 231.501 73.6279C249.819 73.9423 267.693 79.3211 283.145 89.1689V89.1689Z" fill="#1D1D1B"/>
<path opacity="0.1" d="M275.519 72.86C261.55 69.1361 247.168 67.1832 232.711 67.0473C218.338 67.7369 204.106 70.2185 190.347 74.4343C203.158 66.7185 217.772 62.5111 232.722 62.2348C247.673 61.9584 262.433 65.6229 275.519 72.86V72.86Z" fill="#1D1D1B"/>
<path opacity="0.1" d="M176.105 223.508C164.525 197.028 194.382 173.777 212.901 159.648C205.84 169.538 197.771 178.54 189.863 187.905C181.067 198.037 174.208 209.541 176.105 223.508Z" fill="#1D1D1B"/>
<path opacity="0.1" d="M282.378 205.868C281.329 196.704 273.018 190.246 267.571 183.545C262.731 177.584 258.488 171.162 254.902 164.371C261.136 169.16 266.868 174.57 272.009 180.518C276.162 184.818 279.523 189.82 281.934 195.292C282.257 196.462 284.637 205.181 282.378 205.868Z" fill="#1D1D1B"/>
<path opacity="0.1" d="M214.555 136.236C207.162 144.711 196.919 150.181 185.766 151.609C174.613 153.038 163.323 150.325 154.035 143.986C174.45 149.34 196.146 146.562 214.555 136.236Z" fill="#1D1D1B"/>
<path opacity="0.1" d="M209.754 145.318C207.055 150.082 203.348 154.198 198.892 157.378C194.437 160.559 189.341 162.726 183.96 163.73C178.58 164.734 173.045 164.549 167.743 163.188C162.442 161.828 157.501 159.325 153.268 155.854C162.833 159.245 173.064 160.324 183.125 159.003C192.954 156.602 202.078 151.913 209.754 145.318V145.318Z" fill="#1D1D1B"/>
<path opacity="0.1" d="M290.326 144.793C287.534 147.126 284.223 148.755 280.67 149.54C277.118 150.326 273.429 150.247 269.914 149.31C266.399 148.372 263.16 146.603 260.471 144.153C257.781 141.702 255.719 138.641 254.458 135.227C259.437 139.24 265.201 142.165 271.379 143.813C277.557 145.461 284.011 145.795 290.326 144.793V144.793Z" fill="#1D1D1B"/>
<path opacity="0.1" d="M291.456 158.558C291.739 159.931 286.575 162.151 285.848 162.393C281.097 163.75 276.022 163.422 271.485 161.465C267.592 159.898 264.047 157.575 261.056 154.63C258.064 151.686 255.685 148.178 254.055 144.309C263.415 151.05 278.868 163.927 291.456 158.558Z" fill="#1D1D1B"/>
<path d="M96.9032 518.403L96.7861 518.434C93.0372 519.423 90.7999 523.266 91.789 527.017L106.261 581.894C107.25 585.645 111.091 587.883 114.84 586.894L114.957 586.863C118.706 585.873 120.943 582.03 119.954 578.279L105.482 523.402C104.493 519.652 100.652 517.413 96.9032 518.403Z" fill="#F2BC88"/>
<path d="M84.6381 528.111C85.5466 527.817 86.5044 527.706 87.4561 527.784C88.4077 527.863 89.3344 528.129 90.1824 528.569C91.0304 529.008 91.7829 529.611 92.3964 530.343C93.0099 531.075 93.4722 531.922 93.7565 532.834L108.322 587.691C108.537 588.617 108.568 589.575 108.413 590.512C108.258 591.449 107.919 592.346 107.417 593.152C106.915 593.958 106.259 594.658 105.486 595.21C104.714 595.762 103.84 596.156 102.915 596.37V596.37C102.004 596.643 101.048 596.733 100.102 596.634C99.1557 596.536 98.2383 596.252 97.4023 595.798C96.5663 595.344 95.8281 594.73 95.2302 593.99C94.6322 593.25 94.1863 592.399 93.9179 591.486L79.2317 536.87C79.0043 535.94 78.9642 534.973 79.1137 534.027C79.2632 533.081 79.5992 532.174 80.1023 531.358C80.6054 530.543 81.2655 529.836 82.0442 529.279C82.8229 528.721 83.7047 528.324 84.6381 528.111V528.111Z" fill="#F2BC88"/>
<path d="M69.1043 526.78C70.918 526.285 72.8539 526.529 74.4876 527.46C76.1213 528.391 77.3194 529.932 77.8193 531.745L92.3845 586.603C92.8374 588.422 92.553 590.347 91.5931 591.958C90.6332 593.569 89.0758 594.734 87.2604 595.201V595.201C85.4468 595.696 83.5108 595.451 81.8771 594.521C80.2434 593.59 79.0453 592.049 78.5455 590.236L63.9803 535.378C63.5273 533.558 63.8118 531.633 64.7717 530.023C65.7315 528.412 67.2889 527.246 69.1043 526.78V526.78Z" fill="#F2BC88"/>
<path d="M88.2692 503.327C89.1357 502.791 90.1036 502.44 91.1122 502.296C92.1208 502.153 93.1481 502.22 94.1297 502.493C95.1112 502.766 96.0256 503.239 96.8154 503.882C97.6052 504.526 98.2534 505.327 98.719 506.233C107.222 520.467 117.232 533.743 128.576 545.832C129.914 547.316 130.655 549.243 130.655 551.241C130.655 553.24 129.914 555.167 128.576 556.65V556.65C127.872 557.371 127.028 557.939 126.096 558.32C125.164 558.7 124.164 558.885 123.157 558.862C122.151 558.839 121.159 558.61 120.245 558.188C119.331 557.765 118.514 557.16 117.843 556.408C105.895 543.785 95.3183 529.929 86.2922 515.073C85.1082 513.218 84.6549 510.989 85.0202 508.819C85.3855 506.649 86.5433 504.691 88.2692 503.327V503.327Z" fill="#F2BC88"/>
<path d="M58.0093 535.418C58.8014 535.205 59.6279 535.152 60.441 535.26C61.254 535.368 62.0376 535.636 62.7466 536.049C63.4555 536.462 64.0757 537.011 64.5714 537.665C65.0671 538.319 65.4285 539.064 65.6348 539.859L75.076 576.511C75.2888 577.304 75.3426 578.131 75.2344 578.944C75.1261 579.758 74.858 580.541 74.4454 581.251C74.0328 581.96 73.4839 582.58 72.8304 583.076C72.1769 583.572 71.4317 583.934 70.6378 584.14V584.14C69.8457 584.353 69.0192 584.407 68.2061 584.299C67.3931 584.191 66.6095 583.922 65.9005 583.51C65.1916 583.097 64.5714 582.548 64.0757 581.894C63.58 581.24 63.2186 580.494 63.0123 579.7L53.5711 543.048C53.3583 542.255 53.3045 541.428 53.4127 540.615C53.521 539.801 53.7891 539.017 54.2017 538.308C54.6143 537.599 55.1632 536.978 55.8167 536.482C56.4702 535.986 57.2154 535.625 58.0093 535.418Z" fill="#F2BC88"/>
<path d="M82.9098 476.226L47.968 485.502L57.591 521.787L92.5328 512.511L82.9098 476.226Z" fill="#FFC994"/>
<path d="M63.8594 557.982C64.6533 557.776 65.3985 557.414 66.052 556.918C66.7055 556.422 67.2543 555.802 67.6669 555.092C68.0795 554.383 68.3477 553.599 68.4559 552.786C68.5642 551.972 68.5103 551.145 68.2976 550.353L68.8624 552.573C69.354 554.346 70.5213 555.855 72.1132 556.776C73.7051 557.697 75.5947 557.956 77.3756 557.498V557.498C78.286 557.294 79.1466 556.91 79.907 556.369C80.6675 555.829 81.3127 555.142 81.8048 554.349C82.2969 553.556 82.6261 552.672 82.7731 551.751C82.9201 550.829 82.882 549.887 82.661 548.98L83.1856 551.039C83.6678 552.837 84.8439 554.37 86.4554 555.301C88.0668 556.232 89.9818 556.485 91.7794 556.004V556.004C93.5767 555.522 95.109 554.345 96.0395 552.733C96.9701 551.121 97.2228 549.205 96.7421 547.406C96.9872 548.32 97.4145 549.176 97.9984 549.921C98.5822 550.666 99.3106 551.285 100.14 551.741C100.969 552.197 101.881 552.481 102.823 552.576C103.764 552.67 104.715 552.573 105.618 552.29V552.29C107.416 551.808 108.948 550.631 109.878 549.019C110.809 547.407 111.062 545.491 110.581 543.692L106.91 529.766L106.264 527.304L102.592 513.458C101.191 508.167 97.7483 503.649 93.0208 500.895C88.2934 498.14 82.6668 497.374 77.3756 498.765L64.0208 502.317C61.3797 502.989 58.8978 504.178 56.7179 505.814C54.538 507.451 52.7033 509.502 51.3194 511.851C49.9355 514.2 49.0298 516.8 48.6546 519.5C48.2793 522.201 48.4418 524.949 49.1328 527.586L52.8043 541.432L53.4499 543.894L55.9917 553.542C56.1955 554.363 56.5647 555.134 57.0767 555.807C57.5887 556.481 58.2327 557.042 58.9693 557.458C59.7058 557.874 60.5194 558.135 61.3603 558.225C62.2012 558.315 63.0515 558.232 63.8594 557.982V557.982Z" fill="#FFC994"/>
<path d="M69.805 249.655L14.7799 360.41C6.61719 376.84 13.3127 396.779 29.7348 404.946L30.349 405.251C46.7711 413.418 66.7011 406.719 74.8638 390.289L129.889 279.534C138.052 263.104 131.356 243.165 114.934 234.998L114.32 234.693C97.8976 226.526 77.9677 233.225 69.805 249.655Z" fill="#F9B233"/>
<path d="M41.709 519.513L98.1947 499.33L75.197 372.822C74.3657 368.539 72.6991 364.461 70.2924 360.822C67.8857 357.183 64.786 354.054 61.1705 351.614C57.5549 349.174 53.4943 347.47 49.2205 346.6C44.9466 345.73 40.5434 345.711 36.2622 346.544H35.6167C26.9858 348.233 19.3773 353.279 14.4607 360.574C9.54401 367.87 7.72084 376.818 9.39118 385.457L41.709 519.513Z" fill="#F9B233"/>
</svg>
