<svg width="459" height="1083" viewBox="0 0 459 1083" fill="none" xmlns="http://www.w3.org/2000/svg">
<path d="M425.612 628.079L432.455 621.944C431.747 621.472 416.724 609.714 415.308 608.849C412.831 607.336 410.065 606.355 407.187 605.969C404.31 605.584 401.384 605.801 398.595 606.607L395.37 607.748L379.64 603.815C373.387 616.596 367.173 629.495 360.291 641.843C367.212 645.776 375.274 649.709 376.022 650.377L375.628 654.035L390.533 669.568C391.31 668.704 391.744 667.585 391.752 666.422L392.224 667.799C392.813 669.366 393.981 670.647 395.488 671.377C396.252 671.705 397.075 671.874 397.907 671.874C398.738 671.874 399.561 671.705 400.325 671.377L402.921 670.473C404.265 669.98 405.421 669.076 406.226 667.891C407.03 666.706 407.442 665.298 407.404 663.866L408.741 667.445C408.915 667.888 409.139 668.311 409.409 668.703C413.988 665.935 418.329 662.791 422.387 659.304C426.634 655.844 430.685 652.029 434.893 647.9C436.427 646.445 437.921 644.872 439.494 643.299L425.612 628.079Z" fill="#E6B07C"/>
<path d="M370.28 690.018C373.107 690.018 375.817 688.895 377.816 686.897C379.815 684.898 380.938 682.187 380.938 679.361C381.107 673.509 383.063 667.849 386.544 663.142C390.025 658.436 394.864 654.907 400.409 653.032C405.955 651.156 411.941 651.023 417.565 652.65C423.188 654.278 428.179 657.588 431.865 662.136C437.253 669.175 437.685 677.119 437.685 688.406C437.685 709.196 437.685 730 437.685 750.816V1080.49H459V750.816C459 730 459 709.183 459 688.366C459 677.434 459 662.49 448.775 649.04C442.379 640.947 433.636 635.032 423.745 632.105C413.854 629.177 403.299 629.382 393.529 632.691C383.759 635.999 375.252 642.249 369.174 650.584C363.097 658.918 359.747 668.929 359.583 679.243C359.568 680.655 359.833 682.057 360.364 683.366C360.895 684.676 361.681 685.866 362.677 686.869C363.672 687.872 364.857 688.666 366.162 689.207C367.467 689.748 368.867 690.023 370.28 690.018Z" fill="#7B6A58"/>
<path d="M417.707 646.169C417.048 644.359 417.133 642.362 417.944 640.615C418.755 638.868 420.225 637.513 422.033 636.849L423.292 636.377C425.102 635.717 427.099 635.802 428.846 636.613C430.593 637.424 431.948 638.895 432.612 640.703L437.646 654.506C438.261 656.181 438.194 658.031 437.458 659.657C436.722 661.282 435.378 662.554 433.713 663.197L431.118 664.141C430.328 664.42 429.491 664.539 428.654 664.492C427.818 664.445 427 664.232 426.246 663.866C425.493 663.501 424.819 662.989 424.265 662.361C423.71 661.733 423.286 661.002 423.017 660.209L417.707 646.169Z" fill="#F5C08C"/>
<path d="M423.41 666.618C423.028 667.448 422.483 668.192 421.808 668.807C421.132 669.422 420.339 669.894 419.477 670.196L416.921 671.101C415.591 671.596 414.133 671.633 412.779 671.206C411.426 670.778 410.254 669.911 409.449 668.741C409.179 668.349 408.955 667.926 408.78 667.483L407.443 663.904L402.056 649.707C401.677 648.825 401.482 647.875 401.482 646.915C401.482 645.955 401.677 645.005 402.056 644.123C402.414 643.237 402.946 642.432 403.622 641.757C404.298 641.081 405.102 640.548 405.988 640.19L407.207 639.718C409.002 639.067 410.981 639.147 412.718 639.942C414.454 640.736 415.808 642.181 416.488 643.966L417.236 645.971V646.207L422.151 659.067L423.017 661.309C423.043 661.465 423.043 661.624 423.017 661.78C423.781 663.278 423.922 665.016 423.41 666.618Z" fill="#F5C08C"/>
<path d="M407.522 663.905C407.56 665.337 407.148 666.745 406.344 667.93C405.54 669.115 404.384 670.018 403.039 670.512L400.443 671.416C399.679 671.744 398.856 671.913 398.025 671.913C397.193 671.913 396.37 671.744 395.606 671.416C394.099 670.686 392.931 669.405 392.342 667.838L391.87 666.461L387.19 653.601C387.075 653.284 386.996 652.954 386.954 652.618C386.57 650.906 386.821 649.113 387.66 647.572C388.499 646.031 389.87 644.848 391.516 644.242L392.775 643.809C394.429 643.2 396.249 643.215 397.892 643.852C399.536 644.489 400.891 645.705 401.702 647.27C401.871 647.559 402.015 647.862 402.134 648.174L407.168 661.939C407.366 662.577 407.484 663.238 407.522 663.905Z" fill="#F5C08C"/>
<path d="M391.831 666.265C391.823 667.427 391.389 668.546 390.612 669.411C389.961 670.257 389.07 670.888 388.056 671.22L385.932 672.006C384.686 672.512 383.29 672.502 382.051 671.978C380.812 671.455 379.832 670.46 379.325 669.214L375.393 658.321C375.129 657.598 375.024 656.827 375.085 656.06C375.146 655.293 375.372 654.549 375.747 653.877C376.501 652.561 377.7 651.557 379.129 651.046L380.151 650.613C381.331 650.156 382.625 650.085 383.848 650.41C385.07 650.735 386.158 651.439 386.955 652.422C387.274 652.846 387.538 653.308 387.741 653.798L391.674 664.416C391.846 665.016 391.9 665.644 391.831 666.265Z" fill="#F5C08C"/>
<path d="M434.382 637.4L433.91 625.326C433.862 624.057 433.343 622.852 432.455 621.944C431.747 621.394 416.724 609.675 415.309 608.849C412.831 607.336 410.065 606.355 407.188 605.969C404.31 605.584 401.384 605.801 398.595 606.607L395.37 607.748L379.64 603.815C376.218 610.854 372.758 617.933 369.218 624.972L379.836 628.237C393.601 646.405 414.561 630.203 414.561 630.203L416.606 631.737C417.089 632.111 417.484 632.587 417.763 633.13C418.041 633.674 418.197 634.272 418.219 634.883V641.214C418.274 642.508 418.585 643.777 419.134 644.949C419.684 646.121 420.46 647.173 421.418 648.044C422.376 648.914 423.497 649.586 424.717 650.02C425.936 650.454 427.23 650.643 428.522 650.574H430.056C431.28 650.513 432.43 649.97 433.256 649.063C434.081 648.157 434.514 646.961 434.46 645.737L434.382 637.4Z" fill="#FFCF9F"/>
<path d="M280.223 585.134L279.594 585.33C271.484 588.14 262.591 587.614 254.87 583.867C247.148 580.121 241.231 573.461 238.419 565.353L199.093 451.503C196.283 443.394 196.81 434.501 200.556 426.779C204.303 419.058 210.962 413.141 219.071 410.329L219.7 410.132C227.809 407.323 236.703 407.849 244.424 411.595C252.145 415.342 258.063 422.001 260.875 430.11L300.201 543.959C303.01 552.069 302.484 560.962 298.738 568.683C294.991 576.405 288.332 582.322 280.223 585.134Z" fill="#F9B233"/>
<path d="M385.185 598.505L287.145 530.904C279.802 526.462 270.995 525.119 262.662 527.169C254.328 529.219 247.15 534.495 242.706 541.836L242.352 542.387C237.91 549.73 236.567 558.536 238.617 566.87C240.667 575.203 245.943 582.381 253.285 586.825L356.398 649.197C357.775 650.023 383.651 601.691 385.185 598.505Z" fill="#F9B233"/>
<path d="M224.576 1078.95C214.469 1079.5 203.733 1080.13 195.947 1076V1069.4L226.149 1065.47L224.576 1078.95Z" fill="#30302F"/>
<path d="M195.947 1069.4C249.627 1083.63 289.504 1085.36 311.723 1077.26L312.431 1068.85L196.812 1059.13L195.947 1069.4Z" fill="#30302F"/>
<path d="M196.576 1062.24C213.526 1072.66 302.757 1078.76 312.431 1068.77C312.431 1049.73 273.381 1059.09 247.74 1037.03C212.15 1006.4 197.324 1052.92 196.576 1062.24Z" fill="#57443A"/>
<path d="M244.24 907.373H243.493C233.574 908.56 223.59 905.759 215.736 899.587C207.882 893.414 202.801 884.375 201.61 874.457L182.183 712.63L257.768 703.545L277.195 865.373C277.799 870.296 277.425 875.29 276.095 880.068C274.764 884.847 272.503 889.315 269.441 893.218C266.379 897.12 262.576 900.379 258.252 902.808C253.927 905.238 249.166 906.789 244.24 907.373Z" fill="#30302F"/>
<path d="M241.92 838.041H242.667C247.599 838.448 252.403 839.823 256.804 842.086C261.205 844.35 265.117 847.459 268.317 851.236C271.516 855.012 273.94 859.381 275.449 864.095C276.959 868.808 277.526 873.772 277.116 878.705L263.667 1041.12L187.807 1061.1L201.256 872.334C202.117 862.4 206.88 853.213 214.502 846.785C222.124 840.358 231.983 837.213 241.92 838.041Z" fill="#30302F"/>
<path d="M291.235 660.681H72.3448L63.8503 439.589C70.4965 389.527 119.379 330.341 177.385 330.341H179.43C224.301 330.341 260.285 371.122 258.476 420.162C255.33 505.854 296.858 561.894 291.235 660.681Z" fill="#00A19A"/>
<path d="M130.665 1078.95C120.559 1079.5 109.822 1080.13 102.036 1076V1069.4L132.238 1065.47L130.665 1078.95Z" fill="#3C3C3B"/>
<path d="M102.036 1069.4C155.716 1083.63 195.593 1085.36 217.812 1077.26L218.52 1068.85L102.901 1059.13L102.036 1069.4Z" fill="#3C3C3B"/>
<path d="M102.665 1062.24C119.615 1072.66 208.846 1078.76 218.52 1068.77C218.52 1049.73 179.469 1059.09 153.828 1037.03C118.396 1006.4 103.412 1052.92 102.665 1062.24Z" fill="#634E42"/>
<path d="M215.689 760.138H124.255C95.5863 760.138 72.3838 734.733 72.3838 703.39V635.434C124.412 660.131 239.599 660.721 291.274 635.434V677.552C291.234 723.171 257.414 760.138 215.689 760.138Z" fill="#3C3C3B"/>
<path d="M150.21 907.373H149.463C139.545 908.56 129.561 905.759 121.707 899.587C113.853 893.414 108.772 884.375 107.581 874.457L88.1536 712.63L163.739 703.545L183.166 865.373C183.77 870.296 183.396 875.29 182.065 880.068C180.734 884.847 178.473 889.315 175.411 893.218C172.349 897.12 168.547 900.379 164.222 902.808C159.898 905.238 155.136 906.789 150.21 907.373Z" fill="#3C3C3B"/>
<path d="M147.969 838.041H148.716C153.649 838.448 158.453 839.823 162.854 842.086C167.255 844.35 171.167 847.459 174.366 851.236C177.565 855.012 179.989 859.381 181.499 864.095C183.009 868.808 183.575 873.772 183.166 878.705L169.716 1041.12L93.856 1061.1L107.306 872.334C108.166 862.4 112.929 853.213 120.551 846.785C128.173 840.358 138.033 837.213 147.969 838.041Z" fill="#3C3C3B"/>
<path d="M238.498 482.809L188.318 403.999L242.195 396.448L238.498 482.809Z" fill="#F9B233"/>
<path d="M271.139 428.263L216.436 411.588L184.975 454.021C131.059 421.223 106.598 371.908 126.575 341.705L209.16 331.087C240.451 355.324 262.357 389.67 271.139 428.263Z" fill="#D4972B"/>
<path d="M300.279 262.817L299.532 262.503C294.027 260.104 287.734 261.873 282.465 266.789L277.392 329.711C277.942 330.106 278.52 330.461 279.122 330.773C289.74 336.2 303.072 325.425 308.931 306.666C314.791 287.907 310.898 268.244 300.279 262.817Z" fill="#F3BF8D"/>
<path d="M311.566 291.682C311.126 293.656 310.562 295.6 309.875 297.502C303.937 313.783 290.487 323.536 278.021 321.609L274.324 328.138C274.875 328.531 278.493 330.418 279.122 330.733C289.74 336.16 303.072 325.385 308.931 306.626C310.439 301.776 311.324 296.755 311.566 291.682Z" fill="#E6B181"/>
<path d="M304.251 277.957C303.296 276.23 301.767 274.891 299.928 274.172C298.089 273.454 296.057 273.402 294.184 274.025C291.848 275.075 289.955 276.912 288.835 279.216C287.484 281.654 286.591 284.32 286.2 287.081C285.846 289.687 285.74 292.32 285.886 294.946C285.886 297.463 286.2 299.823 286.279 301.946C286.358 304.07 286.279 305.879 286.279 307.924C286.188 309.557 285.938 311.177 285.532 312.761C284.077 318.739 280.852 320.115 281.088 320.941C281.088 320.941 281.363 321.177 281.796 321.177C282.432 321.13 283.043 320.913 283.566 320.548C285.789 319.019 287.437 316.79 288.245 314.216C288.961 312.341 289.45 310.387 289.7 308.396C289.7 306.665 289.976 304.778 289.976 302.929H290.29C291.369 303.441 292.281 304.245 292.925 305.25C293.541 306.473 293.889 307.814 293.948 309.182C293.948 310.441 293.948 311.542 294.42 312.053C294.891 312.564 295.914 312.053 296.779 310.244C297.301 308.919 297.522 307.494 297.427 306.073C297.331 304.652 296.922 303.269 296.229 302.025C295.705 300.941 294.827 300.07 293.739 299.555C292.652 299.039 291.421 298.912 290.251 299.193H289.936C289.679 295.353 289.758 291.498 290.172 287.671C290.333 285.921 290.882 284.229 291.78 282.718C292.678 281.208 293.903 279.917 295.363 278.94C296.512 278.432 297.796 278.315 299.017 278.606C300.239 278.897 301.332 279.581 302.127 280.553C303.472 282.289 304.327 284.353 304.605 286.53C304.88 288.221 304.802 289.283 305.116 289.401C305.431 289.519 305.981 288.575 306.217 286.491C306.511 283.508 305.821 280.511 304.251 277.957Z" fill="#CF9F74"/>
<path d="M299.296 284.722C300.751 280.79 308.066 268.795 308.538 263.722C309.618 255.397 309.684 246.973 308.735 238.632C303.268 207.171 288.01 203.238 281.206 204.143C282.976 210.317 295.088 220.778 291.942 225.93C290.151 228.964 287.375 231.295 284.077 232.536C282.483 233.408 281.239 234.805 280.558 236.49C279.877 238.175 279.8 240.043 280.341 241.778C285.736 268.352 286.415 295.667 282.347 322.475C285.847 326.408 291.628 323.931 294.145 319.093C296.489 313.724 297.514 307.872 297.133 302.026C296.849 296.176 297.581 290.322 299.296 284.722Z" fill="#EDEDED"/>
<path d="M289.071 311.778C289.167 302.759 290.639 293.807 293.436 285.233C296.805 274.69 298.555 263.698 298.628 252.631C298.628 200.17 256.902 171.187 205.424 171.187C153.946 171.187 112.221 200.17 112.221 252.631C112.394 267.964 115.658 283.105 121.817 297.148C121.817 298.328 121.502 299.469 121.424 300.648C119.457 325.188 131.648 367.267 146.474 387.166C161.3 407.065 169.795 397.234 191.385 410.093C206.604 419.178 234.644 418.431 245.694 407.065C256.745 395.7 265.908 397.43 272.987 385.672C283.959 367.7 289.111 342.924 289.071 311.778Z" fill="#FFC994"/>
<path d="M263.234 305.054C269.771 305.054 275.071 300.441 275.071 294.751C275.071 289.06 269.771 284.447 263.234 284.447C256.696 284.447 251.397 289.06 251.397 294.751C251.397 300.441 256.696 305.054 263.234 305.054Z" fill="#936037"/>
<path d="M263.234 300.767C266.753 300.767 269.605 298.073 269.605 294.75C269.605 291.427 266.753 288.733 263.234 288.733C259.716 288.733 256.863 291.427 256.863 294.75C256.863 298.073 259.716 300.767 263.234 300.767Z" fill="#3C3C3B"/>
<path d="M266.656 298.525C266.656 299.12 266.892 299.69 267.312 300.11C267.732 300.531 268.303 300.767 268.897 300.767C269.492 300.767 270.062 300.531 270.482 300.11C270.903 299.69 271.139 299.12 271.139 298.525C271.139 297.931 270.903 297.361 270.482 296.94C270.062 296.52 269.492 296.284 268.897 296.284C268.303 296.284 267.732 296.52 267.312 296.94C266.892 297.361 266.656 297.931 266.656 298.525Z" fill="white"/>
<path d="M254.74 289.362C254.74 290.197 255.071 290.997 255.661 291.587C256.251 292.177 257.051 292.508 257.886 292.508C258.72 292.508 259.52 292.177 260.11 291.587C260.7 290.997 261.032 290.197 261.032 289.362C261.032 288.528 260.7 287.728 260.11 287.138C259.52 286.548 258.72 286.216 257.886 286.216C257.051 286.216 256.251 286.548 255.661 287.138C255.071 287.728 254.74 288.528 254.74 289.362Z" fill="white"/>
<path d="M194.098 305.054C200.636 305.054 205.936 300.441 205.936 294.751C205.936 289.06 200.636 284.447 194.098 284.447C187.561 284.447 182.261 289.06 182.261 294.751C182.261 300.441 187.561 305.054 194.098 305.054Z" fill="#936037"/>
<path d="M194.099 300.767C197.617 300.767 200.47 298.073 200.47 294.75C200.47 291.427 197.617 288.733 194.099 288.733C190.58 288.733 187.728 291.427 187.728 294.75C187.728 298.073 190.58 300.767 194.099 300.767Z" fill="#3C3C3B"/>
<path d="M197.559 298.525C197.559 299.12 197.795 299.69 198.216 300.11C198.636 300.531 199.206 300.767 199.801 300.767C200.395 300.767 200.965 300.531 201.386 300.11C201.806 299.69 202.042 299.12 202.042 298.525C202.042 297.931 201.806 297.361 201.386 296.94C200.965 296.52 200.395 296.284 199.801 296.284C199.206 296.284 198.636 296.52 198.216 296.94C197.795 297.361 197.559 297.931 197.559 298.525Z" fill="white"/>
<path d="M184.857 289.363C184.857 290.228 185.201 291.059 185.813 291.671C186.425 292.283 187.255 292.627 188.121 292.627C188.987 292.627 189.817 292.283 190.429 291.671C191.041 291.059 191.385 290.228 191.385 289.363C191.385 288.497 191.041 287.667 190.429 287.055C189.817 286.443 188.987 286.099 188.121 286.099C187.255 286.099 186.425 286.443 185.813 287.055C185.201 287.667 184.857 288.497 184.857 289.363Z" fill="white"/>
<path d="M217.498 286.728C210.065 287.79 200.706 278.863 167.318 295.891C160.553 299.509 157.997 292.588 162.559 289.599C170.519 283.704 179.358 279.099 188.75 275.953C199.368 272.02 215.296 269.385 219.975 274.812C222.296 277.565 223.2 286.728 217.498 286.728Z" fill="#F6F6F6"/>
<path d="M238.537 286.137C245.498 287.003 254.583 277.839 285.729 294.003C292.021 297.385 294.617 290.503 290.409 287.671C283.085 282.082 274.868 277.774 266.105 274.929C256.038 271.351 241.094 268.952 236.375 274.418C234.29 277.25 233.189 286.295 238.537 286.137Z" fill="#F6F6F6"/>
<path d="M238.498 386.341C238.695 387.678 233.346 393.066 226.11 393.066C218.874 393.066 212.779 387.992 212.779 386.655C212.779 385.318 218.363 387.992 225.363 387.875C232.363 387.757 238.302 384.925 238.498 386.341Z" fill="#DBA97B"/>
<path d="M252.105 376.628C252.105 378.201 240.307 378.909 226.031 379.263C222.453 379.263 218.992 379.539 215.885 379.539H211.559H208.02C208.02 379.539 208.02 379.342 207.666 379.027C207.312 378.713 207.666 379.224 207.902 379.027C208.138 378.831 207.902 379.027 207.902 379.027C207.715 379.292 207.569 379.584 207.469 379.892C207.216 380.607 206.914 381.304 206.565 381.977C205.896 383.117 205.306 383.628 204.953 383.55C204.599 383.471 204.402 382.724 204.323 381.544C204.245 380.364 204.323 380.286 204.323 379.381C204.305 378.795 204.385 378.21 204.559 377.651C204.767 377.15 205.09 376.705 205.503 376.353C205.97 375.998 206.506 375.744 207.076 375.606C207.803 375.446 208.538 375.328 209.278 375.252L211.284 375.016L215.728 374.544C218.874 374.269 222.295 374.033 225.913 373.836C240.543 373.6 252.38 375.291 252.105 376.628Z" fill="#C4986E"/>
<path d="M242.352 346.071C241.683 345.757 240.936 345.521 240.228 345.285C237.33 347.841 233.592 349.241 229.728 349.217C227.362 349.193 225.031 348.644 222.902 347.61C220.774 346.577 218.901 345.084 217.419 343.24C213.412 343.956 209.54 345.282 205.936 347.172C200.633 349.964 196.135 354.069 192.871 359.095C189.608 364.122 187.688 369.901 187.295 375.881C212.317 370.665 238.062 369.893 263.352 373.6C262.474 367.607 260.085 361.936 256.411 357.12C252.738 352.304 247.899 348.502 242.352 346.071Z" fill="#F6F6F6"/>
<path d="M239.835 323.616C240.779 329.79 241.408 338.127 237.908 342.964C234.408 347.801 227.211 346.897 222.177 344.223C217.024 340.821 212.686 336.323 209.475 331.048C211.126 336.035 213.569 340.722 216.711 344.931C234.093 363.06 247.897 347.919 247.071 333.565C246.222 316.996 241.291 300.893 232.717 286.688C235.575 298.88 237.947 311.189 239.835 323.616Z" fill="#DBA97B"/>
<path d="M119.025 284.722C117.137 280.789 107.699 268.794 107.227 263.721C106.401 256.721 106.952 246.772 106.952 238.631C106.952 209.333 116.862 206.226 125.553 207.17C124.619 209.684 124.221 212.365 124.384 215.042C124.548 217.719 125.269 220.332 126.503 222.713C127.736 225.094 129.454 227.191 131.545 228.869C133.637 230.547 136.057 231.769 138.649 232.457C140.494 233.07 142.027 234.379 142.923 236.104C143.818 237.83 144.006 239.837 143.446 241.699C136.461 268.077 135.56 295.697 140.812 322.475C136.289 326.407 129.014 323.93 125.396 319.093C122.389 313.932 121.018 307.981 121.463 302.025C121.938 296.148 121.106 290.238 119.025 284.722Z" fill="#EDEDED"/>
<path d="M99.3615 264.861L100.187 264.586C103.537 263.573 107.096 263.474 110.498 264.296C113.899 265.119 117.019 266.834 119.536 269.265L126.615 332.463C125.997 332.849 125.353 333.19 124.688 333.485C112.89 338.716 97.5918 327.586 90.5918 308.631C83.5917 289.676 87.485 270.091 99.3615 264.861Z" fill="#FFC994"/>
<path d="M87.2493 293.609C87.7826 295.619 88.4527 297.59 89.2549 299.508C96.255 315.947 111.632 326.053 125.632 324.402L129.958 331.009C129.328 331.402 125.278 333.211 124.649 333.525C112.851 338.756 97.5527 327.627 90.5527 308.671C88.7579 303.828 87.6461 298.759 87.2493 293.609Z" fill="#F2BB88"/>
<path d="M95.1929 279.964C96.4244 278.227 98.1903 276.941 100.221 276.302C102.252 275.663 104.436 275.706 106.44 276.424C108.973 277.399 111.124 279.164 112.575 281.458C114.121 283.852 115.189 286.523 115.721 289.323C116.202 292.008 116.387 294.738 116.272 297.464C116.272 299.981 116.036 302.34 115.957 304.464C115.879 306.587 115.957 308.396 115.957 310.441C116.096 312.096 116.412 313.731 116.901 315.318C118.631 321.374 122.328 322.829 122.092 323.655C122.092 323.655 121.817 323.891 121.306 323.852C120.593 323.792 119.906 323.563 119.3 323.183C116.831 321.688 114.924 319.421 113.873 316.734C113.031 314.866 112.436 312.896 112.103 310.874C112.103 309.144 111.749 307.256 111.671 305.368H111.317C110.149 305.836 109.14 306.628 108.407 307.649C107.743 308.856 107.379 310.205 107.345 311.582C107.345 312.84 107.345 313.941 106.873 314.453C106.401 314.964 105.182 314.453 104.199 312.565C103.579 311.261 103.294 309.823 103.37 308.381C103.445 306.939 103.879 305.539 104.631 304.307C105.303 303.192 106.317 302.326 107.522 301.837C108.727 301.347 110.059 301.262 111.317 301.593H111.671C111.878 297.732 111.706 293.859 111.159 290.031C110.985 288.131 110.364 286.3 109.345 284.686C108.327 283.073 106.94 281.724 105.3 280.75C104.032 280.204 102.628 280.055 101.273 280.322C99.9187 280.589 98.6765 281.259 97.7098 282.245C96.2462 283.913 95.3149 285.981 95.0356 288.183C94.7603 289.874 95.0356 290.936 94.485 291.054C93.9345 291.172 93.5019 290.188 93.1873 288.104C92.8793 285.239 93.5893 282.357 95.1929 279.964Z" fill="#DBA97B"/>
<path opacity="0.1" d="M286.201 269.818C266.598 265.202 246.524 262.892 226.386 262.936C206.275 264.006 186.359 267.425 167.042 273.122C185.5 263.959 205.647 258.698 226.228 257.666C246.842 257.554 267.257 261.69 286.201 269.818Z" fill="#1D1D1B"/>
<path opacity="0.1" d="M276.015 258.059C259.933 251.937 242.921 248.611 225.717 248.228C208.532 249.07 191.616 252.834 175.694 259.357C190.518 249.402 207.799 243.728 225.638 242.958C243.503 243.245 260.939 248.472 276.015 258.059Z" fill="#1D1D1B"/>
<path opacity="0.1" d="M268.504 242.171C254.888 238.543 240.87 236.64 226.779 236.508C212.685 237.199 198.733 239.656 185.25 243.823C197.754 236.244 212.037 232.1 226.655 231.81C241.274 231.52 255.71 235.094 268.504 242.171Z" fill="#1D1D1B"/>
<path opacity="0.1" d="M171.643 388.977C160.357 363.14 189.537 340.527 207.509 326.724C200.627 336.359 192.762 345.128 185.054 354.252C176.441 364.123 169.756 375.331 171.643 388.977Z" fill="#1D1D1B"/>
<path opacity="0.1" d="M275.229 371.907C274.206 362.98 266.105 356.688 260.796 350.16C255.975 344.314 251.746 338.004 248.172 331.323C254.249 335.988 259.835 341.259 264.847 347.053C268.895 351.243 272.17 356.116 274.521 361.447C275.111 362.587 277.431 371.121 275.229 371.907Z" fill="#1D1D1B"/>
<path opacity="0.1" d="M208.846 303.913C201.639 312.17 191.656 317.499 180.785 318.891C169.914 320.282 158.91 317.64 149.856 311.464C169.756 316.68 190.902 313.973 208.846 303.913Z" fill="#1D1D1B"/>
<path opacity="0.1" d="M204.402 312.801C201.771 317.442 198.158 321.452 193.816 324.551C189.473 327.649 184.505 329.761 179.261 330.739C174.017 331.716 168.622 331.536 163.455 330.211C158.287 328.885 153.472 326.447 149.345 323.065C158.668 326.369 168.64 327.421 178.447 326.133C188.027 323.794 196.92 319.226 204.402 312.801Z" fill="#1D1D1B"/>
<path opacity="0.1" d="M282.976 312.25C280.248 314.487 277.024 316.04 273.574 316.779C270.124 317.518 266.548 317.422 263.142 316.498C259.737 315.575 256.602 313.851 253.998 311.47C251.394 309.09 249.397 306.121 248.172 302.812C252.997 306.722 258.584 309.581 264.578 311.206C270.571 312.831 276.837 313.187 282.976 312.25Z" fill="#1D1D1B"/>
<path opacity="0.1" d="M284.077 325.66C284.352 326.998 279.319 329.161 278.611 329.397C273.97 330.694 269.024 330.346 264.611 328.413C260.816 326.887 257.361 324.624 254.445 321.755C251.529 318.886 249.21 315.469 247.622 311.7C256.745 318.346 271.768 330.891 284.077 325.66Z" fill="#1D1D1B"/>
<path d="M94.3282 676.411C96.0537 675.948 97.8918 676.179 99.4497 677.053C101.008 677.927 102.162 679.377 102.665 681.091L116.862 734.535C117.331 736.287 117.084 738.154 116.177 739.724C115.27 741.295 113.777 742.441 112.025 742.911C110.273 743.38 108.406 743.134 106.836 742.227C105.265 741.319 104.119 739.826 103.649 738.074L89.4517 684.63C89.0315 682.894 89.3063 681.064 90.2174 679.528C91.1284 677.992 92.6037 676.874 94.3282 676.411Z" fill="#F2BC88"/>
<path d="M82.4908 685.731C83.3791 685.465 84.311 685.378 85.2331 685.474C86.1553 685.569 87.0495 685.846 87.8643 686.288C88.6792 686.73 89.3987 687.329 89.9815 688.05C90.5643 688.771 90.999 689.6 91.2606 690.489L105.457 743.934C105.667 744.835 105.697 745.769 105.546 746.682C105.395 747.595 105.065 748.469 104.575 749.254C104.086 750.039 103.447 750.72 102.694 751.258C101.941 751.796 101.089 752.18 100.188 752.389C99.2994 752.655 98.3674 752.742 97.4453 752.646C96.5231 752.551 95.629 752.274 94.8141 751.832C93.9992 751.39 93.2797 750.791 92.6969 750.07C92.1141 749.349 91.6794 748.52 91.4179 747.63L77.2211 694.186C77.0112 693.285 76.981 692.351 77.1323 691.438C77.2837 690.525 77.6135 689.651 78.1029 688.866C78.5924 688.081 79.2318 687.4 79.9848 686.862C80.7377 686.324 81.5893 685.939 82.4908 685.731Z" fill="#F2BC88"/>
<path d="M67.2715 684.276C69.0393 683.794 70.9262 684.032 72.5186 684.939C74.111 685.846 75.2788 687.347 75.766 689.114L89.9627 742.558C90.2141 743.436 90.2893 744.355 90.1839 745.262C90.0785 746.169 89.7946 747.046 89.3486 747.843C88.9026 748.64 88.3034 749.341 87.5853 749.905C86.8673 750.469 86.0447 750.886 85.1649 751.131C83.3971 751.613 81.5102 751.375 79.9178 750.468C78.3254 749.562 77.1576 748.06 76.6705 746.294L62.4737 692.849C62.2223 691.972 62.1472 691.053 62.2526 690.145C62.3579 689.238 62.6418 688.361 63.0878 687.564C63.5338 686.767 64.133 686.066 64.8511 685.502C65.5691 684.938 66.3917 684.521 67.2715 684.276Z" fill="#F2BC88"/>
<path d="M86.0306 661.546C86.8751 661.024 87.8186 660.682 88.8017 660.542C89.7847 660.402 90.7861 660.467 91.7428 660.733C92.6994 660.999 93.5907 661.46 94.3606 662.087C95.1304 662.714 95.7622 663.494 96.2161 664.377C104.504 678.244 114.261 691.178 125.317 702.956C126.622 704.402 127.344 706.279 127.344 708.226C127.344 710.173 126.622 712.05 125.317 713.496C124.632 714.198 123.809 714.751 122.901 715.122C121.992 715.492 121.017 715.672 120.036 715.65C119.055 715.628 118.089 715.404 117.198 714.993C116.307 714.582 115.51 713.992 114.857 713.26C103.21 700.962 92.9013 687.463 84.1036 672.99C82.9496 671.183 82.5077 669.011 82.8638 666.897C83.2198 664.782 84.3484 662.875 86.0306 661.546Z" fill="#F2BC88"/>
<path d="M56.5354 692.81C57.3075 692.603 58.1131 692.55 58.9056 692.656C59.6981 692.761 60.4619 693.023 61.1529 693.425C61.8438 693.827 62.4484 694.362 62.9315 694.999C63.4147 695.636 63.767 696.362 63.9681 697.136L73.1704 732.844C73.3778 733.617 73.4303 734.422 73.3248 735.215C73.2193 736.007 72.9579 736.771 72.5557 737.462C72.1536 738.153 71.6186 738.757 70.9816 739.241C70.3446 739.724 69.6183 740.076 68.8445 740.277C68.0724 740.485 67.2668 740.537 66.4743 740.431C65.6818 740.326 64.9181 740.065 64.2271 739.662C63.5361 739.26 62.9316 738.725 62.4484 738.088C61.9652 737.451 61.6129 736.725 61.4119 735.951L52.2095 700.243C52.0021 699.471 51.9497 698.665 52.0552 697.873C52.1606 697.08 52.422 696.317 52.8242 695.626C53.2263 694.935 53.7613 694.33 54.3983 693.847C55.0353 693.364 55.7616 693.011 56.5354 692.81Z" fill="#F2BC88"/>
<path d="M80.8235 635.156L46.7656 644.193L56.1452 679.543L90.203 670.506L80.8235 635.156Z" fill="#FFC994"/>
<path d="M62.1986 714.793C62.9724 714.592 63.6988 714.24 64.3357 713.757C64.9727 713.273 65.5077 712.669 65.9099 711.978C66.312 711.287 66.5734 710.523 66.6789 709.731C66.7844 708.938 66.7319 708.133 66.5245 707.36L67.0751 709.523C67.5452 711.275 68.6915 712.769 70.2622 713.676C71.8328 714.583 73.6994 714.829 75.4516 714.361C77.2034 713.89 78.6969 712.744 79.6039 711.174C80.5109 709.603 80.7572 707.736 80.2887 705.984L80.7999 707.99C81.27 709.742 82.4163 711.235 83.987 712.142C85.5577 713.049 87.4242 713.295 89.1764 712.827C90.9282 712.357 92.4217 711.21 93.3287 709.64C94.2357 708.069 94.4821 706.203 94.0135 704.45C94.2481 705.345 94.6615 706.182 95.2288 706.912C95.796 707.643 96.5053 708.25 97.3139 708.699C98.1225 709.147 99.0136 709.427 99.9333 709.521C100.853 709.616 101.782 709.523 102.665 709.248C104.417 708.778 105.911 707.632 106.818 706.061C107.725 704.49 107.971 702.624 107.502 700.872L103.924 687.304L103.295 684.905L99.7159 671.416C98.3414 666.261 94.9767 661.861 90.3607 659.184C85.7448 656.508 80.2551 655.773 75.0976 657.141L62.0807 660.602C56.9249 661.976 52.5254 665.341 49.8488 669.957C47.1721 674.573 46.4371 680.062 47.8052 685.22L51.3839 698.709L52.0131 701.108L54.4907 710.507C54.6932 711.308 55.0574 712.059 55.561 712.713C56.0645 713.368 56.6967 713.913 57.4187 714.315C58.1407 714.716 58.9372 714.966 59.7592 715.048C60.5812 715.13 61.4114 715.044 62.1986 714.793Z" fill="#FFC994"/>
<path d="M68.0391 414.417L14.406 522.318C6.44979 538.325 12.9759 557.751 28.9826 565.707L29.5813 566.004C45.5879 573.961 65.0137 567.434 72.9699 551.428L126.603 443.527C134.559 427.52 128.033 408.094 112.026 400.138L111.428 399.84C95.421 391.884 75.9953 398.41 68.0391 414.417Z" fill="#F9B233"/>
<path d="M40.6475 677.315L95.7042 657.652L73.2883 534.404C72.478 530.231 70.8536 526.258 68.5077 522.713C66.1619 519.168 63.1407 516.119 59.6166 513.742C56.0925 511.365 52.1346 509.705 47.9689 508.857C43.8032 508.01 39.5113 507.991 35.3385 508.803H34.7092C26.3131 510.449 18.9106 515.353 14.1204 522.443C9.33026 529.532 7.54218 538.23 9.1472 546.634L40.6475 677.315Z" fill="#F9B233"/>
<path d="M129.171 259.396H124.452V299.036H129.171V259.396Z" fill="#5E2128"/>
<path d="M298.234 257.35H293.515V296.991H298.234V257.35Z" fill="#5E2128"/>
<path d="M125.592 425.274L129.918 420.555L126.457 427.83C132.12 445.016 139.514 459.96 141.637 459.763C143.761 459.567 149.109 440.887 151.39 421.302L146.986 415.089L151.705 418.549C151.718 417.23 151.85 415.913 152.098 414.617L144.823 404.589L152.413 410.173C153.092 402.255 152.441 394.28 150.486 386.577C148.754 380.825 147.336 374.983 146.238 369.077L140.969 361.526L145.413 364.751C144.116 357.108 142.383 349.545 140.221 342.099L139.199 341.313L140.064 341.627C137.705 334.549 134.637 329.948 130.193 330.341C122.643 331.049 121.541 344.066 121.266 359.206L124.412 357.358L121.188 360.976C121.188 368.487 121.188 376.392 120.558 383.51L126.025 377.532L119.615 391.69C119.779 403.134 121.798 414.476 125.592 425.274Z" fill="#FADE99"/>
<path d="M125.317 424.724L136.84 405.061L151.351 421.46L147.025 415.01L151.744 418.471C151.758 417.151 151.89 415.835 152.138 414.538L144.862 404.51L152.452 410.095V404.038L143.486 393.774L134.834 383.903L128.227 395.19L120.952 407.42C122.082 413.265 123.539 419.042 125.317 424.724Z" fill="#1F0C0D"/>
<path d="M120.362 383.352L126.025 377.532L123.705 382.644L133.418 366.363L150.25 385.397C148.654 379.87 147.341 374.266 146.317 368.605L141.048 361.054L145.492 364.279L144.626 359.953L140.222 354.919L131.649 345.048L124.963 356.256L121.031 362.667C120.873 369.667 120.834 376.903 120.362 383.352Z" fill="#1F0C0D"/>
<path d="M134.873 449.341C137.901 455.791 140.536 459.959 141.677 459.841C142.817 459.723 144.705 455.122 146.396 448.044L140.104 440.454L134.873 449.341Z" fill="#1F0C0D"/>
<path d="M141.244 455.476L125.71 298.604L128.306 298.368L141.244 455.476Z" fill="#5E2128"/>
<path d="M123.075 396.605L120.086 393.223L122.367 398.453C117.884 410.526 112.221 420.987 110.569 420.83C108.918 420.673 105.85 407.184 104.631 393.301L107.934 388.976L104.474 391.296V388.425L110.058 381.464L104.552 385.397C104.242 379.581 104.934 373.754 106.597 368.172C107.991 364.124 109.16 360.001 110.097 355.824L113.676 350.593L110.53 352.756C111.649 347.343 113.08 341.998 114.816 336.75L115.564 336.2H114.934C116.783 331.481 119.103 328.335 122.328 328.571C127.715 329.239 128.148 338.559 127.951 349.374L125.749 347.958L127.912 350.593C127.912 355.942 127.597 361.565 127.912 366.678L123.979 362.352L127.912 372.695C127.607 380.874 125.973 388.95 123.075 396.605Z" fill="#FADE99"/>
<path d="M107.266 411.509C106.597 408.481 106.007 404.902 105.457 401.088L114.462 391.649L120.637 402.936C119.182 406.475 117.648 409.818 116.311 412.374L112.693 405.728L107.266 411.509Z" fill="#FADE99"/>
<path d="M112.418 406.358L107.305 411.785V411.549L112.496 406.043L116.114 412.689L112.418 406.358Z" fill="#FADE99"/>
<path d="M119.968 393.262L122.249 398.493C121.738 399.948 121.148 401.364 120.598 402.779L118.867 399.555L114.384 391.689L108.013 398.493L105.496 401.128C105.182 398.611 104.867 396.094 104.71 393.498L108.013 389.172L104.552 391.493V389.33L109.98 383.509L116.35 376.706L120.834 384.886L124.766 391.807C124.268 393.38 123.744 394.953 123.193 396.526L119.968 393.262Z" fill="#1F0C0D"/>
<path d="M105.497 401.128L108.013 398.493L114.463 391.493L118.946 399.673L120.677 402.897V403.133L114.384 391.335L105.497 401.128Z" fill="#5E2128"/>
<path d="M104.552 376.903C104.753 373.946 105.321 371.027 106.244 368.211C107.187 365.616 107.974 362.745 108.76 359.756L119.89 347.958L127.755 362.116V366.835L123.822 362.509L128.109 372.695C128.105 375.068 127.894 377.436 127.48 379.773L118.041 362.509L104.552 376.903Z" fill="#1F0C0D"/>
<path d="M113.637 354.33L120.008 347.527L124.491 355.707L127.795 361.802V362.235L119.929 348.077L108.839 359.875V359.443L113.637 354.33Z" fill="#1F0C0D"/>
<path d="M111.002 417.724L124.255 306.194L126.104 306.43L111.002 417.724Z" fill="#5E2128"/>
<path d="M39.7431 261.874L43.6757 257.941L37.1083 261.245C21.3778 256.525 7.53494 249.879 7.69225 247.952C7.84955 246.025 24.7992 240.638 42.5353 238.317L48.3556 242.25L45.1308 238.003L48.8275 237.57L58.6197 243.823L53.3893 237.02C60.6513 236.258 67.9897 236.723 75.0974 238.396C80.3754 239.885 85.732 241.08 91.1425 241.975L98.1426 246.694L95.1144 242.761C102.113 243.805 109.046 245.249 115.879 247.087L116.626 248.031L116.351 247.244C122.721 249.289 126.929 251.964 126.615 256.211C126.143 263.093 114.266 264.312 100.423 264.863L102.075 261.952L98.8111 264.941C91.9683 265.177 84.6537 265.334 78.2435 265.885L83.5132 260.615L70.8108 266.79C60.2565 266.851 49.7629 265.191 39.7431 261.874Z" fill="#FADE99"/>
<path d="M45.6028 237.924L48.8276 242.171L42.9287 238.239C39.6253 238.71 36.3219 239.222 33.2151 239.851H32.9005C28.1813 240.795 23.4622 241.817 19.7262 242.879H19.4116C12.6475 244.767 8.12495 246.615 8.0463 247.598C7.96765 248.581 11.9789 251.138 18.6251 253.969H19.3329L18.6644 254.402H18.9397C23.0659 256.185 27.2791 257.76 31.5634 259.121H31.878L37.5016 260.969L44.0691 257.666L40.1365 261.598L46.2714 263.25L54.9232 257.862L65.0693 251.531L55.4737 244.216L47.6085 237.688L45.6028 237.924Z" fill="#1F0C0D"/>
<path d="M134.559 255.62L11.9001 247.754L133.811 257.193L134.559 255.62Z" fill="#5E2128"/>
<path d="M30.1868 213.11L35.8105 210.042L27.9452 211.655C12.608 201.98 -0.133709 191.126 0.416858 189.121C0.967425 187.115 20.5912 186.447 40.1757 189.121L45.2094 194.784L42.8499 189.357L46.7825 189.986L54.6477 199.424L51.069 190.694C58.9815 191.949 66.626 194.528 73.6816 198.323C78.8943 201.464 84.2772 204.312 89.8054 206.857L95.8616 213.778L93.8166 208.745C100.922 211.87 107.842 215.402 114.542 219.323L115.092 220.542V219.599C121.266 223.531 124.963 227.66 123.429 232.065C120.912 239.222 108.013 237.099 93.2267 233.717L95.8223 231.082L91.5357 233.284C84.221 231.593 76.5524 229.666 69.4737 228.565L76.5918 224.632L61.4118 227.464C50.2931 224.406 39.7467 219.558 30.1868 213.11Z" fill="#FADE99"/>
<path d="M42.889 189.356L45.052 194.744L40.1755 189.002C36.5575 188.53 32.9002 188.137 29.4395 187.901H29.0462C23.6585 187.508 18.5854 187.351 14.2202 187.351H13.827C5.96171 187.351 0.809974 188.058 0.416712 189.199C0.0234497 190.339 3.75944 193.918 9.85501 198.952L10.6415 198.716H9.77635H10.0516C13.4337 201.39 17.5629 204.457 21.8495 207.486H22.1641L27.9451 211.182L35.8103 209.57L30.3046 212.637C32.271 213.856 34.2373 215.036 36.2822 216.177L46.9396 212.952L59.4847 209.019L51.9341 198.441L45.5632 189.749L42.889 189.356Z" fill="#1F0C0D"/>
<path d="M140.222 236.508L4.62476 190.575L139.396 238.71L140.222 236.508Z" fill="#5E2128"/>
<path d="M37.8162 163.636L44.3837 161.67H35.8105C21.8891 147.906 10.9957 133.355 12.2148 131.467C13.4339 129.58 34.1588 133.355 54.2152 140.63L58.1478 147.945L57.0467 141.574L60.9793 143.187L67.1929 154.984L65.4625 144.956C73.5124 148.131 80.9705 152.638 87.5245 158.288C92.3328 162.786 97.3875 167.014 102.665 170.951L107.384 179.721L106.44 173.861C113.205 178.819 119.679 184.163 125.828 189.867L126.104 191.282V190.299C131.727 195.962 134.637 201.114 132.002 205.361C127.834 212.283 114.542 207.17 99.5583 200.092L102.901 197.929L97.8673 199.305C90.5526 195.766 82.884 191.951 75.7267 189.041L84.1818 186.445L67.2715 185.816C56.3209 180.06 46.374 172.57 37.8162 163.636Z" fill="#FADE99"/>
<path d="M57.0464 141.575L58.0689 147.788L54.1363 140.474C50.2037 139.215 46.5463 137.917 42.9283 136.856H42.5351C36.9114 135.165 31.6024 133.788 27.0012 132.923H26.6079C18.4281 131.193 12.6865 130.642 12.0179 131.743C11.3494 132.844 14.5741 137.485 19.5685 144.013L19.8045 144.288C22.7933 147.985 26.372 152.154 30.4226 156.361L30.6979 156.637L35.417 161.631H44.1474L37.58 163.597C39.389 165.328 41.2766 167.058 43.0856 168.749L55.1195 167.845L69.2769 166.822L63.9285 153.373L59.406 142.401L57.0464 141.575Z" fill="#1F0C0D"/>
<path d="M149.856 214.957L16.1472 133.709L149.031 217.435L149.856 214.957Z" fill="#5E2128"/>
<path d="M63.3385 121.085L70.2599 120.849L61.7655 118.489C51.6586 101.421 44.6586 84.4719 46.3496 82.8595C48.0406 81.2471 67.3891 90.3315 85.1646 102.523L87.2095 110.702L87.7601 104.332L91.3388 106.927L94.4062 120.219L95.1928 110.113C102.283 115.333 108.439 121.715 113.401 128.989C116.903 134.582 120.71 139.978 124.805 145.152L127.244 154.944L127.755 148.849C133.13 155.437 138.119 162.331 142.699 169.495V170.95L143.092 170.006C147.025 177.006 148.676 182.787 145.019 186.287C138.963 192.029 127.48 183.495 114.738 172.799L118.671 171.54H113.165C106.873 166.192 100.344 160.489 94.2883 155.81L103.255 155.416L86.9342 150.579C77.5121 142.101 69.5415 132.138 63.3385 121.085Z" fill="#FADE99"/>
<path d="M87.721 104.333L87.1704 110.704L85.1254 102.524C81.822 100.243 78.4793 98.0799 75.1759 96.1136H74.7826C69.7489 93.0068 64.8331 90.2933 60.6252 88.2483H60.2319C52.6813 84.3157 47.1756 82.428 46.0745 83.5292C44.9734 84.6303 46.861 90.0573 50.3217 97.6866V98.0799C52.2487 102.406 54.7656 107.518 57.6364 112.591V112.985L61.1364 119.159L69.6309 121.518L62.7095 121.754C64.0466 123.917 65.3837 126.08 66.6421 128.204L78.44 130.367L92.5974 132.962L90.8671 118.726L90.0805 106.181L87.721 104.333Z" fill="#1F0C0D"/>
<path d="M160.12 200.132L49.5745 86.5181L158.076 202.137L160.12 200.132Z" fill="#5E2128"/>
<path d="M98.7324 83.0565L105.811 84.5116L97.9459 79.7925C91.8896 60.1294 88.9795 41.0168 91.0638 39.7977C93.1481 38.5786 110.727 52.5787 125.632 69.4103V78.1801L127.952 72.0452L130.98 75.5846V89.742L134.362 79.5172C140.283 86.5463 144.976 94.5233 148.244 103.113C150.297 109.799 152.726 116.364 155.519 122.776V133.158L157.564 127.22C161.376 135.24 164.724 143.473 167.593 151.877L167.16 153.333L167.789 152.428C170.149 160.49 170.306 166.585 165.705 169.456C158.154 173.782 148.519 162.299 138.177 148.259L142.384 147.945L136.997 146.686C131.924 139.608 126.654 132.175 121.463 125.843L130.901 127.652L115.564 118.725C108.045 107.833 102.36 95.7847 98.7324 83.0565Z" fill="#FADE99"/>
<path d="M127.794 72.085L125.631 78.4165V69.6074C122.839 66.5007 119.968 63.4332 117.137 60.6017L116.822 60.2871C112.3 55.8826 108.013 51.8713 104.238 48.7252L103.923 48.4499C97.2377 42.7476 92.1253 39.3656 90.9455 39.9948C89.7657 40.624 90.159 46.7982 91.732 55.45L92.5972 55.8433L91.732 55.45V55.8826C92.6365 60.6017 93.9343 66.5007 95.6646 72.4782V72.9108C96.2939 75.2704 97.0017 77.63 97.7096 80.0289L105.575 84.748L98.4961 83.293C99.2827 85.8492 100.148 88.3267 101.092 90.8436L112.89 96.0347L126.496 102.248L128.069 87.3042L129.367 74.7198L127.794 72.085Z" fill="#1F0C0D"/>
<path d="M178.761 189.277L93.4231 44.3989L176.008 190.299L178.761 189.277Z" fill="#5E2128"/>
<path d="M144.705 59.4216L151.154 62.6856L144.548 56.2755C143.879 35.3933 145.924 16.5167 148.284 15.7301C150.643 14.9436 163.817 33.1517 174.042 53.4833L171.84 61.9778L175.576 56.4721L177.542 60.68L173.61 74.4049L179.587 65.2025C183.487 73.4989 185.96 82.3933 186.902 91.5118C187.308 98.3929 188.096 105.246 189.262 112.04L186.587 122.265L190.087 117.074C191.709 125.811 192.826 134.635 193.43 143.501L192.644 144.838L193.43 144.13C193.43 152.585 192.172 158.642 187.02 159.861C178.604 162.142 172.312 148.495 166.02 132.332L170.188 133.08L165.587 130.641C162.48 122.776 159.374 114.085 156.149 106.613L164.604 110.782L151.39 98.3152C147.058 85.8016 144.799 72.6638 144.705 59.4216Z" fill="#FADE99"/>
<path d="M175.497 56.3155L171.761 61.8212L173.963 53.3267C172.115 49.5907 170.227 45.9334 168.104 42.4334V42.0401C165.036 36.6917 161.969 31.7366 159.137 27.5287V27.2928C154.143 20.0174 150.092 15.4949 148.755 15.7702C147.418 16.0455 146.238 22.141 145.53 30.9108L146.278 31.54L145.53 30.9108V31.4614C145.137 36.4165 144.901 42.2761 144.901 48.4503V56.3155L151.351 62.8437L144.901 59.5796C144.901 62.2145 145.216 64.928 145.412 67.4449L155.126 75.5067L166.924 84.945L172.194 70.7876L176.913 58.9897L175.497 56.3155Z" fill="#1F0C0D"/>
<path d="M194.138 181.608L149.581 20.7246L191.582 182.631L194.138 181.608Z" fill="#5E2128"/>
<path d="M194.256 42.9836L199.919 47.978L195.2 39.7195C199.879 18.8766 207.076 0 209.632 0C212.189 0 220.565 21.7474 225.363 44.7926L220.644 52.6578L225.874 47.9387C226.189 49.551 226.503 51.1634 226.739 52.6578L219.149 65.4388L227.604 57.9668C229.262 67.3259 229.341 76.8963 227.84 86.2817C226.355 93.3731 225.266 100.542 224.576 107.754L219.11 117.192L223.829 112.906C223.056 122.15 221.743 131.342 219.897 140.434L218.756 141.535L219.739 141.063C217.655 149.597 214.509 155.221 209.003 155.221C199.919 155.221 197.205 139.805 195.278 121.793L199.211 123.681L195.003 119.748C194.059 110.821 193.194 101.344 191.857 92.9672L199.211 99.4167L190.009 83.3716C189.245 69.7682 190.679 56.1306 194.256 42.9836Z" fill="#FADE99"/>
<path d="M226.11 48.2139L220.88 52.9331L225.599 45.0678C224.694 40.7813 223.672 36.5341 222.61 32.4835V31.9329C220.958 25.6407 219.149 19.8597 217.419 14.944V14.5114C213.88 5.7023 211.048 0 209.632 0C208.217 0 205.385 5.7023 202.318 14.3934L202.868 15.1799L202.318 14.3934V14.7867C200.587 19.6631 198.778 25.4834 197.048 31.7363V32.1688C196.38 34.6071 195.79 37.124 195.16 39.6802L199.88 47.9387L194.295 42.9442C193.666 45.6971 193.155 48.4106 192.683 51.1241L200.548 61.8601L209.75 74.7198L219.189 62.0174L227.054 51.36C226.64 50.3439 226.324 49.2904 226.11 48.2139Z" fill="#1F0C0D"/>
<path d="M211.048 177.637L209.632 5.27002L207.981 177.951L211.048 177.637Z" fill="#5E2128"/>
<path d="M246.206 50.8492L250.139 56.9054L247.622 48.057C257.375 29.7704 268.701 14.2758 271.218 15.023C273.734 15.7702 275.937 37.8716 274.718 60.4055L268.347 66.5404L274.324 63.6302C274.324 65.2033 274.088 66.737 273.931 68.3494L263.903 78.2596L273.341 73.5404C272.563 82.6844 270.25 91.6318 266.498 100.007C263.401 106.143 260.644 112.445 258.24 118.884L250.768 126.395L256.391 123.642C253.418 132.027 249.965 140.233 246.049 148.221L244.712 148.929H245.734C241.801 156.322 237.318 160.727 232.245 159.508C223.829 157.227 225.166 142.283 227.801 125.176L231.026 127.929L228.116 123.209C229.453 114.715 231.026 105.749 231.852 97.6081L237.082 105.473L232.442 88.2091C234.942 75.083 239.593 62.4599 246.206 50.8492Z" fill="#FADE99"/>
<path d="M274.402 63.5903L268.425 66.5005L274.599 60.2869C274.599 56.079 274.914 51.9498 274.992 47.9385V47.5059C275.113 41.8355 274.903 36.1629 274.363 30.517V30.0451C273.655 21.2753 272.475 15.2191 271.138 14.9045C269.801 14.5898 265.79 19.1517 260.756 26.427L261.071 27.3315L260.756 26.427V26.7417C257.925 30.6743 254.818 35.7867 251.751 41.1744V41.5676C250.531 43.6913 249.352 45.8542 248.172 48.0958L250.689 56.9442L246.756 50.888C245.537 53.2475 244.357 55.6071 243.217 58.0453L247.936 69.8432L253.324 84.0006L265.121 74.5623L275.032 66.6971C274.444 65.7755 274.219 64.6681 274.402 63.5903Z" fill="#1F0C0D"/>
<path d="M228.509 178.974L269.802 19.6636L225.914 178.384L228.509 178.974Z" fill="#5E2128"/>
<path d="M295.363 66.5007L297.487 73.3435V63.9052C311.644 48.7646 326.588 36.7308 328.712 37.9499C330.836 39.169 327.532 61.2703 320.493 82.5851L312.903 87.029L319.47 85.7706L317.897 90.4504L305.51 97.4505L316.088 95.2875C312.943 103.852 308.383 111.827 302.599 118.883C298.016 124.028 293.723 129.424 289.74 135.046L280.577 140.749L286.712 139.53C281.683 146.852 276.234 153.877 270.391 160.569L268.936 160.884H269.959C264.138 166.979 258.79 170.322 254.228 167.569C246.678 163.243 251.869 149.125 258.947 133.237L261.346 136.737L259.734 131.389C263.234 123.524 267.049 115.305 269.959 107.793L272.987 116.642V98.7875C278.643 86.8815 286.201 75.9764 295.363 66.5007Z" fill="#FADE99"/>
<path d="M319.471 86.0861L312.903 87.3446L320.493 82.9007C321.83 78.9681 323.01 75.0355 324.033 71.1029V70.7882C325.645 64.8107 326.943 58.9904 327.965 54.1926V53.76C329.578 45.0689 329.931 38.934 328.752 38.3048C327.572 37.6756 322.459 40.979 315.774 46.7599V47.7038V46.7599L315.499 47.0352C311.566 50.2993 307.437 54.2712 303.032 58.8331L302.718 59.1477C301.027 60.878 299.257 62.6477 297.566 64.496V73.9343L295.364 66.8556C293.555 68.7826 291.824 70.7882 290.133 72.8332L291.431 85.3783L293.043 100.086L306.768 93.9514L318.566 88.7603L319.471 86.0861Z" fill="#1F0C0D"/>
<path d="M242.745 184.636L245.065 186.052L326.352 42.4717L242.745 184.636Z" fill="#5E2128"/>
<path d="M336.105 98.7077L336.774 105.59L338.662 96.938C355.139 85.848 371.696 78.0614 373.347 79.4772C374.999 80.8929 367.134 100.91 355.926 119.393L347.864 121.91H354.353L351.954 125.646L338.898 129.579L349.24 129.815C344.465 137.174 338.482 143.676 331.543 149.045C326.119 152.818 320.906 156.888 315.931 161.236L306.493 164.225H312.47C306.231 169.973 299.666 175.357 292.807 180.349H291.431L292.414 180.624C285.65 185.068 279.947 186.956 276.29 183.456C270.195 177.793 278.021 165.759 288.088 152.467L289.582 156.203L289.268 150.933C293.712 144.326 299.296 137.641 303.622 130.995L304.526 139.922L308.459 123.405C316.293 113.746 325.627 105.407 336.105 98.7077Z" fill="#FADE99"/>
<path d="M354.353 122.187H347.864L355.926 119.67C358.01 116.21 359.858 112.788 361.785 109.406V109.013C364.578 103.782 367.016 98.788 368.903 94.3835V93.9902C372.246 86.1249 373.937 80.6586 372.836 79.8328C371.735 79.0069 366.426 81.0125 358.915 84.8665V85.771V84.8665C354.667 87.0688 349.87 89.8609 344.757 92.9677H344.364L338.426 96.9003L336.538 105.552L335.869 98.67C333.785 100.125 331.701 101.58 329.695 103.153L328.201 115.266L326.47 129.423L340.628 126.67L352.426 124.35L354.353 122.187Z" fill="#1F0C0D"/>
<path d="M260.363 198.794L262.094 200.76L370.083 83.0566L260.363 198.794Z" fill="#5E2128"/>
<path d="M368.353 136.501L367.252 143.265L371.184 135.4C389.667 128.99 407.404 125.49 408.623 127.535C409.842 129.58 397.336 146.451 381.881 161.238L373.583 161.631L379.639 163.44L376.375 166.429L362.926 166.822L372.679 169.653C366.293 175.563 358.953 180.35 350.97 183.811C344.867 186.103 338.893 188.729 333.077 191.676L323.127 192.109L328.79 193.8C321.368 197.712 313.726 201.191 305.903 204.221L304.526 203.828L305.391 204.339C297.841 206.895 291.942 207.21 289.268 202.963C284.863 196.041 295.403 186.564 308.144 176.3L308.616 180.232L309.599 175.08C315.97 170.047 322.813 164.856 328.476 159.704L327.099 168.474L335.358 153.372C345.368 145.996 356.512 140.298 368.353 136.501Z" fill="#FADE99"/>
<path d="M379.679 163.401L373.623 161.592L381.881 161.238C384.713 158.485 387.505 155.654 390.1 152.901L390.376 152.586C394.308 148.3 397.926 144.131 400.836 140.434L401.308 140.159C406.027 133.631 409.173 128.715 408.584 127.417C407.994 126.12 402.173 126.906 393.994 128.755L393.679 129.62L393.994 128.755H393.679C388.96 129.777 383.769 131.193 378.145 132.962H377.948L371.302 135.165L367.37 143.03L368.549 136.698C366.19 137.564 363.83 138.507 361.51 139.451L357.027 150.62L351.561 163.598L365.718 164.541L377.948 165.171L379.679 163.401Z" fill="#1F0C0D"/>
<path d="M271.06 212.755L272.436 214.918L404.494 130.012L271.06 212.755Z" fill="#5E2128"/>
<path d="M383.455 185.699L381.016 191.559L386.247 185.424C404.258 183.615 421.011 184.283 421.64 186.328C422.27 188.373 407.483 200.84 390.415 210.907L382.865 209.452L387.899 212.362L384.359 214.328L372.207 211.772L380.427 216.491C373.41 220.359 365.792 223.018 357.893 224.357C351.912 225.097 345.977 226.173 340.117 227.581L331.072 225.851L335.791 228.604C328.267 230.524 320.638 232.008 312.943 233.048L311.763 232.34L312.432 233.008C305.117 233.677 299.69 232.733 298.274 228.289C295.757 221.171 307.044 214.84 321.201 208.626L320.769 212.323L322.617 207.761C329.42 204.615 336.774 201.39 342.988 198.047L340.078 205.913L350.303 194.115C360.826 189.536 372.022 186.694 383.455 185.699Z" fill="#FADE99"/>
<path d="M387.937 212.361L382.904 209.451L390.454 210.906C393.6 209.018 396.668 206.973 399.617 205.164H399.932C404.089 202.475 408.106 199.574 411.966 196.473H412.241C418.297 191.754 422.033 187.9 421.679 186.799C421.325 185.698 416.016 184.951 408.269 184.872L407.797 185.58L408.269 184.872H407.876C403.55 184.872 398.438 184.872 393.011 185.344H392.617L386.168 185.855L380.937 191.99L383.376 186.131L376.494 187.074L370.083 196.08L362.533 206.777L375.038 210.709L385.696 214.013L387.937 212.361Z" fill="#1F0C0D"/>
<path d="M281.639 232.733L282.543 234.896L417.59 187.705L281.639 232.733Z" fill="#5E2128"/>
<path d="M380.78 233.794L377.437 238.513L383.336 234.109C399.696 236.153 414.404 240.165 414.797 241.974C415.191 243.783 399.067 252.002 382.117 257.704L375.707 254.794L379.64 258.412L376.1 259.435L365.758 254.755L372.089 260.575C365.08 262.593 357.781 263.418 350.499 263.013C345.05 262.473 339.575 262.237 334.1 262.305L326.235 258.845L329.853 262.227C322.78 262.412 315.703 262.188 308.656 261.558L307.712 260.772L308.184 261.48C301.538 260.575 296.897 258.648 296.386 254.44C295.639 247.558 307.122 244.294 320.65 241.384L319.549 244.53L322.223 241.03C328.909 239.614 335.988 238.198 342.28 236.311L337.993 242.406L349.791 234.541C360.013 232.627 370.478 232.375 380.78 233.794Z" fill="#FADE99"/>
<path d="M379.364 258.412L375.431 254.716L381.842 257.547C384.988 256.525 388.173 255.423 391.28 254.283H391.595C396.314 252.553 400.443 250.704 404.061 249.013H404.336C410.668 245.985 414.797 243.39 414.679 242.328C414.561 241.266 409.96 239.536 403.157 237.884L402.606 238.395L403.157 237.884H402.842C398.909 236.94 394.426 236.036 389.589 235.288H389.196L383.336 234.502L377.437 238.906L380.78 234.187L374.448 233.637L366.898 240.44L358.049 248.305L368.274 253.929L377.044 258.963L379.364 258.412Z" fill="#1F0C0D"/>
<path d="M288.757 254.244C288.848 254.913 289.006 255.572 289.229 256.21L410.825 242.446L288.757 254.244Z" fill="#5E2128"/>
<path d="M211.559 158.367H211.087C148.165 158.681 120.637 221.289 120.637 265.491C130.822 266.632 121.62 264.272 134.126 266.042C140.693 236.94 163.424 200.013 211.166 200.013C258.908 200.013 281.639 236.862 288.206 266.042C300.712 264.233 291.509 266.592 301.695 265.491C301.892 221.407 274.481 158.721 211.559 158.367Z" fill="#E02C26"/>
<path d="M293.948 258.019C284.51 225.339 258.554 189.041 211.363 189.041C164.171 189.041 138.059 225.339 128.778 258.019H128.463C131.334 217.592 157.329 166.035 211.048 165.76H211.481C265.358 166.035 291.274 217.631 294.066 258.019H293.948Z" fill="#1FA3AB"/>
<path d="M296.175 279.079C302.102 278.916 306.775 273.98 306.612 268.052C306.45 262.125 301.513 257.452 295.586 257.615C289.659 257.777 284.986 262.714 285.148 268.641C285.311 274.568 290.247 279.241 296.175 279.079Z" fill="#FA9652"/>
<path d="M137.523 268.704C137.685 262.777 133.012 257.84 127.085 257.678C121.158 257.515 116.221 262.188 116.059 268.116C115.896 274.043 120.569 278.979 126.496 279.142C132.424 279.304 137.36 274.631 137.523 268.704Z" fill="#FA9652"/>
<path d="M296.118 275.867C300.265 275.754 303.535 272.301 303.422 268.154C303.309 264.007 299.856 260.737 295.709 260.85C291.562 260.963 288.292 264.416 288.405 268.563C288.518 272.71 291.971 275.98 296.118 275.867Z" fill="#E02C26"/>
<path d="M134.297 268.596C134.409 264.449 131.138 260.997 126.992 260.884C122.845 260.772 119.392 264.043 119.28 268.19C119.168 272.337 122.438 275.789 126.585 275.901C130.732 276.014 134.185 272.743 134.297 268.596Z" fill="#E02C26"/>
<path d="M295.964 272.08C298.004 272.023 299.613 270.322 299.556 268.281C299.499 266.24 297.798 264.632 295.757 264.689C293.716 264.746 292.108 266.447 292.165 268.488C292.222 270.529 293.923 272.137 295.964 272.08Z" fill="#1FA3AB"/>
<path d="M130.469 268.577C130.526 266.536 128.918 264.836 126.877 264.779C124.836 264.722 123.136 266.33 123.079 268.371C123.022 270.412 124.63 272.112 126.671 272.169C128.711 272.226 130.412 270.618 130.469 268.577Z" fill="#1FA3AB"/>
<path d="M292.178 252.553L293.908 254.362C293.782 252.301 293.52 250.252 293.122 248.227L289.189 244.294L290.683 236.94C289.7 233.007 288.56 229.35 287.183 225.575L277.47 223.962C278.44 225.352 279.384 226.755 280.301 228.17L288.402 229.507L286.475 238.946C288.658 243.358 290.563 247.902 292.178 252.553Z" fill="#FADE99"/>
<path d="M277.549 223.923L280.656 210.592C279.673 208.743 278.611 206.895 277.549 205.125L264.807 208.232L265.712 189.356C264.296 187.835 262.828 186.393 261.307 185.03L247.386 194.468L245.931 173.9C244.318 173.035 242.627 172.249 240.936 171.502L225.756 186.563L214.902 165.524H210.734L223.2 189.631L227.369 190.339L242.431 175.395L243.846 195.491C245.603 196.277 247.32 197.116 248.998 198.007L262.054 188.766L261.189 206.069C263.182 207.669 265.082 209.373 266.892 211.182L277.234 208.625L274.639 219.755L277.549 223.923Z" fill="#FADE99"/>
<path d="M130.822 252.553L129.092 254.362C129.194 252.299 129.457 250.248 129.879 248.227L133.811 244.294L132.317 236.94C133.3 233.007 134.44 229.35 135.817 225.575L145.53 223.962C144.547 225.339 143.603 226.755 142.699 228.17L134.598 229.507L136.525 238.946C134.339 243.357 132.435 247.901 130.822 252.553Z" fill="#FADE99"/>
<path d="M145.452 223.923L142.345 210.591C143.328 208.743 144.39 206.894 145.452 205.125L158.193 208.232L157.289 189.355C158.705 187.861 160.16 186.445 161.693 185.029L175.615 194.467L177.07 173.9C178.682 173.035 180.373 172.248 182.064 171.501L197.048 186.563L207.784 165.838H211.992L199.722 189.945L195.553 190.653L180.491 175.709L179.076 195.804C177.319 196.591 175.602 197.43 173.924 198.321L160.75 189.119L161.615 206.423C159.639 208.026 157.749 209.733 155.952 211.535L145.609 208.979L148.283 220.226C147.339 221.353 146.396 222.586 145.452 223.923Z" fill="#FADE99"/>
<path d="M125.003 315.711C127.783 315.711 130.036 313.457 130.036 310.677C130.036 307.897 127.783 305.643 125.003 305.643C122.222 305.643 119.969 307.897 119.969 310.677C119.969 313.457 122.222 315.711 125.003 315.711Z" fill="#1FA3AB"/>
<path d="M127.795 306.979C131.465 306.979 134.441 304.004 134.441 300.333C134.441 296.663 131.465 293.687 127.795 293.687C124.124 293.687 121.148 296.663 121.148 300.333C121.148 304.004 124.124 306.979 127.795 306.979Z" fill="#E02C26"/>
<path d="M297.094 425.273L292.768 420.554L296.229 427.829C290.566 445.015 283.172 459.959 281.049 459.762C278.925 459.565 273.577 440.885 271.296 421.301L275.7 415.087L270.981 418.548C270.968 417.228 270.836 415.912 270.588 414.615L277.863 404.587L270.273 410.172C269.596 402.254 270.247 394.279 272.2 386.576C273.933 380.824 275.351 374.982 276.448 369.076L281.717 361.525L277.273 364.75C278.567 357.106 280.301 349.543 282.465 342.098L283.487 341.311L282.622 341.626C285.06 334.508 288.127 329.828 292.847 330.339C300.397 331.047 301.498 344.064 301.774 359.205L298.628 357.356L301.852 360.974C301.852 368.486 301.852 376.39 302.482 383.508L296.661 377.531L303.229 391.492C303.038 403.011 300.966 414.422 297.094 425.273Z" fill="#FADE99"/>
<path d="M297.369 424.723L285.807 405.06L271.296 421.655L275.7 415.088L270.981 418.549C270.967 417.229 270.836 415.913 270.588 414.616L277.863 404.588L270.273 410.172V404.116L279.24 393.852L287.813 383.981L294.498 395.189L301.773 407.419C300.631 413.265 299.16 419.042 297.369 424.723Z" fill="#1F0C0D"/>
<path d="M302.324 383.352L296.661 377.532L298.981 382.644L289.268 366.363L272.436 385.397C274.032 379.87 275.345 374.266 276.369 368.605L281.638 361.054L277.195 364.279L278.06 359.953L282.464 354.919L291.037 345.048L297.723 356.256L301.655 362.667C301.813 369.667 301.852 376.903 302.324 383.352Z" fill="#1F0C0D"/>
<path d="M287.813 449.341C284.785 455.791 282.15 459.959 281.049 459.841C279.948 459.723 278.021 455.122 276.33 448.044L282.74 440.454L287.813 449.341Z" fill="#1F0C0D"/>
<path d="M281.442 455.476L296.937 298.604L294.341 298.368L281.442 455.476Z" fill="#5E2128"/>
<path d="M299.768 396.605L302.757 393.223L300.476 398.453C304.959 410.527 310.622 420.987 312.274 420.83C313.926 420.673 316.993 407.184 318.212 393.302L314.909 388.976L318.369 391.296V388.425L312.785 381.465L318.291 385.397C318.623 379.71 317.999 374.007 316.442 368.526C315.048 364.478 313.88 360.355 312.942 356.178L309.01 350.947L312.234 353.11C311.113 347.697 309.682 342.353 307.948 337.105L307.161 336.239H307.791C305.942 331.52 303.622 328.374 300.397 328.61C295.01 329.279 294.577 338.599 294.774 349.414L296.976 347.998L294.813 350.633C294.813 355.981 295.128 361.605 294.813 366.717L298.746 362.391L294.813 372.655C295.151 380.855 296.825 388.944 299.768 396.605Z" fill="#FADE99"/>
<path d="M315.381 411.509C316.049 408.481 316.639 404.902 317.19 401.088L308.38 391.649L302.324 403.015C303.596 406.236 305.04 409.387 306.65 412.453L310.268 405.807L315.381 411.509Z" fill="#FADE99"/>
<path d="M310.268 406.358L315.38 411.785V411.549L310.189 406.043L306.571 412.689L310.268 406.358Z" fill="#FADE99"/>
<path d="M302.717 393.263L300.436 398.493C300.961 399.935 301.511 401.364 302.088 402.779L303.818 399.555L308.341 391.69L314.712 398.493L317.229 401.128C317.543 398.611 317.858 396.094 318.015 393.499L314.712 389.173L318.172 391.493V389.33L312.745 383.51L306.375 376.903L301.891 385.083L297.959 392.004C298.457 393.577 298.981 395.15 299.532 396.723L302.717 393.263Z" fill="#1F0C0D"/>
<path d="M317.189 401.128L314.673 398.493L308.341 391.69L303.858 399.869L302.127 403.094V403.33L308.42 391.532L317.189 401.128Z" fill="#5E2128"/>
<path d="M318.173 376.903C317.973 373.934 317.405 371.001 316.482 368.172C315.538 365.577 314.751 362.706 313.965 359.717L302.796 347.919L294.931 362.077V366.796L298.863 362.47L294.577 372.695C294.577 375.068 294.787 377.437 295.206 379.774L304.644 362.509L318.173 376.903Z" fill="#1F0C0D"/>
<path d="M309.167 354.33L302.796 347.527L298.313 355.707L295.049 361.802V362.235L302.914 348.077L314.043 359.875V359.443L309.167 354.33Z" fill="#1F0C0D"/>
<path d="M311.724 417.724L298.431 306.194L296.622 306.43L311.724 417.724Z" fill="#5E2128"/>
<path d="M297.644 315.711C300.424 315.711 302.678 313.457 302.678 310.677C302.678 307.897 300.424 305.643 297.644 305.643C294.864 305.643 292.611 307.897 292.611 310.677C292.611 313.457 294.864 315.711 297.644 315.711Z" fill="#1FA3AB"/>
<path d="M294.892 306.979C298.562 306.979 301.538 304.004 301.538 300.333C301.538 296.663 298.562 293.687 294.892 293.687C291.221 293.687 288.246 296.663 288.246 300.333C288.246 304.004 291.221 306.979 294.892 306.979Z" fill="#E02C26"/>
</svg>
