<svg width="425" height="236" viewBox="0 0 425 236" fill="none" xmlns="http://www.w3.org/2000/svg">
<g clip-path="url(#clip0)">
<path d="M257.774 0H124.077V157.988H257.774V0Z" fill="#575756"/>
<path d="M328.895 236H236.573C227.015 235.988 217.853 232.18 211.094 225.412C204.336 218.643 200.534 209.466 200.522 199.894V122.537H212.336V199.894C212.349 206.328 214.906 212.495 219.449 217.045C223.991 221.594 230.149 224.155 236.573 224.168H328.895C335.319 224.155 341.477 221.594 346.019 217.045C350.562 212.495 353.119 206.328 353.131 199.894V192.177H364.946V199.847C364.946 209.428 361.149 218.616 354.39 225.395C347.63 232.174 338.461 235.988 328.895 236V236Z" fill="#575756"/>
<path d="M69.1604 236H151.863C161.42 235.988 170.583 232.18 177.341 225.412C184.099 218.643 187.901 209.466 187.914 199.894V122.537H176.099V199.894C176.087 206.328 173.529 212.495 168.987 217.045C164.444 221.594 158.287 224.155 151.863 224.168H69.1604C62.7363 224.155 56.5788 221.594 52.0363 217.045C47.4938 212.495 44.9364 206.328 44.924 199.894V192.177H33.1094V199.847C33.1094 209.428 36.9061 218.616 43.6656 225.395C50.4252 232.174 59.5947 235.988 69.1604 236V236Z" fill="#575756"/>
<path d="M131.875 148.399H119.827V9.58691H131.875C137.597 9.58691 143.085 11.8634 147.131 15.9156C151.177 19.9679 153.45 25.4638 153.45 31.1945V126.745C153.456 129.587 152.902 132.401 151.821 135.028C150.739 137.655 149.151 140.043 147.147 142.054C145.143 144.066 142.763 145.661 140.142 146.75C137.522 147.839 134.712 148.399 131.875 148.399V148.399Z" fill="#3C3C3B"/>
<path d="M50.4343 158.784H27.2253V191.991H50.4343V158.784Z" fill="#E94E1B"/>
<path d="M39.4132 171.083C61.1806 171.083 78.8265 144.092 78.8265 110.797C78.8265 77.5018 61.1806 50.5107 39.4132 50.5107C17.6459 50.5107 0 77.5018 0 110.797C0 144.092 17.6459 171.083 39.4132 171.083Z" fill="#E94E1B"/>
<path d="M372.791 157.989H345.239V195.639H372.791V157.989Z" fill="#9D9D9C"/>
<path d="M359.062 160.936C346.008 160.954 333.241 157.094 322.378 149.844C311.514 142.594 303.042 132.279 298.034 120.205C293.025 108.131 291.705 94.8405 294.241 82.015C296.776 69.1895 303.053 57.4054 312.278 48.1538C321.502 38.9022 333.259 32.5989 346.061 30.0414C358.864 27.4838 372.136 28.7871 384.198 33.7862C396.261 38.7853 406.572 47.2556 413.826 58.1253C421.081 68.9951 424.953 81.7757 424.953 94.8502C424.941 112.357 417.998 129.145 405.646 141.533C393.295 153.921 376.542 160.899 359.062 160.936V160.936ZM359.062 40.5974C348.348 40.5974 337.875 43.7792 328.967 49.7406C320.059 55.702 313.116 64.1751 309.016 74.0885C304.916 84.002 303.843 94.9104 305.933 105.434C308.023 115.958 313.182 125.625 320.758 133.213C328.334 140.8 337.986 145.967 348.494 148.061C359.002 150.154 369.894 149.08 379.792 144.973C389.69 140.867 398.15 133.913 404.103 124.992C410.055 116.07 413.232 105.58 413.232 94.8502C413.22 80.4653 407.509 66.673 397.352 56.5013C387.196 46.3296 373.425 40.6097 359.062 40.5974V40.5974Z" fill="#575756"/>
<path d="M358.642 57.8086H359.016C367.058 57.8131 374.881 60.4398 381.301 65.2917C387.72 70.1435 392.389 76.9566 394.6 84.7012L381.01 88.5831C379.65 83.7903 376.767 79.5723 372.798 76.5678C368.829 73.5634 363.991 71.9363 359.016 71.9331H358.782L358.642 57.8086Z" fill="#E94E1B"/>
<path d="M394.599 84.5141C396.775 91.9875 396.548 99.9572 393.95 107.294C391.352 114.631 386.514 120.963 380.123 125.394C373.732 129.824 366.111 132.128 358.339 131.979C350.568 131.83 343.04 129.235 336.823 124.563C330.606 119.891 326.014 113.378 323.698 105.947C321.383 98.5155 321.46 90.5429 323.92 83.1584C326.381 75.7739 331.098 69.3519 337.405 64.8022C343.713 60.2525 351.289 57.8057 359.062 57.8086V71.8395C354.259 71.835 349.576 73.3443 345.677 76.1536C341.779 78.9629 338.861 82.9297 337.339 87.4921C335.816 92.0544 335.766 96.9809 337.194 101.574C338.623 106.166 341.458 110.192 345.299 113.081C349.139 115.97 353.79 117.575 358.592 117.669C363.394 117.764 368.104 116.342 372.055 113.606C376.005 110.87 378.996 106.959 380.603 102.426C382.211 97.8925 382.353 92.9678 381.01 88.3492L394.599 84.5141Z" fill="#EDEDED"/>
<path d="M323.759 83.6255C326.145 76.135 330.845 69.5976 337.183 64.9572C343.52 60.3168 351.166 57.8135 359.016 57.8086V71.8395C354.162 71.8375 349.433 73.3815 345.513 76.2485C341.592 79.1154 338.684 83.1566 337.208 87.788L323.759 83.6255Z" fill="#95C11F"/>
<path d="M313.858 98.4492C315.895 98.4492 317.547 96.795 317.547 94.7544C317.547 92.7138 315.895 91.0596 313.858 91.0596C311.821 91.0596 310.169 92.7138 310.169 94.7544C310.169 96.795 311.821 98.4492 313.858 98.4492Z" fill="#3C3C3B"/>
<path d="M404.266 98.4492C406.304 98.4492 407.955 96.795 407.955 94.7544C407.955 92.7138 406.304 91.0596 404.266 91.0596C402.229 91.0596 400.577 92.7138 400.577 94.7544C400.577 96.795 402.229 98.4492 404.266 98.4492Z" fill="#3C3C3B"/>
<path d="M359.063 53.1777C361.1 53.1777 362.752 51.5235 362.752 49.4829C362.752 47.4423 361.1 45.7881 359.063 45.7881C357.025 45.7881 355.373 47.4423 355.373 49.4829C355.373 51.5235 357.025 53.1777 359.063 53.1777Z" fill="#3C3C3B"/>
<path d="M359.063 143.725C361.1 143.725 362.752 142.07 362.752 140.03C362.752 137.989 361.1 136.335 359.063 136.335C357.025 136.335 355.373 137.989 355.373 140.03C355.373 142.07 357.025 143.725 359.063 143.725Z" fill="#3C3C3B"/>
<path d="M329.675 129.389C331.116 127.946 331.116 125.607 329.675 124.164C328.234 122.721 325.898 122.721 324.458 124.164C323.017 125.607 323.017 127.946 324.458 129.389C325.898 130.832 328.234 130.832 329.675 129.389Z" fill="#3C3C3B"/>
<path d="M393.605 65.3587C395.045 63.9158 395.045 61.5764 393.605 60.1335C392.164 58.6906 389.828 58.6906 388.387 60.1335C386.947 61.5764 386.947 63.9158 388.387 65.3587C389.828 66.8016 392.164 66.8016 393.605 65.3587Z" fill="#3C3C3B"/>
<path d="M329.674 65.3636C331.114 63.9207 331.114 61.5813 329.674 60.1383C328.233 58.6954 325.897 58.6954 324.457 60.1384C323.016 61.5813 323.016 63.9207 324.457 65.3636C325.897 66.8065 328.233 66.8065 329.674 65.3636Z" fill="#3C3C3B"/>
<path d="M393.606 129.389C395.046 127.946 395.046 125.607 393.606 124.164C392.165 122.721 389.829 122.721 388.388 124.164C386.948 125.607 386.948 127.946 388.388 129.389C389.829 130.832 392.165 130.832 393.606 129.389Z" fill="#3C3C3B"/>
<path d="M369.547 100.38C372.611 94.5517 370.376 87.3397 364.556 84.2718C358.737 81.2039 351.536 83.442 348.472 89.2706C345.409 95.0992 347.644 102.311 353.464 105.379C359.283 108.447 366.484 106.209 369.547 100.38Z" fill="#575756"/>
<path d="M355.887 91.9504L380.17 54.7217L363.218 95.8323L355.887 91.9504Z" fill="#575756"/>
</g>
<defs>
<clipPath id="clip0">
<rect width="425" height="236" fill="white"/>
</clipPath>
</defs>
</svg>
