<svg width="211" height="412" viewBox="0 0 211 412" fill="none" xmlns="http://www.w3.org/2000/svg">
<mask id="mask0" mask-type="alpha" maskUnits="userSpaceOnUse" x="0" y="0" width="211" height="412">
<g clip-path="url(#clip0)">
<path d="M20.9657 291.381L25.8298 287.185L21.6366 294.319C25.8298 312.449 32.0357 328.439 34.2161 328.439C36.3966 328.439 43.6088 309.763 47.7601 289.913L43.8604 283.072L48.389 287.017C48.6406 285.632 48.8922 284.289 49.1438 282.82L42.6444 271.825L49.8986 278.246C51.271 270.134 51.271 261.849 49.8986 253.737C48.6537 247.678 47.7438 241.556 47.173 235.397L42.4767 227.003L46.6698 230.696C46.0484 222.751 44.9704 214.848 43.4411 207.027L42.4347 206.103L43.2734 206.523C41.5122 199.179 38.7867 194.227 34.0484 194.227C26.2491 194.227 23.9429 207.488 22.2656 222.974L25.704 221.38L22.0979 224.779C21.3012 232.459 20.5464 240.559 19.3723 247.819L25.704 242.279L18.0305 256.003C17.0728 267.877 18.0643 279.828 20.9657 291.381Z" fill="#1FA3AB"/>
<path d="M20.9655 290.414L34.5933 271.612L47.9276 289.994L44.0279 283.153L48.5566 287.098C48.8082 285.713 49.0597 284.37 49.3113 282.902L42.8119 271.906L49.8984 278.243C50.1919 276.145 50.4435 274.046 50.6112 272.074L42.2249 260.743L34.3417 249.831L26.4586 260.743L18.0723 272.577C18.705 278.572 19.6709 284.527 20.9655 290.414Z" fill="#FA9652"/>
<path d="M19.5823 247.942L25.914 242.403L23.0626 247.607L34.5099 231.827L49.9827 253.146C48.8124 247.334 47.9447 241.465 47.3829 235.562L42.6866 227.169L46.8798 230.862L46.4185 226.329L42.2254 220.747L34.5099 209.836L26.5849 220.747L22.0982 226.959C21.3853 234.009 20.6725 241.354 19.5823 247.942Z" fill="#E02C26"/>
<path d="M28.3459 316.895C30.8618 323.82 33.1262 328.311 34.3002 328.311C35.4743 328.311 37.7386 323.652 40.3803 316.56L34.5099 308.418L28.3459 316.895Z" fill="#FADE99"/>
<path d="M33.084 175.971L34.3 323.78L35.516 176.264C34.6966 176.262 33.8803 176.164 33.084 175.971Z" fill="#5E2128"/>
<path d="M165.127 293.773L169.991 289.576L165.797 296.669C169.991 314.799 176.197 330.83 178.377 330.83C180.557 330.83 187.77 312.155 191.921 292.304L187.979 285.38L192.466 289.324C192.718 287.94 193.011 286.597 193.221 285.128L186.679 274.132L193.934 280.553C195.312 272.442 195.312 264.156 193.934 256.044C192.695 249.985 191.785 243.862 191.208 237.704L186.512 229.311L190.705 233.004C190.077 225.059 188.999 217.157 187.476 209.334L186.47 208.411L187.308 208.831C185.547 201.486 182.822 196.576 178.083 196.576C170.284 196.576 167.978 209.838 166.301 225.324L169.739 223.729L166.133 227.129C165.546 235.018 164.791 242.992 163.533 250.211L169.865 244.671L161.982 258.478C161.102 270.336 162.164 282.258 165.127 293.773Z" fill="#1FA3AB"/>
<path d="M164.917 292.638L178.545 273.837L191.837 292.219L187.98 285.378L192.466 289.323C192.718 287.938 193.011 286.595 193.221 285.126L186.68 274.131L193.934 280.552C194.227 278.453 194.479 276.355 194.647 274.382L186.26 263.051L178.377 252.14L170.452 263.051L162.066 274.886C162.689 280.852 163.641 286.778 164.917 292.638Z" fill="#FA9652"/>
<path d="M163.533 250.212L169.865 244.672L167.014 249.666L178.461 233.887L193.934 255.206C192.765 249.393 191.898 243.524 191.334 237.622L186.638 229.228L190.831 232.921C190.831 231.41 190.495 229.9 190.37 228.389L186.176 222.807L178.293 211.896L170.368 222.807L165.882 229.018C165.42 236.279 164.707 243.413 163.533 250.212Z" fill="#E02C26"/>
<path d="M172.381 319.164C174.897 326.089 177.161 330.579 178.335 330.579C179.509 330.579 181.857 325.921 184.499 318.954L178.545 310.561L172.381 319.164Z" fill="#FADE99"/>
<path d="M177.119 176.893L178.335 326.045L179.551 177.438C178.73 177.307 177.918 177.125 177.119 176.893Z" fill="#5E2128"/>
<path d="M105.5 328.818L95.3104 342.877L86.6725 354.796L86.2951 352.782L94.6814 338.597L85.3726 346.99C84.6023 341.872 84.0984 336.717 83.863 331.546L105.5 302.169L126.969 331.546C126.625 339.292 125.742 347.005 124.327 354.628L115.689 342.71L105.5 328.818Z" fill="#1FA3AB"/>
<path d="M113.635 395.502C110.196 405.113 107.093 411.45 105.5 411.45C103.907 411.45 100.804 405.113 97.3654 395.502L105.5 384.297L113.635 395.502Z" fill="#FA9652"/>
<path d="M97.1975 395.039C95.2687 389.625 93.2979 383.162 91.4529 376.238L105.5 356.723L119.547 376.07C117.702 382.994 115.689 389.457 113.802 394.871L105.416 383.456L97.1975 395.039Z" fill="#FADE99"/>
<path d="M105.5 384.298L97.3654 395.504V395.042L105.752 383.627L114.138 395.042V395.504L105.5 384.298Z" fill="#FADE99"/>
<path d="M116.277 358.277L121.602 367.468C120.959 370.265 120.274 373.063 119.547 375.861L115.564 370.363L105.374 356.304L95.1851 370.363L90.9919 375.861C89.8179 371.371 88.6857 366.67 87.6793 361.928L92.7111 353.115L86.9246 358.193C86.9246 357.102 86.5472 355.968 86.3375 354.877L94.9754 342.959L105.165 328.899L115.354 342.959L123.992 354.877C123.447 357.899 122.86 360.921 122.231 363.942L116.277 358.277Z" fill="#5E2128"/>
<path d="M91.4529 376.241V375.738L95.646 370.24L105.835 356.181L116.025 370.24L120.008 375.738V376.241L105.5 356.726L91.4529 376.241Z" fill="#5E2128"/>
<path d="M83.863 331.546C83.5559 326.036 83.9362 320.51 84.9952 315.094C86.1273 310.1 86.966 304.602 87.6788 298.895L105.416 274.47L123.153 298.937C123.53 301.917 123.908 304.896 124.369 307.708L116.192 300.574L126.34 318.368C126.936 322.733 127.146 327.143 126.969 331.546L105.5 302.168L83.863 331.546Z" fill="#E02C26"/>
<path d="M105.5 273.966L95.3104 288.025L88.0563 298.265C88.3079 296.083 88.5595 294.068 88.811 291.634L94.6815 281.184L89.2304 285.927C89.9013 279.338 90.5722 272.791 91.4108 266.747L105.5 247.316L119.589 266.747C120.008 269.713 120.386 272.777 120.721 275.938L116.318 273.84L120.973 278.037C121.685 284.668 122.356 291.55 123.153 298.181L115.689 287.899L105.5 273.966Z" fill="#1F0C0D"/>
<path d="M95.3104 288.024L105.5 273.965L115.689 288.024L123.153 298.306C123.153 298.558 123.153 298.852 123.153 299.103L105.416 274.636L87.6788 299.062V298.222L95.3104 288.024Z" fill="#1F0C0D"/>
<path d="M105.5 246.56L95.3105 260.619L91.5366 265.865C92.0817 262.088 92.7107 258.563 93.4235 255.331L94.7234 254.114L93.6332 254.66C95.9394 245.175 99.4198 238.838 105.542 238.838C113.928 238.838 117.325 250.547 119.505 265.865L115.731 260.661L105.5 246.56Z" fill="#FA9652"/>
<path d="M91.411 266.663V265.824L95.1849 260.578L105.374 246.519L115.564 260.578L119.337 265.782V266.621L105.248 247.19L91.411 266.663Z" fill="#FA9652"/>
<path d="M105.5 405.66L103.781 196.535H107.219L105.5 405.66Z" fill="#5E2128"/>
<path d="M105.5 211.181C84.6341 211.181 64.2368 204.988 46.8874 193.386C29.538 181.783 16.0158 165.292 8.03076 145.998C0.0457116 126.704 -2.04354 105.473 2.0272 84.9908C6.09794 64.5082 16.1458 45.6938 30.9003 30.9268C45.6547 16.1597 64.453 6.10317 84.918 2.02894C105.383 -2.04529 126.596 0.0457507 145.873 8.03764C165.151 16.0295 181.628 29.5633 193.22 46.9276C204.813 64.2918 211 84.7066 211 105.59C210.967 133.585 199.841 160.423 180.063 180.217C160.285 200.012 133.47 211.148 105.5 211.181ZM105.5 14.2271C87.4574 14.2354 69.8223 19.5973 54.8238 29.635C39.8254 39.6727 28.137 53.9356 21.2362 70.6207C14.3354 87.3058 12.532 105.664 16.054 123.375C19.576 141.085 28.2652 157.353 41.0233 170.122C53.7813 182.891 70.0355 191.588 87.731 195.113C105.427 198.638 123.769 196.833 140.44 189.926C157.111 183.02 171.361 171.321 181.391 156.31C191.42 141.299 196.777 123.649 196.785 105.59C196.752 81.3735 187.122 58.1585 170.009 41.0384C152.896 23.9184 129.696 14.2912 105.5 14.269V14.2271Z" fill="#5E2128"/>
<path d="M107.303 7.13477H103.739V204.047H107.303V7.13477Z" fill="#5E2128"/>
<path d="M105.5 59.2144C109.831 59.2144 113.341 55.7008 113.341 51.3665C113.341 47.0322 109.831 43.5186 105.5 43.5186C101.17 43.5186 97.6589 47.0322 97.6589 51.3665C97.6589 55.7008 101.17 59.2144 105.5 59.2144Z" fill="#1FA3AB"/>
<path d="M105.5 39.9124C108.58 39.9124 111.077 37.4134 111.077 34.3307C111.077 31.248 108.58 28.749 105.5 28.749C102.42 28.749 99.9231 31.248 99.9231 34.3307C99.9231 37.4134 102.42 39.9124 105.5 39.9124Z" fill="#FA9652"/>
<path d="M105.5 167.661C109.831 167.661 113.341 164.147 113.341 159.813C113.341 155.478 109.831 151.965 105.5 151.965C101.17 151.965 97.6589 155.478 97.6589 159.813C97.6589 164.147 101.17 167.661 105.5 167.661Z" fill="#1FA3AB"/>
<path d="M105.5 182.431C108.58 182.431 111.077 179.932 111.077 176.849C111.077 173.767 108.58 171.268 105.5 171.268C102.42 171.268 99.9231 173.767 99.9231 176.849C99.9231 179.932 102.42 182.431 105.5 182.431Z" fill="#FA9652"/>
<path d="M203.872 103.826H7.1283V107.393H203.872V103.826Z" fill="#5E2128"/>
<path d="M37.2224 34.6963L34.7021 37.2188L173.85 176.486L176.371 173.964L37.2224 34.6963Z" fill="#5E2128"/>
<path d="M173.974 34.8246L34.583 173.849L37.0989 176.375L176.49 37.3514L173.974 34.8246Z" fill="#5E2128"/>
<path d="M51.3245 113.438C55.6551 113.438 59.1657 109.924 59.1657 105.59C59.1657 101.256 55.6551 97.7422 51.3245 97.7422C46.9939 97.7422 43.4833 101.256 43.4833 105.59C43.4833 109.924 46.9939 113.438 51.3245 113.438Z" fill="#1FA3AB"/>
<path d="M34.3003 111.172C37.3803 111.172 39.8772 108.673 39.8772 105.59C39.8772 102.508 37.3803 100.009 34.3003 100.009C31.2203 100.009 28.7234 102.508 28.7234 105.59C28.7234 108.673 31.2203 111.172 34.3003 111.172Z" fill="#FA9652"/>
<path d="M159.676 113.438C164.006 113.438 167.517 109.924 167.517 105.59C167.517 101.256 164.006 97.7422 159.676 97.7422C155.345 97.7422 151.835 101.256 151.835 105.59C151.835 109.924 155.345 113.438 159.676 113.438Z" fill="#1FA3AB"/>
<path d="M176.7 111.172C179.78 111.172 182.277 108.673 182.277 105.59C182.277 102.508 179.78 100.009 176.7 100.009C173.62 100.009 171.123 102.508 171.123 105.59C171.123 108.673 173.62 111.172 176.7 111.172Z" fill="#FA9652"/>
<path d="M144.035 74.0728C147.925 74.0728 151.079 70.9161 151.079 67.0222C151.079 63.1283 147.925 59.9717 144.035 59.9717C140.144 59.9717 136.99 63.1283 136.99 67.0222C136.99 70.9161 140.144 74.0728 144.035 74.0728Z" fill="#FADE99"/>
<path d="M156.615 58.2516C159.07 58.2516 161.06 56.2599 161.06 53.803C161.06 51.3462 159.07 49.3545 156.615 49.3545C154.16 49.3545 152.17 51.3462 152.17 53.803C152.17 56.2599 154.16 58.2516 156.615 58.2516Z" fill="#E02C26"/>
<path d="M66.9646 74.0728C70.8551 74.0728 74.0091 70.9161 74.0091 67.0222C74.0091 63.1283 70.8551 59.9717 66.9646 59.9717C63.074 59.9717 59.92 63.1283 59.92 67.0222C59.92 70.9161 63.074 74.0728 66.9646 74.0728Z" fill="#FADE99"/>
<path d="M53.7563 58.8805C56.211 58.8805 58.201 56.8888 58.201 54.432C58.201 51.9751 56.211 49.9834 53.7563 49.9834C51.3015 49.9834 49.3115 51.9751 49.3115 54.432C49.3115 56.8888 51.3015 58.8805 53.7563 58.8805Z" fill="#E02C26"/>
<path d="M66.9646 151.21C70.8551 151.21 74.0091 148.053 74.0091 144.159C74.0091 140.265 70.8551 137.108 66.9646 137.108C63.074 137.108 59.92 140.265 59.92 144.159C59.92 148.053 63.074 151.21 66.9646 151.21Z" fill="#FADE99"/>
<path d="M54.3434 161.826C56.7982 161.826 58.7882 159.834 58.7882 157.377C58.7882 154.92 56.7982 152.929 54.3434 152.929C51.8887 152.929 49.8987 154.92 49.8987 157.377C49.8987 159.834 51.8887 161.826 54.3434 161.826Z" fill="#E02C26"/>
<path d="M144.035 151.21C147.925 151.21 151.079 148.053 151.079 144.159C151.079 140.265 147.925 137.108 144.035 137.108C140.144 137.108 136.99 140.265 136.99 144.159C136.99 148.053 140.144 151.21 144.035 151.21Z" fill="#FADE99"/>
<path d="M157.244 161.239C159.699 161.239 161.689 159.247 161.689 156.79C161.689 154.333 159.699 152.342 157.244 152.342C154.789 152.342 152.799 154.333 152.799 156.79C152.799 159.247 154.789 161.239 157.244 161.239Z" fill="#E02C26"/>
<path d="M144.035 111.172C147.115 111.172 149.612 108.673 149.612 105.59C149.612 102.508 147.115 100.009 144.035 100.009C140.955 100.009 138.458 102.508 138.458 105.59C138.458 108.673 140.955 111.172 144.035 111.172Z" fill="#FA9652"/>
<path d="M105.5 72.6038C108.58 72.6038 111.077 70.1048 111.077 67.0221C111.077 63.9394 108.58 61.4404 105.5 61.4404C102.42 61.4404 99.9231 63.9394 99.9231 67.0221C99.9231 70.1048 102.42 72.6038 105.5 72.6038Z" fill="#FA9652"/>
<path d="M66.9651 111.172C70.0451 111.172 72.542 108.673 72.542 105.59C72.542 102.508 70.0451 100.009 66.9651 100.009C63.8851 100.009 61.3882 102.508 61.3882 105.59C61.3882 108.673 63.8851 111.172 66.9651 111.172Z" fill="#FA9652"/>
<path d="M105.5 149.741C108.58 149.741 111.077 147.242 111.077 144.159C111.077 141.076 108.58 138.577 105.5 138.577C102.42 138.577 99.9231 141.076 99.9231 144.159C99.9231 147.242 102.42 149.741 105.5 149.741Z" fill="#FA9652"/>
<path d="M105.5 124.895C116.153 124.895 124.788 116.252 124.788 105.59C124.788 94.9283 116.153 86.2852 105.5 86.2852C94.8471 86.2852 86.2113 94.9283 86.2113 105.59C86.2113 116.252 94.8471 124.895 105.5 124.895Z" fill="#E02C26"/>
<path d="M105.5 116.42C111.475 116.42 116.318 111.572 116.318 105.592C116.318 99.6123 111.475 94.7646 105.5 94.7646C99.5251 94.7646 94.6815 99.6123 94.6815 105.592C94.6815 111.572 99.5251 116.42 105.5 116.42Z" fill="#FA9652"/>
</g>
</mask>
<g mask="url(#mask0)">
<rect x="-142.425" y="-68.5752" width="490.575" height="485.3" fill="#C4C4C4"/>
</g>
<defs>
<clipPath id="clip0">
<rect width="211" height="411.45" fill="white"/>
</clipPath>
</defs>
</svg>
