<svg width="456" height="451" viewBox="0 0 456 451" fill="none" xmlns="http://www.w3.org/2000/svg">
<g clip-path="url(#clip0)">
<path d="M151.843 334.513L156.363 330.613L152.466 337.243C156.363 354.091 162.13 368.951 164.156 368.951C166.183 368.951 172.885 351.595 176.743 333.148L173.119 326.791L177.328 330.457C177.561 329.17 177.795 327.922 178.029 326.557L171.989 316.338L178.73 322.305C180.006 314.767 180.006 307.067 178.73 299.529C177.574 293.898 176.728 288.208 176.198 282.485L171.833 274.685L175.73 278.117C175.152 270.733 174.151 263.389 172.729 256.12L171.794 255.262L172.574 255.652C170.937 248.827 168.404 244.225 164.001 244.225C156.753 244.225 154.609 256.549 153.051 270.941L156.246 269.459L152.895 272.618C152.154 279.755 151.453 287.282 150.362 294.029L156.246 288.881L149.115 301.635C148.225 312.67 149.146 323.776 151.843 334.513Z" fill="#1FA3AB"/>
<path d="M151.842 333.616L164.507 316.143L176.899 333.226L173.275 326.868L177.483 330.535C177.717 329.248 177.951 328 178.185 326.634L172.145 316.416L178.73 322.305C179.003 320.355 179.237 318.405 179.393 316.572L171.599 306.042L164.273 295.901L156.947 306.042L149.154 317.04C149.742 322.611 150.639 328.145 151.842 333.616Z" fill="#FA9652"/>
<path d="M150.556 294.147L156.441 288.998L153.791 293.835L164.429 279.17L178.808 298.983C177.721 293.581 176.914 288.127 176.392 282.641L172.028 274.841L175.925 278.273L175.496 274.061L171.599 268.874L164.429 258.733L157.064 268.874L152.894 274.646C152.232 281.198 151.57 288.023 150.556 294.147Z" fill="#E02C26"/>
<path d="M158.701 358.226C161.039 364.661 163.143 368.834 164.234 368.834C165.325 368.834 167.43 364.505 169.885 357.914L164.429 350.348L158.701 358.226Z" fill="#FADE99"/>
<path d="M163.105 227.26L164.235 364.623L165.365 227.533C164.603 227.531 163.845 227.439 163.105 227.26Z" fill="#5E2128"/>
<path d="M285.815 336.736L290.335 332.836L286.438 339.428C290.335 356.276 296.102 371.175 298.128 371.175C300.155 371.175 306.857 353.819 310.715 335.371L307.052 328.936L311.222 332.602C311.456 331.315 311.728 330.067 311.923 328.702L305.844 318.484L312.586 324.451C313.866 316.913 313.866 309.212 312.586 301.674C311.434 296.043 310.589 290.353 310.053 284.631L305.688 276.83L309.585 280.262C309.002 272.879 308 265.535 306.584 258.266L305.649 257.408L306.429 257.798C304.792 250.972 302.259 246.409 297.856 246.409C290.608 246.409 288.464 258.734 286.906 273.125L290.101 271.643L286.75 274.802C286.204 282.134 285.503 289.545 284.334 296.253L290.218 291.105L282.892 303.936C282.074 314.956 283.061 326.035 285.815 336.736Z" fill="#1FA3AB"/>
<path d="M285.62 335.683L298.284 318.211L310.637 335.293L307.052 328.936L311.222 332.602C311.456 331.315 311.728 330.067 311.923 328.702L305.844 318.484L312.586 324.451C312.858 322.501 313.092 320.551 313.248 318.718L305.454 308.187L298.129 298.047L290.764 308.187L282.97 319.186C283.549 324.729 284.434 330.237 285.62 335.683Z" fill="#FA9652"/>
<path d="M284.334 296.253L290.218 291.105L287.568 295.746L298.207 281.081L312.586 300.894C311.5 295.492 310.694 290.038 310.17 284.552L305.805 276.752L309.702 280.184C309.702 278.78 309.39 277.376 309.274 275.972L305.377 270.785L298.051 260.645L290.686 270.785L286.516 276.557C286.088 283.304 285.425 289.935 284.334 296.253Z" fill="#E02C26"/>
<path d="M292.556 360.332C294.894 366.767 296.999 370.941 298.09 370.941C299.181 370.941 301.363 366.611 303.818 360.137L298.285 352.337L292.556 360.332Z" fill="#FADE99"/>
<path d="M296.959 228.118L298.09 366.729L299.22 228.625C298.456 228.504 297.702 228.334 296.959 228.118Z" fill="#5E2128"/>
<path d="M230.402 369.302L220.933 382.367L212.905 393.444L212.555 391.572L220.348 378.389L211.697 386.19C210.981 381.433 210.513 376.642 210.294 371.837L230.402 344.536L250.354 371.837C250.034 379.036 249.214 386.203 247.899 393.288L239.871 382.212L230.402 369.302Z" fill="#1FA3AB"/>
<path d="M237.962 431.276C234.766 440.207 231.883 446.096 230.402 446.096C228.921 446.096 226.037 440.207 222.842 431.276L230.402 420.862L237.962 431.276Z" fill="#FA9652"/>
<path d="M222.686 430.848C220.894 425.816 219.062 419.81 217.348 413.375L230.402 395.239L243.456 413.219C241.741 419.654 239.871 425.66 238.117 430.692L230.324 420.083L222.686 430.848Z" fill="#FADE99"/>
<path d="M230.402 420.863L222.842 431.277V430.848L230.636 420.239L238.429 430.848V431.277L230.402 420.863Z" fill="#FADE99"/>
<path d="M240.417 396.682L245.366 405.223C244.768 407.823 244.132 410.423 243.456 413.023L239.754 407.914L230.285 394.849L220.816 407.914L216.919 413.023C215.828 408.85 214.776 404.482 213.841 400.075L218.517 391.885L213.139 396.604C213.139 395.59 212.788 394.537 212.594 393.523L220.621 382.446L230.09 369.381L239.559 382.446L247.587 393.523C247.08 396.331 246.535 399.139 245.95 401.947L240.417 396.682Z" fill="#5E2128"/>
<path d="M217.348 413.374V412.906L221.244 407.797L230.714 394.731L240.183 407.797L243.885 412.906V413.374L230.402 395.238L217.348 413.374Z" fill="#5E2128"/>
<path d="M210.294 371.837C210.009 366.717 210.362 361.581 211.347 356.548C212.399 351.907 213.178 346.798 213.841 341.494L230.324 318.795L246.807 341.533C247.158 344.302 247.509 347.071 247.938 349.684L240.339 343.054L249.769 359.59C250.323 363.647 250.519 367.745 250.354 371.837L230.402 344.536L210.294 371.837Z" fill="#E02C26"/>
<path d="M230.402 318.327L220.933 331.393L214.191 340.909C214.425 338.881 214.659 337.009 214.893 334.747L220.348 325.036L215.283 329.443C215.906 323.32 216.529 317.235 217.309 311.619L230.402 293.562L243.495 311.619C243.885 314.375 244.236 317.222 244.547 320.16L240.456 318.21L244.781 322.111C245.444 328.273 246.067 334.669 246.808 340.831L239.871 331.276L230.402 318.327Z" fill="#1F0C0D"/>
<path d="M220.933 331.393L230.402 318.327L239.871 331.393L246.808 340.948C246.808 341.182 246.808 341.455 246.808 341.689L230.324 318.951L213.841 341.65V340.87L220.933 331.393Z" fill="#1F0C0D"/>
<path d="M230.402 292.86L220.933 305.925L217.426 310.8C217.933 307.29 218.517 304.014 219.18 301.011L220.388 299.88L219.374 300.387C221.518 291.573 224.752 285.684 230.441 285.684C238.235 285.684 241.391 296.565 243.418 310.8L239.911 305.964L230.402 292.86Z" fill="#FA9652"/>
<path d="M217.309 311.542V310.762L220.816 305.887L230.285 292.821L239.754 305.887L243.262 310.723V311.503L230.168 293.445L217.309 311.542Z" fill="#FA9652"/>
<path d="M230.402 440.714L228.804 246.37H232L230.402 440.714Z" fill="#5E2128"/>
<path d="M230.402 259.982C211.011 259.982 192.055 254.227 175.932 243.444C159.809 232.662 147.242 217.336 139.822 199.406C132.401 181.475 130.46 161.745 134.243 142.71C138.026 123.676 147.363 106.191 161.075 92.4675C174.787 78.7441 192.256 69.3984 211.275 65.6121C230.293 61.8258 250.007 63.7691 267.922 71.1961C285.837 78.6232 301.149 91.2004 311.922 107.337C322.696 123.474 328.446 142.446 328.446 161.854C328.415 187.87 318.075 212.811 299.695 231.206C281.315 249.602 256.395 259.951 230.402 259.982ZM230.402 76.9481C213.635 76.9558 197.246 81.9387 183.308 91.267C169.369 100.595 158.507 113.85 152.094 129.356C145.681 144.862 144.005 161.922 147.278 178.381C150.551 194.84 158.626 209.959 170.482 221.825C182.339 233.692 197.444 241.774 213.889 245.049C230.334 248.325 247.38 246.648 262.873 240.229C278.365 233.811 291.609 222.939 300.929 208.989C310.249 195.039 315.228 178.636 315.236 161.854C315.205 139.349 306.256 117.775 290.352 101.864C274.448 85.9544 252.888 77.0077 230.402 76.9871V76.9481Z" fill="#5E2128"/>
<path d="M232.078 70.3574H228.766V253.352H232.078V70.3574Z" fill="#5E2128"/>
<path d="M230.402 118.757C234.426 118.757 237.689 115.492 237.689 111.464C237.689 107.436 234.426 104.171 230.402 104.171C226.377 104.171 223.115 107.436 223.115 111.464C223.115 115.492 226.377 118.757 230.402 118.757Z" fill="#1FA3AB"/>
<path d="M230.402 100.817C233.265 100.817 235.585 98.4944 235.585 95.6296C235.585 92.7648 233.265 90.4424 230.402 90.4424C227.54 90.4424 225.22 92.7648 225.22 95.6296C225.22 98.4944 227.54 100.817 230.402 100.817Z" fill="#FA9652"/>
<path d="M230.402 219.537C234.426 219.537 237.689 216.271 237.689 212.243C237.689 208.216 234.426 204.95 230.402 204.95C226.377 204.95 223.115 208.216 223.115 212.243C223.115 216.271 226.377 219.537 230.402 219.537Z" fill="#1FA3AB"/>
<path d="M230.402 233.265C233.265 233.265 235.585 230.943 235.585 228.078C235.585 225.213 233.265 222.891 230.402 222.891C227.54 222.891 225.22 225.213 225.22 228.078C225.22 230.943 227.54 233.265 230.402 233.265Z" fill="#FA9652"/>
<path d="M321.821 160.217H138.983V163.532H321.821V160.217Z" fill="#5E2128"/>
<path d="M166.95 95.9703L164.608 98.3145L293.922 227.739L296.264 225.395L166.95 95.9703Z" fill="#5E2128"/>
<path d="M294.036 96.089L164.497 225.287L166.835 227.635L296.374 98.4372L294.036 96.089Z" fill="#5E2128"/>
<path d="M180.055 169.147C184.08 169.147 187.342 165.882 187.342 161.854C187.342 157.826 184.08 154.561 180.055 154.561C176.031 154.561 172.768 157.826 172.768 161.854C172.768 165.882 176.031 169.147 180.055 169.147Z" fill="#1FA3AB"/>
<path d="M164.234 167.041C167.097 167.041 169.417 164.719 169.417 161.854C169.417 158.989 167.097 156.667 164.234 156.667C161.372 156.667 159.052 158.989 159.052 161.854C159.052 164.719 161.372 167.041 164.234 167.041Z" fill="#FA9652"/>
<path d="M280.748 169.147C284.773 169.147 288.035 165.882 288.035 161.854C288.035 157.826 284.773 154.561 280.748 154.561C276.724 154.561 273.461 157.826 273.461 161.854C273.461 165.882 276.724 169.147 280.748 169.147Z" fill="#1FA3AB"/>
<path d="M296.57 167.041C299.432 167.041 301.753 164.719 301.753 161.854C301.753 158.989 299.432 156.667 296.57 156.667C293.708 156.667 291.387 158.989 291.387 161.854C291.387 164.719 293.708 167.041 296.57 167.041Z" fill="#FA9652"/>
<path d="M266.213 132.564C269.829 132.564 272.76 129.631 272.76 126.012C272.76 122.393 269.829 119.46 266.213 119.46C262.598 119.46 259.667 122.393 259.667 126.012C259.667 129.631 262.598 132.564 266.213 132.564Z" fill="#FADE99"/>
<path d="M277.904 117.86C280.186 117.86 282.035 116.009 282.035 113.726C282.035 111.443 280.186 109.592 277.904 109.592C275.623 109.592 273.774 111.443 273.774 113.726C273.774 116.009 275.623 117.86 277.904 117.86Z" fill="#E02C26"/>
<path d="M194.591 132.564C198.206 132.564 201.137 129.631 201.137 126.012C201.137 122.393 198.206 119.46 194.591 119.46C190.975 119.46 188.044 122.393 188.044 126.012C188.044 129.631 190.975 132.564 194.591 132.564Z" fill="#FADE99"/>
<path d="M182.316 118.446C184.597 118.446 186.446 116.595 186.446 114.312C186.446 112.029 184.597 110.178 182.316 110.178C180.034 110.178 178.185 112.029 178.185 114.312C178.185 116.595 180.034 118.446 182.316 118.446Z" fill="#E02C26"/>
<path d="M194.591 204.249C198.206 204.249 201.137 201.315 201.137 197.697C201.137 194.078 198.206 191.145 194.591 191.145C190.975 191.145 188.044 194.078 188.044 197.697C188.044 201.315 190.975 204.249 194.591 204.249Z" fill="#FADE99"/>
<path d="M182.861 214.116C185.142 214.116 186.992 212.265 186.992 209.982C186.992 207.699 185.142 205.848 182.861 205.848C180.58 205.848 178.731 207.699 178.731 209.982C178.731 212.265 180.58 214.116 182.861 214.116Z" fill="#E02C26"/>
<path d="M266.213 204.249C269.829 204.249 272.76 201.315 272.76 197.697C272.76 194.078 269.829 191.145 266.213 191.145C262.598 191.145 259.667 194.078 259.667 197.697C259.667 201.315 262.598 204.249 266.213 204.249Z" fill="#FADE99"/>
<path d="M278.489 213.569C280.77 213.569 282.619 211.718 282.619 209.435C282.619 207.152 280.77 205.301 278.489 205.301C276.207 205.301 274.358 207.152 274.358 209.435C274.358 211.718 276.207 213.569 278.489 213.569Z" fill="#E02C26"/>
<path d="M266.214 167.041C269.076 167.041 271.397 164.719 271.397 161.854C271.397 158.989 269.076 156.667 266.214 156.667C263.352 156.667 261.031 158.989 261.031 161.854C261.031 164.719 263.352 167.041 266.214 167.041Z" fill="#FA9652"/>
<path d="M230.402 131.2C233.265 131.2 235.585 128.877 235.585 126.012C235.585 123.148 233.265 120.825 230.402 120.825C227.54 120.825 225.22 123.148 225.22 126.012C225.22 128.877 227.54 131.2 230.402 131.2Z" fill="#FA9652"/>
<path d="M194.59 167.041C197.453 167.041 199.773 164.719 199.773 161.854C199.773 158.989 197.453 156.667 194.59 156.667C191.728 156.667 189.408 158.989 189.408 161.854C189.408 164.719 191.728 167.041 194.59 167.041Z" fill="#FA9652"/>
<path d="M230.402 202.884C233.265 202.884 235.585 200.562 235.585 197.697C235.585 194.832 233.265 192.51 230.402 192.51C227.54 192.51 225.22 194.832 225.22 197.697C225.22 200.562 227.54 202.884 230.402 202.884Z" fill="#FA9652"/>
<path d="M230.402 179.794C240.302 179.794 248.328 171.762 248.328 161.854C248.328 151.945 240.302 143.913 230.402 143.913C220.503 143.913 212.477 151.945 212.477 161.854C212.477 171.762 220.503 179.794 230.402 179.794Z" fill="#E02C26"/>
<path d="M230.402 171.917C235.955 171.917 240.456 167.412 240.456 161.854C240.456 156.297 235.955 151.792 230.402 151.792C224.85 151.792 220.349 156.297 220.349 161.854C220.349 167.412 224.85 171.917 230.402 171.917Z" fill="#FA9652"/>
</g>
<defs>
<clipPath id="clip0">
<rect x="132.359" y="63.7266" width="196.087" height="382.37" fill="white"/>
</clipPath>
</defs>
</svg>
