<svg width="346" height="451" viewBox="0 0 346 451" fill="none" xmlns="http://www.w3.org/2000/svg">
<g clip-path="url(#clip0)">
<path d="M346.001 448.443L327.955 190.965L326.46 188.739L345.529 447.99L346.001 448.443Z" fill="#56454A"/>
<path d="M345.263 450.996L258.906 200.049L256.387 203.057L344.751 450.955L345.263 450.996Z" fill="#56454A"/>
<path d="M257.595 215.959C277.648 193.109 308.291 180.931 327.401 188.514C327.401 188.514 324.042 24.0866 239.324 31.5044C131.829 40.8796 106.922 115.387 106.922 115.387C106.922 115.387 209.214 -9.21091 257.595 215.959Z" fill="#BC4B61"/>
<path d="M252.782 107.906C240.351 106.663 227.836 106.511 215.379 107.453C165.913 43.6398 106.922 115.386 106.922 115.386C106.922 115.386 131.829 40.8787 239.242 31.5035C288.402 27.2177 310.114 80.502 319.782 126.142C298.656 116.235 275.991 110.066 252.782 107.906Z" fill="#992E48"/>
<path d="M253.744 433.896L254.133 433.545L135.946 290.692L133.713 290.444L253.744 433.896Z" fill="#282230"/>
<path d="M254.666 436.842L254.952 436.45L88.1997 323.721L87.9949 326.317L254.666 436.842Z" fill="#282230"/>
<path d="M136.806 291.597C105.918 287.682 85.3938 301.508 89.8796 327.594C17.4719 286.178 -89.716 132.96 135.905 22.0025C323.489 -70.2457 335.82 155.193 327.422 188.511C323.796 146.456 306.549 18.4172 192.807 66.4473C107.536 102.444 56.4512 208.106 136.806 291.597Z" fill="#FFCA45"/>
<path d="M287.889 76.2354C294.58 71.4276 300.916 66.5855 306.897 61.709C330.658 110.234 331.477 172.295 327.38 188.573C325.23 163.188 318.081 106.648 287.889 76.2354Z" fill="#FFAC33"/>
<path d="M101.514 165.083C89.7978 205.489 97.8886 251.15 136.827 291.576C105.938 287.662 85.4144 301.487 89.9002 327.573C50.4703 305.052 0.79884 249.316 0 185.441C34.4117 181.965 68.4082 175.147 101.514 165.083Z" fill="#FFAC33"/>
<path d="M110.056 143.079L108.274 146.85C77.549 124.761 51.8223 133.189 15.854 138.896C15.854 138.917 77.3237 114.129 110.056 143.079Z" fill="#FFAC33"/>
<path d="M129.043 113.758L126.278 117.22C100.059 89.9596 75.3363 90.6601 43.7104 94.0393C43.7104 94.0393 102.005 79.3686 129.043 113.758Z" fill="#FFAC33"/>
<path d="M149.076 93.4396L144.979 97.066C133.14 60.4717 103.235 62.1201 71.0146 65.932C71.0146 65.932 133.263 47.6143 149.076 93.4396Z" fill="#FFAC33"/>
<path d="M175.52 74.9569L170.604 77.8416C168.986 40.1553 146.639 36.1167 120.666 34.798C120.666 34.798 173.328 28.6783 175.52 74.9569Z" fill="#FFAC33"/>
<path d="M206.531 61.3384L203.007 62.4923C200.857 28.3088 183.835 16.4815 169.559 15.0598C169.559 15.0598 201.41 12.3606 206.531 61.3384Z" fill="#FFAC33"/>
<path d="M3.54395 189.09C3.54395 189.09 69.438 181.59 93.6694 174.914L88.5077 205.698C58.1518 221.77 11.1022 225.705 11.1022 225.705C4.36327 214.29 3.54395 189.09 3.54395 189.09Z" fill="#FFCA45"/>
<path d="M237.439 55.8567L231.97 56.1246C231.97 56.1246 232.339 15.3681 228.365 5.64258C228.365 5.64258 234.776 17.5934 237.439 55.8567Z" fill="#FFAC33"/>
<path d="M264.211 60.4113L259.315 58.7217L274.165 24.5176L264.211 60.4113Z" fill="#FFAC33"/>
<path d="M292.724 76.4825L307.471 100.446L317.713 95.9747C315.728 85.2637 312.325 74.8687 307.594 65.0674L292.724 76.4825Z" fill="#FFCA45"/>
</g>
<defs>
<clipPath id="clip0">
<rect width="346" height="451" fill="white"/>
</clipPath>
</defs>
</svg>
