<svg width="398" height="646" viewBox="0 0 398 646" fill="none" xmlns="http://www.w3.org/2000/svg">
<g filter="url(#filter0_d)">
<path d="M19.8673 23.101C20.4445 13.992 27.633 7.00063 36.7507 6.58294C102.994 3.54826 355.288 -6.9859 380.889 7.33333C407.611 22.2797 385.921 510.679 381.6 602.524C381.194 611.134 374.793 618.195 366.246 619.316C302.883 627.629 54.0098 657.427 20.8889 617.333C-13.3199 575.923 14.0629 114.718 19.8673 23.101Z" fill="#577BA6"/>
<path d="M36.9337 10.5787C70.0442 9.06191 149.632 5.67187 224.126 4.44988C261.38 3.83876 297.308 3.77089 325.494 4.74601C339.594 5.23381 351.689 5.98056 361.017 7.03988C365.683 7.56979 369.594 8.17114 372.686 8.84109C375.831 9.52266 377.835 10.2157 378.909 10.809C378.908 10.809 378.908 10.8089 378.908 10.809C378.905 10.8133 379.226 11.061 379.74 12.0062C380.298 13.0317 380.901 14.5404 381.512 16.6065C382.733 20.7306 383.835 26.5482 384.803 33.9505C386.733 48.7216 388.056 69.232 388.883 93.8559C390.537 143.072 390.197 208.308 388.886 276.014C386.265 411.406 379.764 556.422 377.604 602.336C377.289 609.041 372.323 614.485 365.726 615.35C334.077 619.502 256.149 629.013 182.04 632.482C144.968 634.217 108.99 634.433 80.2865 631.744C65.9272 630.399 53.5283 628.339 43.7801 625.437C33.9033 622.497 27.3398 618.862 23.9727 614.786C22.3598 612.833 20.6461 609.237 19.0122 603.708C17.4069 598.276 15.9831 591.352 14.741 583.075C12.2578 566.526 10.5515 544.916 9.47758 519.728C7.33057 469.37 7.72506 405.08 9.37192 339.144C12.6651 207.293 20.958 69.1483 23.8593 23.3539C24.306 16.3035 29.8326 10.9041 36.9337 10.5787Z" stroke="#D0AA5B" stroke-width="8"/>
</g>
<defs>
<filter id="filter0_d" x="0" y="0" width="398" height="645.778" filterUnits="userSpaceOnUse" color-interpolation-filters="sRGB">
<feFlood flood-opacity="0" result="BackgroundImageFix"/>
<feColorMatrix in="SourceAlpha" type="matrix" values="0 0 0 0 0 0 0 0 0 0 0 0 0 0 0 0 0 0 127 0"/>
<feOffset dy="4"/>
<feGaussianBlur stdDeviation="2"/>
<feColorMatrix type="matrix" values="0 0 0 0 0 0 0 0 0 0 0 0 0 0 0 0 0 0 0.25 0"/>
<feBlend mode="normal" in2="BackgroundImageFix" result="effect1_dropShadow"/>
<feBlend mode="normal" in="SourceGraphic" in2="effect1_dropShadow" result="shape"/>
</filter>
</defs>
</svg>
