<svg width="529" height="1076" viewBox="0 0 529 1076" fill="none" xmlns="http://www.w3.org/2000/svg">
<path d="M495.486 630.356L502.189 624.346C501.495 623.884 486.779 612.365 485.393 611.518C482.965 610.036 480.256 609.075 477.438 608.697C474.619 608.319 471.752 608.532 469.02 609.322L465.861 610.439L450.452 606.587C444.327 619.107 438.24 631.743 431.499 643.839C438.279 647.691 446.176 651.544 446.908 652.198L446.523 655.781L461.123 670.998C461.884 670.151 462.309 669.055 462.317 667.916L462.78 669.264C463.356 670.799 464.501 672.055 465.977 672.77C466.726 673.091 467.532 673.257 468.346 673.257C469.161 673.257 469.967 673.091 470.715 672.77L473.258 671.884C474.575 671.4 475.708 670.516 476.495 669.355C477.283 668.194 477.687 666.815 477.65 665.412L478.959 668.917C479.13 669.352 479.35 669.766 479.614 670.15C484.099 667.438 488.352 664.359 492.327 660.943C492.327 660.943 492.327 660.943 492.327 660.943C496.487 657.553 500.455 653.816 504.577 649.771C506.08 648.346 507.544 646.805 509.084 645.264L495.486 630.356Z" fill="#E6B07C"/>
<path d="M441.207 691.029C443.975 691.029 446.631 689.929 448.589 687.972C450.546 686.014 451.646 683.358 451.646 680.59C451.812 674.857 453.729 669.313 457.138 664.703C460.548 660.092 465.288 656.635 470.72 654.798C476.153 652.961 482.017 652.83 487.526 654.425C493.034 656.019 497.923 659.262 501.534 663.716C506.812 670.612 507.235 678.394 507.235 689.45C507.235 709.816 507.235 730.195 507.235 750.586V1073.53H528.115V750.586C528.115 730.195 528.115 709.803 528.115 689.411C528.115 678.702 528.115 664.063 518.099 650.888C511.833 642.961 503.269 637.166 493.58 634.298C483.891 631.431 473.552 631.632 463.981 634.872C454.41 638.113 446.077 644.236 440.123 652.4C434.17 660.565 430.888 670.371 430.728 680.474C430.713 681.858 430.973 683.231 431.493 684.514C432.013 685.796 432.783 686.962 433.758 687.945C434.733 688.927 435.894 689.705 437.173 690.235C438.451 690.765 439.823 691.035 441.207 691.029V691.029Z" fill="#7B6A58"/>
<path d="M487.781 648.076C487.135 646.303 487.218 644.346 488.012 642.635C488.807 640.923 490.248 639.597 492.019 638.946L493.251 638.484C495.024 637.837 496.981 637.921 498.692 638.715C500.404 639.509 501.73 640.95 502.381 642.721L507.312 656.243C507.915 657.884 507.849 659.695 507.128 661.288C506.408 662.88 505.09 664.126 503.46 664.756L500.917 665.681C500.144 665.954 499.324 666.071 498.504 666.025C497.685 665.978 496.883 665.77 496.145 665.412C495.407 665.053 494.747 664.552 494.204 663.937C493.661 663.322 493.246 662.606 492.982 661.829L487.781 648.076Z" fill="#F5C08C"/>
<path d="M493.29 668.108C492.916 668.921 492.382 669.651 491.72 670.253C491.058 670.855 490.282 671.318 489.437 671.614L486.933 672.5C485.63 672.985 484.202 673.021 482.876 672.603C481.55 672.184 480.402 671.334 479.614 670.189C479.349 669.804 479.13 669.39 478.959 668.956L477.649 665.45L472.372 651.543C472.001 650.679 471.809 649.749 471.809 648.808C471.809 647.868 472.001 646.937 472.372 646.073C472.722 645.205 473.244 644.417 473.906 643.755C474.568 643.093 475.356 642.571 476.224 642.221L477.418 641.758C479.176 641.12 481.115 641.199 482.816 641.977C484.517 642.755 485.843 644.171 486.51 645.919L487.242 647.884V648.115L492.057 660.712L492.904 662.908C492.93 663.061 492.93 663.217 492.904 663.37C493.653 664.837 493.791 666.54 493.29 668.108V668.108Z" fill="#F5C08C"/>
<path d="M477.726 665.451C477.764 666.853 477.36 668.233 476.572 669.394C475.784 670.555 474.652 671.439 473.334 671.923L470.792 672.809C470.043 673.13 469.237 673.295 468.423 673.295C467.608 673.295 466.802 673.13 466.054 672.809C464.578 672.093 463.433 670.838 462.856 669.303L462.394 667.955L457.81 655.358C457.697 655.046 457.619 654.723 457.578 654.395C457.202 652.718 457.447 650.961 458.27 649.451C459.092 647.942 460.434 646.783 462.047 646.189L463.28 645.765C464.9 645.168 466.683 645.183 468.293 645.807C469.903 646.432 471.23 647.622 472.025 649.155C472.19 649.439 472.332 649.735 472.448 650.042L477.379 663.525C477.573 664.15 477.689 664.797 477.726 665.451V665.451Z" fill="#F5C08C"/>
<path d="M462.356 667.762C462.347 668.9 461.923 669.997 461.162 670.844C460.524 671.673 459.651 672.29 458.658 672.616L456.577 673.386C455.356 673.881 453.989 673.871 452.775 673.358C451.561 672.845 450.601 671.872 450.105 670.651L446.253 659.98C445.994 659.272 445.891 658.517 445.951 657.766C446.011 657.014 446.232 656.285 446.6 655.627C447.339 654.337 448.513 653.354 449.913 652.853L450.914 652.429C452.07 651.982 453.338 651.912 454.535 652.23C455.733 652.549 456.798 653.239 457.579 654.202C457.891 654.617 458.15 655.07 458.349 655.55L462.202 665.951C462.37 666.539 462.423 667.154 462.356 667.762Z" fill="#F5C08C"/>
<path d="M503.999 639.486L503.537 627.659C503.49 626.416 502.982 625.235 502.112 624.346V624.346C501.418 623.807 486.702 612.327 485.315 611.518C482.888 610.036 480.179 609.075 477.36 608.697C474.542 608.319 471.675 608.532 468.943 609.322L465.784 610.439L450.375 606.587C447.023 613.483 443.633 620.417 440.166 627.312L450.568 630.51C464.051 648.308 484.584 632.436 484.584 632.436L486.587 633.938C487.06 634.305 487.446 634.771 487.719 635.304C487.992 635.836 488.145 636.422 488.166 637.02V643.222C488.22 644.489 488.525 645.733 489.063 646.881C489.601 648.03 490.361 649.06 491.3 649.912C492.239 650.765 493.337 651.423 494.531 651.849C495.726 652.274 496.993 652.458 498.259 652.391H499.762C500.961 652.331 502.088 651.799 502.896 650.911C503.704 650.024 504.129 648.852 504.076 647.653L503.999 639.486Z" fill="#FFCF9F"/>
<path d="M352.95 588.287L352.333 588.48C344.389 591.232 335.678 590.717 328.114 587.047C320.55 583.377 314.754 576.853 311.999 568.91L273.476 457.385C270.724 449.442 271.239 440.73 274.909 433.166C278.579 425.602 285.103 419.806 293.046 417.052L293.662 416.859C301.606 414.107 310.318 414.622 317.881 418.292C325.445 421.962 331.242 428.486 333.996 436.429L372.519 547.953C375.272 555.897 374.756 564.609 371.086 572.173C367.416 579.736 360.892 585.533 352.95 588.287V588.287Z" fill="#FFC994"/>
<path d="M455.806 607.549L363.081 557.469C348.596 550.612 329.797 554.233 321.052 565.597L320.744 566.021C311.999 577.347 316.622 592.101 331.107 598.959L428.609 645.186C429.996 645.764 454.381 609.938 455.806 607.549Z" fill="#FFC994"/>
<path d="M314.773 835.954H315.274C329.219 837.109 339.197 854.522 337.502 874.824L324.327 1033.92L272.59 1055.54L286.459 870.625C288.115 850.361 300.828 834.837 314.773 835.954Z" fill="#FFC994"/>
<path d="M330.868 1000.92L275.112 998.248L272.808 1046.39L328.564 1049.05L330.868 1000.92Z" fill="#F9F9F9"/>
<path d="M298.517 1072.03C288.616 1072.56 278.099 1073.18 270.472 1069.14V1062.66L300.058 1058.81L298.517 1072.03Z" fill="#30302F"/>
<path d="M270.472 1062.66C323.056 1076.61 362.118 1078.3 383.884 1070.37L384.577 1062.13L271.319 1052.61L270.472 1062.66Z" fill="#30302F"/>
<path d="M271.049 1055.54C287.653 1065.75 375.062 1071.72 384.539 1061.93C384.539 1043.29 346.285 1052.45 321.168 1030.84C286.343 1000.95 271.781 1046.52 271.049 1055.54Z" fill="#57443A"/>
<path d="M306.722 693.417H307.608C331.916 693.032 351.871 709.25 352.179 729.629L354.683 889.269L265.81 890.656L263.306 731.016C263.152 710.753 282.568 693.918 306.722 693.417Z" fill="#30302F"/>
<path d="M363.775 662.331H149.393L141.072 445.754C147.544 396.675 195.467 338.659 252.289 338.659H254.292C298.247 338.659 333.496 378.608 331.724 426.646C328.603 510.627 369.284 565.522 363.775 662.331Z" fill="#5DA6E9"/>
<path d="M289.772 759.716H200.205C172.122 759.716 149.393 734.83 149.393 704.127V637.559C200.359 661.752 313.194 662.33 363.813 637.559V678.779C363.775 723.466 330.645 759.716 289.772 759.716Z" fill="#3C3C3B"/>
<path d="M219.736 852.558H220.237C234.183 853.713 244.199 869.816 242.658 888.538L230.484 1035.2L179.017 1054.65L191.691 884.301C193.271 865.655 205.829 851.363 219.736 852.558Z" fill="#FFC994"/>
<path d="M236.517 1000.88L180.76 998.207L178.457 1046.34L234.213 1049.01L236.517 1000.88Z" fill="#F9F9F9"/>
<path d="M206.561 1072.03C196.661 1072.56 186.144 1073.18 178.516 1069.14V1062.66L208.102 1058.81L206.561 1072.03Z" fill="#3C3C3B"/>
<path d="M178.439 1062.66C231.024 1076.61 270.086 1078.3 291.852 1070.37L292.545 1062.13L179.287 1052.61L178.439 1062.66Z" fill="#3C3C3B"/>
<path d="M179.056 1055.54C195.659 1065.75 283.068 1071.72 292.545 1061.93C292.545 1043.29 254.292 1052.45 229.174 1030.84C194.311 1000.95 179.788 1046.52 179.056 1055.54Z" fill="#634E42"/>
<path d="M230.87 692.84H231.794C257.335 694.15 277.174 711.755 276.134 732.095L267.852 891.543L174.433 886.689L182.715 727.241C183.794 706.939 205.329 691.491 230.87 692.84Z" fill="#3C3C3B"/>
<path d="M312.154 488.052L262.959 410.851L315.775 403.416L312.154 488.052Z" fill="#FFC994"/>
<path d="M372.673 272.553L371.941 272.245C366.548 269.895 360.385 271.628 355.222 276.444L350.253 338.081C350.792 338.468 351.358 338.816 351.948 339.121C362.349 344.437 375.409 333.882 381.149 315.506C386.889 297.131 383.036 277.869 372.673 272.553Z" fill="#F3BF8D"/>
<path d="M383.768 300.827C383.338 302.761 382.784 304.665 382.112 306.529C376.295 322.477 363.12 332.031 350.908 330.143L347.287 336.538C347.826 336.923 351.37 338.773 351.987 339.081C362.388 344.397 375.447 333.842 381.187 315.466C382.664 310.715 383.531 305.796 383.768 300.827V300.827Z" fill="#E6B181"/>
<path d="M376.564 287.344C375.629 285.651 374.131 284.34 372.329 283.636C370.528 282.932 368.538 282.881 366.703 283.491C364.458 284.452 362.61 286.151 361.463 288.307C360.139 290.696 359.265 293.307 358.882 296.011C358.481 298.766 358.365 301.554 358.536 304.333C358.536 306.798 358.844 309.109 358.921 311.19C358.998 313.27 358.921 315.042 358.921 317.045C358.832 318.645 358.587 320.232 358.189 321.784C356.802 327.446 353.759 328.833 353.99 329.642C353.99 329.642 354.26 329.873 354.683 329.873C355.306 329.828 355.905 329.615 356.417 329.257C358.595 327.76 360.209 325.576 361.001 323.055C361.703 321.218 362.181 319.304 362.426 317.353C362.426 315.658 362.696 313.809 362.696 311.999H363.004C364.061 312.5 364.955 313.287 365.585 314.272C366.188 315.47 366.53 316.783 366.587 318.124C366.587 319.357 366.587 320.435 367.049 320.936C367.512 321.437 368.513 320.936 369.361 319.164C369.872 317.866 370.088 316.47 369.995 315.078C369.902 313.686 369.501 312.331 368.821 311.113C368.309 310.051 367.448 309.197 366.383 308.693C365.318 308.188 364.112 308.063 362.966 308.339H362.658C362.406 304.577 362.483 300.8 362.889 297.052C362.972 295.284 363.459 293.559 364.314 292.009C365.169 290.459 366.368 289.127 367.82 288.114C368.945 287.617 370.202 287.502 371.399 287.787C372.596 288.072 373.666 288.742 374.446 289.694C375.762 291.394 376.6 293.416 376.873 295.549C377.142 297.206 377.065 298.246 377.373 298.361C377.682 298.477 378.221 297.552 378.452 295.511C378.709 292.657 378.048 289.795 376.564 287.344Z" fill="#CF9F74"/>
<path d="M371.595 294.009C373.02 290.156 380.186 278.407 380.648 273.437C381.706 265.283 381.771 257.03 380.841 248.86C375.486 218.041 360.539 214.189 353.874 215.075C355.608 221.123 367.473 231.37 364.391 236.417C362.636 239.389 359.917 241.673 356.687 242.888C355.102 243.732 353.862 245.101 353.18 246.761C352.498 248.421 352.416 250.267 352.95 251.98C358.231 278.038 358.883 304.822 354.876 331.107C358.304 334.959 363.967 332.532 366.433 327.794C368.73 322.534 369.734 316.801 369.361 311.075C369.106 305.299 369.862 299.524 371.595 294.009V294.009Z" fill="#EDEDED"/>
<path d="M361.694 320.514C361.788 311.68 363.23 302.911 365.97 294.511C369.27 284.184 370.985 273.417 371.055 262.576C371.055 211.186 330.182 182.794 279.755 182.794C229.328 182.794 188.455 211.186 188.455 262.576C188.625 277.596 191.822 292.427 197.855 306.184C197.855 307.34 197.547 308.457 197.47 309.612C195.544 333.651 207.486 374.871 222.009 394.363C236.532 413.856 244.853 404.225 266.003 416.823C280.911 425.721 308.378 424.989 319.203 413.856C330.028 402.723 339.004 404.495 345.938 392.938C356.802 375.294 361.694 351.025 361.694 320.514Z" fill="#FFC994"/>
<path d="M336.346 313.888C342.75 313.888 347.942 309.37 347.942 303.795C347.942 298.221 342.75 293.702 336.346 293.702C329.942 293.702 324.751 298.221 324.751 303.795C324.751 309.37 329.942 313.888 336.346 313.888Z" fill="#936037"/>
<path d="M336.346 309.688C339.793 309.688 342.587 307.05 342.587 303.794C342.587 300.539 339.793 297.9 336.346 297.9C332.899 297.9 330.105 300.539 330.105 303.794C330.105 307.05 332.899 309.688 336.346 309.688Z" fill="#3C3C3B"/>
<path d="M339.736 307.53C339.736 308.112 339.967 308.671 340.379 309.082C340.791 309.494 341.35 309.726 341.932 309.726C342.514 309.726 343.073 309.494 343.485 309.082C343.896 308.671 344.128 308.112 344.128 307.53C344.128 306.947 343.896 306.389 343.485 305.977C343.073 305.565 342.514 305.334 341.932 305.334C341.35 305.334 340.791 305.565 340.379 305.977C339.967 306.389 339.736 306.947 339.736 307.53Z" fill="white"/>
<path d="M328.025 298.556C328.025 299.373 328.35 300.157 328.928 300.735C329.506 301.313 330.29 301.637 331.107 301.637V301.637C331.924 301.637 332.708 301.313 333.286 300.735C333.864 300.157 334.189 299.373 334.189 298.556V298.556C334.189 297.738 333.864 296.954 333.286 296.376C332.708 295.798 331.924 295.474 331.107 295.474V295.474C330.29 295.474 329.506 295.798 328.928 296.376C328.35 296.954 328.025 297.738 328.025 298.556V298.556Z" fill="white"/>
<path d="M268.661 313.888C275.065 313.888 280.256 309.37 280.256 303.795C280.256 298.221 275.065 293.702 268.661 293.702C262.257 293.702 257.065 298.221 257.065 303.795C257.065 309.37 262.257 313.888 268.661 313.888Z" fill="#936037"/>
<path d="M268.661 309.688C272.108 309.688 274.902 307.05 274.902 303.794C274.902 300.539 272.108 297.9 268.661 297.9C265.214 297.9 262.42 300.539 262.42 303.794C262.42 307.05 265.214 309.688 268.661 309.688Z" fill="#3C3C3B"/>
<path d="M272.051 307.53C272.051 308.112 272.282 308.671 272.694 309.082C273.106 309.494 273.664 309.726 274.247 309.726C274.829 309.726 275.388 309.494 275.799 309.082C276.211 308.671 276.443 308.112 276.443 307.53C276.443 306.947 276.211 306.389 275.799 305.977C275.388 305.565 274.829 305.334 274.247 305.334C273.664 305.334 273.106 305.565 272.694 305.977C272.282 306.389 272.051 306.947 272.051 307.53Z" fill="white"/>
<path d="M259.608 298.554C259.608 299.402 259.945 300.215 260.544 300.815C261.144 301.414 261.957 301.751 262.805 301.751V301.751C263.653 301.751 264.467 301.414 265.066 300.815C265.666 300.215 266.003 299.402 266.003 298.554V298.554C266.003 297.706 265.666 296.893 265.066 296.293C264.467 295.693 263.653 295.356 262.805 295.356V295.356C261.957 295.356 261.144 295.693 260.544 296.293C259.945 296.893 259.608 297.706 259.608 298.554V298.554Z" fill="white"/>
<path d="M291.582 295.973C284.301 297.013 275.133 288.268 242.427 304.949C235.801 308.493 233.297 301.713 237.765 298.785C245.563 293.011 254.221 288.5 263.422 285.418C273.823 281.565 289.425 278.984 294.009 284.3C296.243 286.997 297.129 295.973 291.582 295.973Z" fill="#F6F6F6"/>
<path d="M312.192 295.395C319.011 296.243 327.91 287.267 358.42 303.1C364.584 306.413 367.126 299.671 363.004 296.898C355.83 291.422 347.781 287.202 339.197 284.416C329.489 281.064 314.85 278.753 310.382 284.108C307.993 286.65 306.914 295.549 312.192 295.395Z" fill="#F6F6F6"/>
<path d="M312.115 393.554C312.308 394.863 307.069 400.141 299.98 400.141C292.892 400.141 286.767 395.133 286.921 393.823C287.075 392.513 292.391 395.133 299.248 395.017C306.106 394.902 311.923 392.167 312.115 393.554Z" fill="#DBA97B"/>
<path d="M325.56 384.038C325.56 385.579 314.003 386.272 300.019 386.619C296.513 386.619 293.123 386.889 290.08 386.889H285.765H282.298C282.298 386.889 282.298 386.696 281.951 386.388C281.605 386.08 281.951 386.581 282.182 386.388C282.414 386.195 282.182 386.388 282.182 386.388C281.999 386.648 281.857 386.933 281.759 387.236C281.511 387.936 281.215 388.618 280.873 389.277C280.218 390.394 279.64 390.895 279.293 390.818C278.946 390.741 278.754 390.009 278.677 388.854C278.6 387.698 278.677 387.621 278.677 386.735C278.659 386.161 278.737 385.588 278.908 385.04C279.111 384.549 279.428 384.113 279.833 383.768C280.29 383.421 280.815 383.171 281.373 383.037C282.085 382.88 282.806 382.764 283.531 382.69L285.495 382.459L289.849 381.996C292.93 381.727 296.282 381.496 299.826 381.303C314.118 381.072 325.752 382.69 325.56 384.038Z" fill="#C4986E"/>
<path d="M315.89 354.183C315.235 353.875 314.503 353.644 313.81 353.413C310.971 355.916 307.31 357.288 303.524 357.265C301.19 357.278 298.882 356.769 296.769 355.776C294.657 354.783 292.792 353.33 291.313 351.525C287.388 352.226 283.594 353.526 280.064 355.377C274.869 358.112 270.463 362.133 267.266 367.057C264.069 371.98 262.189 377.641 261.804 383.499C286.357 378.252 311.643 377.378 336.5 380.918C335.6 375.085 333.237 369.574 329.634 364.9C326.03 360.225 321.302 356.539 315.89 354.183V354.183Z" fill="#F6F6F6"/>
<path d="M313.425 332.109C314.349 338.157 314.966 346.324 311.537 351.063C308.109 355.801 301.059 354.915 296.128 352.295C291.056 348.983 286.78 344.589 283.608 339.429C285.323 344.319 287.821 348.899 291.004 352.989C308.032 370.748 321.553 355.917 320.744 341.856C319.872 325.598 314.989 309.809 306.529 295.897C309.226 307.84 311.524 319.91 313.425 332.109Z" fill="#DBA97B"/>
<path d="M195.005 294.01C193.155 290.158 183.91 278.408 183.448 273.439C182.639 266.582 183.178 256.835 183.178 248.861C183.178 220.161 192.886 217.118 201.399 218.042C200.466 220.514 200.062 223.154 200.215 225.792C200.368 228.429 201.074 231.005 202.288 233.352C203.501 235.699 205.195 237.765 207.258 239.414C209.322 241.064 211.71 242.261 214.266 242.928C216.073 243.529 217.575 244.811 218.453 246.501C219.33 248.192 219.514 250.157 218.966 251.981C212.148 277.827 211.292 304.883 216.462 331.108C212.032 334.96 204.905 332.533 201.361 327.795C198.416 322.74 197.073 316.91 197.509 311.076C197.955 305.272 197.099 299.441 195.005 294.01V294.01Z" fill="#EDEDED"/>
<path d="M175.743 274.555L176.552 274.286C179.833 273.294 183.32 273.196 186.652 274.002C189.983 274.808 193.04 276.489 195.505 278.87L202.44 340.777C201.835 341.155 201.204 341.49 200.552 341.778C188.995 346.902 174.009 336 167.152 317.432C160.295 298.864 164.186 279.679 175.743 274.555Z" fill="#FFC994"/>
<path d="M163.993 302.676C164.515 304.645 165.172 306.576 165.958 308.455C172.815 324.557 187.877 334.458 201.592 332.84L205.829 339.312C205.213 339.697 201.245 341.469 200.629 341.777C189.072 346.901 174.086 335.999 167.229 317.431C165.471 312.687 164.382 307.721 163.993 302.676V302.676Z" fill="#F2BB88"/>
<path d="M171.891 289.347C173.097 287.646 174.827 286.386 176.816 285.76C178.805 285.134 180.945 285.176 182.908 285.88C185.389 286.835 187.497 288.564 188.918 290.811C190.432 293.156 191.479 295.773 192 298.515C192.471 301.146 192.652 303.82 192.539 306.49C192.539 308.955 192.308 311.267 192.231 313.347C192.154 315.427 192.231 317.199 192.231 319.202C192.367 320.823 192.677 322.425 193.155 323.979C194.85 329.912 198.472 331.337 198.24 332.146C198.24 332.146 197.971 332.377 197.47 332.339C196.772 332.28 196.099 332.056 195.505 331.684C193.087 330.219 191.219 327.999 190.189 325.366C189.321 323.58 188.686 321.69 188.301 319.742C188.301 318.047 187.955 316.198 187.878 314.349H187.531C186.387 314.807 185.398 315.582 184.68 316.583C184.031 317.765 183.674 319.086 183.64 320.435C183.64 321.668 183.64 322.747 183.178 323.247C182.716 323.748 181.521 323.247 180.558 321.398C179.951 320.121 179.672 318.712 179.746 317.3C179.82 315.887 180.245 314.516 180.982 313.308C181.64 312.217 182.633 311.368 183.814 310.889C184.995 310.41 186.299 310.326 187.531 310.65H187.878C188.038 306.955 187.844 303.253 187.3 299.594C187.129 297.733 186.52 295.939 185.523 294.358C184.525 292.778 183.167 291.457 181.56 290.503C180.318 289.968 178.943 289.822 177.616 290.083C176.289 290.344 175.072 291.001 174.125 291.967C172.691 293.601 171.779 295.627 171.505 297.784C171.236 299.44 171.505 300.48 170.966 300.596C170.427 300.711 170.003 299.748 169.695 297.706C169.365 294.744 170.147 291.765 171.891 289.347V289.347Z" fill="#DBA97B"/>
<path opacity="0.1" d="M358.844 279.409C339.642 274.887 319.977 272.624 300.25 272.667C280.55 273.716 261.04 277.064 242.118 282.645C260.199 273.669 279.935 268.515 300.096 267.505C320.288 267.395 340.287 271.447 358.844 279.409V279.409Z" fill="#1D1D1B"/>
<path opacity="0.1" d="M348.866 267.891C333.121 261.84 316.457 258.531 299.595 258.106C282.76 258.931 266.19 262.618 250.593 269.008C265.114 259.257 282.043 253.698 299.518 252.944C317.032 253.271 334.113 258.445 348.866 267.891Z" fill="#1D1D1B"/>
<path opacity="0.1" d="M341.393 252.326C328.054 248.772 314.322 246.909 300.519 246.779C286.731 247.421 273.077 249.79 259.877 253.829C272.132 246.43 286.121 242.394 300.433 242.131C314.746 241.867 328.874 245.384 341.393 252.326V252.326Z" fill="#1D1D1B"/>
<path opacity="0.1" d="M246.626 396.097C235.569 370.825 264.346 348.636 281.759 335.153C275.017 344.591 267.313 353.182 259.762 362.119C251.364 371.788 244.815 382.768 246.626 396.097Z" fill="#1D1D1B"/>
<path opacity="0.1" d="M348.096 379.415C347.094 370.67 339.158 364.507 333.958 358.112C329.275 352.381 325.172 346.199 321.707 339.659C327.66 344.229 333.132 349.392 338.041 355.068C342.007 359.173 345.215 363.946 347.518 369.168C348.019 370.285 350.292 378.606 348.096 379.415Z" fill="#1D1D1B"/>
<path opacity="0.1" d="M283.223 312.81C276.163 320.898 266.384 326.118 255.735 327.481C245.086 328.844 234.307 326.256 225.438 320.206C244.93 325.315 265.645 322.664 283.223 312.81Z" fill="#1D1D1B"/>
<path opacity="0.1" d="M278.754 321.515C276.177 326.061 272.637 329.989 268.383 333.024C264.129 336.059 259.263 338.128 254.126 339.086C248.989 340.043 243.704 339.867 238.642 338.569C233.58 337.27 228.863 334.881 224.821 331.569C233.953 334.806 243.722 335.835 253.328 334.574C262.713 332.283 271.425 327.808 278.754 321.515Z" fill="#1D1D1B"/>
<path opacity="0.1" d="M355.723 320.976C353.07 323.215 349.918 324.784 346.532 325.552C343.146 326.319 339.625 326.263 336.266 325.387C332.906 324.511 329.806 322.842 327.226 320.519C324.645 318.196 322.66 315.288 321.438 312.039C326.211 315.84 331.728 318.6 337.634 320.139C343.539 321.679 349.701 321.964 355.723 320.976V320.976Z" fill="#1D1D1B"/>
<path opacity="0.1" d="M356.802 334.111C357.072 335.421 352.141 337.539 351.447 337.77C346.837 339.075 341.916 338.721 337.54 336.769C333.823 335.273 330.439 333.056 327.582 330.246C324.726 327.436 322.454 324.089 320.898 320.396C329.836 326.945 344.744 339.234 356.802 334.111Z" fill="#1D1D1B"/>
<path d="M170.889 677.546C172.605 677.087 174.434 677.328 175.972 678.217C177.511 679.105 178.634 680.568 179.094 682.284L193.001 734.637C193.46 736.354 193.219 738.182 192.33 739.721C191.442 741.259 189.979 742.382 188.263 742.843V742.843C186.546 743.302 184.718 743.06 183.179 742.172C181.641 741.283 180.518 739.82 180.057 738.104L166.15 685.713C165.703 684.002 165.95 682.183 166.838 680.653C167.725 679.124 169.181 678.007 170.889 677.546V677.546Z" fill="#F2BC88"/>
<path d="M159.294 686.83C160.168 686.545 161.091 686.437 162.008 686.514C162.925 686.592 163.817 686.851 164.632 687.279C165.447 687.706 166.168 688.292 166.753 689.002C167.338 689.712 167.775 690.532 168.038 691.414L181.945 743.767C182.151 744.65 182.18 745.565 182.032 746.459C181.884 747.353 181.561 748.209 181.081 748.979C180.602 749.748 179.976 750.415 179.238 750.942C178.5 751.469 177.666 751.845 176.783 752.05V752.05C175.901 752.333 174.97 752.435 174.048 752.35C173.125 752.266 172.228 751.996 171.412 751.558C170.596 751.119 169.877 750.52 169.297 749.797C168.717 749.074 168.289 748.242 168.038 747.35L154.131 694.997C153.75 693.231 154.078 691.385 155.043 689.858C156.008 688.331 157.535 687.243 159.294 686.83V686.83Z" fill="#F2BC88"/>
<path d="M144.462 685.714C146.194 685.241 148.042 685.475 149.602 686.363C151.162 687.251 152.306 688.722 152.783 690.452L166.69 742.805C167.134 744.547 166.868 746.394 165.95 747.94C165.033 749.486 163.539 750.604 161.797 751.049V751.049C160.066 751.522 158.217 751.288 156.657 750.4C155.098 749.512 153.954 748.041 153.476 746.311L139.569 693.958C139.125 692.216 139.391 690.369 140.309 688.823C141.226 687.277 142.72 686.159 144.462 685.714V685.714Z" fill="#F2BC88"/>
<path d="M162.76 663.14C163.588 662.628 164.512 662.294 165.475 662.157C166.438 662.02 167.419 662.083 168.356 662.344C169.293 662.604 170.166 663.056 170.92 663.671C171.674 664.285 172.293 665.049 172.738 665.914C180.856 679.497 190.414 692.167 201.245 703.705C202.523 705.121 203.23 706.96 203.23 708.867C203.23 710.774 202.523 712.613 201.245 714.029V714.029C200.573 714.717 199.767 715.259 198.877 715.622C197.987 715.985 197.032 716.161 196.071 716.14C195.11 716.118 194.164 715.899 193.291 715.496C192.418 715.093 191.638 714.515 190.998 713.798C179.589 701.751 169.491 688.528 160.873 674.35C159.742 672.58 159.309 670.453 159.658 668.382C160.007 666.31 161.112 664.442 162.76 663.14V663.14Z" fill="#F2BC88"/>
<path d="M133.907 693.764C134.663 693.561 135.452 693.51 136.229 693.613C137.005 693.716 137.753 693.972 138.43 694.366C139.107 694.76 139.699 695.284 140.172 695.908C140.646 696.532 140.991 697.244 141.188 698.002L150.202 732.981C150.405 733.737 150.457 734.526 150.353 735.303C150.25 736.079 149.994 736.827 149.6 737.504C149.206 738.181 148.682 738.773 148.058 739.246C147.434 739.72 146.723 740.065 145.965 740.262V740.262C145.208 740.465 144.419 740.516 143.643 740.413C142.866 740.31 142.118 740.054 141.441 739.66C140.765 739.266 140.172 738.742 139.699 738.118C139.226 737.494 138.881 736.782 138.684 736.024L129.515 701.122C129.302 700.35 129.248 699.543 129.356 698.75C129.463 697.957 129.73 697.193 130.14 696.506C130.551 695.818 131.096 695.221 131.743 694.75C132.391 694.279 133.126 693.943 133.907 693.764Z" fill="#F2BC88"/>
<path d="M157.683 637.273L124.32 646.125L133.508 680.754L166.871 671.902L157.683 637.273Z" fill="#FFC994"/>
<path d="M139.454 715.3C140.212 715.103 140.923 714.758 141.547 714.285C142.171 713.811 142.695 713.219 143.089 712.542C143.483 711.865 143.739 711.117 143.843 710.341C143.946 709.565 143.895 708.775 143.691 708.019L144.269 710.138C144.5 711.001 144.901 711.809 145.449 712.515C145.997 713.221 146.681 713.81 147.459 714.248C148.238 714.686 149.097 714.964 149.985 715.065C150.872 715.166 151.771 715.089 152.629 714.838V714.838C154.345 714.377 155.808 713.254 156.696 711.716C157.585 710.177 157.826 708.349 157.367 706.632L157.868 708.597C158.328 710.313 159.451 711.776 160.99 712.664C162.529 713.553 164.357 713.794 166.073 713.335V713.335C166.957 713.13 167.79 712.747 168.522 712.21C169.254 711.673 169.869 710.993 170.33 710.212C170.791 709.43 171.088 708.563 171.204 707.663C171.32 706.763 171.252 705.849 171.004 704.976C171.465 706.692 172.588 708.155 174.126 709.043C175.665 709.932 177.493 710.173 179.21 709.714V709.714C180.926 709.254 182.389 708.131 183.277 706.592C184.166 705.054 184.407 703.225 183.948 701.509L180.443 688.218L179.826 685.868L176.321 672.655C174.956 667.653 171.677 663.389 167.193 660.786C162.708 658.183 157.379 657.451 152.359 658.748L139.608 662.138C134.556 663.492 130.249 666.798 127.634 671.327C125.018 675.857 124.309 681.24 125.663 686.292L129.168 699.505L129.785 701.855L132.211 711.062C132.409 711.816 132.752 712.524 133.223 713.145C133.694 713.766 134.282 714.288 134.955 714.681C135.627 715.075 136.371 715.332 137.143 715.438C137.915 715.544 138.7 715.497 139.454 715.3V715.3Z" fill="#FFC994"/>
<path d="M112.758 572.148L112.295 571.916C99.5441 565.56 95.4992 547.724 103.319 532.045L155.865 426.337C163.57 410.658 180.327 403.223 193.079 409.425L193.541 409.657C206.292 416.013 210.337 433.849 202.517 449.528L149.971 555.236C142.189 570.915 125.663 578.504 112.758 572.148Z" fill="#FFC994"/>
<path d="M125.932 678.587L172.16 659.325L153.284 538.593C150.433 521.412 136.141 510.163 121.387 513.515H120.847C106.093 516.828 96.4235 533.47 99.2743 550.69L125.932 678.587Z" fill="#FFC994"/>
<path d="M200.937 275.826H195.929V317.971H200.937V275.826Z" fill="#5E2128"/>
<path d="M380.686 273.669H375.678V315.813H380.686V273.669Z" fill="#5E2128"/>
<path d="M197.123 452.225L201.746 447.217L197.894 454.922C203.903 473.182 211.8 489.092 214.035 488.861C216.269 488.629 221.971 468.79 224.436 447.987L219.775 441.361L224.783 445.214C224.778 443.767 224.907 442.322 225.168 440.899L217.463 430.228L225.553 436.161C226.277 427.746 225.586 419.269 223.512 411.082C221.673 404.966 220.169 398.755 219.004 392.475L213.38 384.463L218.08 387.891C216.705 379.767 214.866 371.728 212.571 363.814L211.454 362.967L212.34 363.313C209.836 355.955 206.561 351.063 201.707 351.525C193.695 352.296 192.539 366.126 192.231 382.344L195.582 380.379L192.154 384.231C192.154 392.206 192.154 400.642 191.499 408.193L197.354 401.567L190.536 416.63C190.797 428.772 193.022 440.793 197.123 452.225V452.225Z" fill="#FADE99"/>
<path d="M196.815 451.414L209.104 430.804L224.513 448.255L219.891 441.398L224.899 445.251C224.894 443.804 225.023 442.359 225.284 440.936L217.579 430.265L225.669 436.198V429.533L216.154 418.593L206.985 408.114L199.974 420.095L192.269 433.077C193.442 439.27 194.959 445.392 196.815 451.414V451.414Z" fill="#1F0C0D"/>
<path d="M191.537 407.614L197.547 401.258L195.005 406.69L205.329 389.393L223.242 409.926C221.499 404.045 220.059 398.079 218.927 392.051L213.303 384.038L218.003 387.467L217.117 382.844L212.571 377.528L203.441 367.049L196.314 378.992L192.269 385.81C192.115 393.13 192.038 400.642 191.537 407.614Z" fill="#1F0C0D"/>
<path d="M206.985 477.688C210.183 484.545 212.995 488.975 214.189 488.86C215.383 488.744 217.386 483.852 219.197 476.186L212.532 468.481L206.985 477.688Z" fill="#1F0C0D"/>
<path d="M213.765 484.314L197.277 317.509L200.012 317.239L213.765 484.314Z" fill="#5E2128"/>
<path d="M194.465 421.715L191.306 418.093L193.695 423.679C188.918 436.508 182.908 447.641 181.29 447.448C179.672 447.255 176.282 432.963 174.972 418.055L178.478 413.432L174.626 415.898V412.854L180.404 405.419L174.549 409.272C174.252 403.209 174.982 397.14 176.706 391.32C178.232 387.016 179.518 382.63 180.558 378.183L184.411 372.597L180.982 374.909C182.194 369.279 183.725 363.723 185.566 358.267L186.375 357.65H185.72C187.685 352.642 190.151 349.137 193.425 349.522C199.126 350.215 199.589 360.154 199.396 371.634L197.239 369.824L199.55 372.636C199.55 378.299 199.204 384.193 199.55 389.74L195.428 385.233L199.781 396.212C199.41 404.946 197.614 413.56 194.465 421.715V421.715Z" fill="#FADE99"/>
<path d="M177.669 437.584C176.975 434.387 176.321 430.573 175.781 426.49L185.142 416.474L191.73 428.454C190.189 432.307 188.571 435.774 187.107 438.47L183.255 431.382L177.669 437.584Z" fill="#FADE99"/>
<path d="M183.139 432.116L177.708 437.894V437.625L183.216 431.769L187.069 438.857L183.139 432.116Z" fill="#FADE99"/>
<path d="M191.152 418.131L193.541 423.717C193.001 425.258 192.385 426.76 191.769 428.263L189.92 424.834L185.143 416.321L178.363 423.524L175.704 426.337C175.358 423.678 175.05 420.982 174.857 418.208L178.363 413.585L174.51 416.051V414.163L180.289 408L187.3 400.642L192.077 409.309L196.122 416.667C195.582 418.337 195.03 420.006 194.465 421.675L191.152 418.131Z" fill="#1F0C0D"/>
<path d="M175.743 426.336L178.401 423.524L185.181 416.32L189.958 424.988L191.807 428.416V428.686L185.143 416.358L175.743 426.336Z" fill="#5E2128"/>
<path d="M174.741 400.641C174.957 397.496 175.566 394.39 176.552 391.396C177.553 388.622 178.401 385.579 179.21 382.42L191.152 369.823L199.434 384.885V389.893L195.197 385.232L199.743 396.057C199.753 398.64 199.534 401.218 199.088 403.762L189.11 385.232L174.741 400.641Z" fill="#1F0C0D"/>
<path d="M184.449 376.797L191.152 369.554L195.929 378.222L199.435 384.578V385.233L191.152 369.824L179.595 382.498V382.036L184.449 376.797Z" fill="#1F0C0D"/>
<path d="M181.637 444.21L195.736 325.559L197.662 325.828L181.637 444.21Z" fill="#5E2128"/>
<path d="M106.016 278.485L110.253 274.209L103.281 277.714C86.6772 272.706 71.9614 265.811 72.1155 263.576C72.2696 261.342 90.3369 255.872 109.175 253.329L115.339 257.49L111.91 252.982L115.762 252.52L125.778 259.377L120.192 252.173C127.925 251.362 135.738 251.857 143.306 253.637C148.919 255.236 154.617 256.523 160.372 257.49L168.038 262.459L164.687 258.106C172.127 259.224 179.497 260.767 186.761 262.729L187.57 263.73L187.3 263.037C194.08 265.194 198.549 268.045 198.24 272.552C197.74 279.872 185.104 281.181 170.388 281.721L172.16 278.6L168.693 281.759C161.412 282.029 153.631 282.145 146.812 282.761L152.436 277.137L138.953 283.647C127.767 283.722 116.643 281.979 106.016 278.485V278.485Z" fill="#FADE99"/>
<path d="M112.064 252.983L115.492 257.49L109.213 253.329C105.707 253.83 102.202 254.369 98.8889 255.024H98.6963C93.6882 256.026 88.6802 257.143 84.7123 258.222H84.2115C77.0462 260.225 72.2308 262.074 72.1152 263.23C71.9997 264.386 76.4684 267.082 83.364 270.01H84.1345L83.287 270.357H83.5951C87.9898 272.251 92.477 273.922 97.0398 275.365H97.3865L103.358 277.329L110.33 273.824L105.977 278.1L112.488 279.872L121.81 274.132L132.597 267.429L122.773 259.724L114.491 252.79L112.064 252.983Z" fill="#1F0C0D"/>
<path d="M206.561 272.014L76.2373 263.847L206.061 273.863L206.561 272.014Z" fill="#5E2128"/>
<path d="M95.6916 226.593L101.586 223.434L93.2261 225.129C76.8922 214.766 63.332 203.248 64.0255 201.091C64.7189 198.933 85.4829 198.24 106.401 201.091L111.756 207.1L109.252 201.322L113.528 201.977L121.81 211.877L117.958 202.593C126.37 203.933 134.497 206.681 141.996 210.721C147.538 214.066 153.261 217.102 159.139 219.813L165.765 227.286L163.608 221.932C171.163 225.255 178.52 229.011 185.643 233.18L186.26 234.49V233.489C192.847 237.765 196.738 242.079 195.12 246.741C192.462 254.445 178.709 252.095 163.03 248.513L165.804 245.7L161.258 248.05C153.553 246.24 145.309 244.198 137.797 243.042L145.502 238.728L129.361 241.733C117.382 238.571 106.006 233.455 95.6916 226.593V226.593Z" fill="#FADE99"/>
<path d="M109.175 201.323L111.486 207.025L106.401 200.938C102.549 200.437 98.6965 200.052 94.8441 199.782H94.4589C88.7575 199.397 83.3257 199.166 78.7029 199.166H78.3177C70.1508 199.166 64.4878 199.936 64.0641 201.131C63.6403 202.325 67.6082 206.139 74.0801 211.532L74.9276 211.262L74.0416 211.455H74.3498C77.971 214.306 82.3241 217.58 87.101 220.778H87.4477L93.2262 224.63L101.586 222.935L95.7302 226.209C97.849 227.519 100.006 228.752 102.087 230.062L113.412 226.633L126.741 222.781L118.767 211.224L111.987 201.978L109.175 201.323Z" fill="#1F0C0D"/>
<path d="M212.687 251.48L68.5327 202.633L211.839 253.83L212.687 251.48Z" fill="#5E2128"/>
<path d="M103.782 174.01L110.754 171.891H101.47C86.6775 157.252 75.082 141.804 76.3918 139.801C77.7016 137.798 99.6983 141.804 121.04 149.547L125.239 157.252L124.238 150.433L128.591 152.128L135.217 164.802L133.368 154.093C141.928 157.469 149.859 162.261 156.828 168.27C161.856 173.025 167.142 177.501 172.661 181.676L177.669 190.998L176.706 184.912C183.897 190.174 190.778 195.846 197.316 201.9L197.624 203.403V202.363C203.595 208.372 206.716 213.92 203.904 218.35C199.473 225.708 185.335 220.237 169.233 212.725L172.777 210.414L167.576 211.878C159.872 208.026 151.628 204.173 144.039 200.937L153.014 198.164L135.255 197.547C123.56 191.455 112.931 183.506 103.782 174.01V174.01Z" fill="#FADE99"/>
<path d="M124.237 150.472L125.354 157.098L121.155 149.393C117.11 148.045 113.065 146.697 109.213 145.541H108.828C102.857 143.73 97.2709 142.266 92.3399 141.226H91.9547C83.287 139.377 77.1618 138.838 76.5454 139.955C75.929 141.072 79.242 146.08 84.5582 153.014L84.8279 153.323C87.9868 157.175 91.8006 161.644 96.1152 166.151L96.4234 166.459L101.431 171.775H110.715L103.743 173.894C105.63 175.743 107.595 177.746 109.598 179.364L122.388 178.401L137.219 177.207L131.518 163.262L126.51 151.435L124.237 150.472Z" fill="#1F0C0D"/>
<path d="M222.934 228.558L80.6675 142.305L221.971 231.139L222.934 228.558Z" fill="#5E2128"/>
<path d="M130.863 128.745L138.221 128.475L129.207 125.971C118.459 107.827 110.985 89.7979 112.796 88.1029C114.606 86.4079 135.178 96.0387 154.093 109.021L156.25 117.689L156.866 110.909L160.719 113.682L163.993 127.82L164.879 116.88C172.383 122.439 178.895 129.224 184.141 136.95C187.881 142.884 191.945 148.607 196.314 154.093L198.857 164.61L199.396 158.138C205.118 165.145 210.43 172.476 215.306 180.096V181.637L215.691 180.636C220.006 188.071 221.624 194.234 217.733 197.933C211.3 204.058 199.088 194.966 185.528 183.602L189.573 182.254H183.794C177.129 176.591 170.157 170.697 163.723 165.496L173.239 165.111L155.98 160.103C145.952 151.091 137.468 140.498 130.863 128.745V128.745Z" fill="#FADE99"/>
<path d="M156.828 110.947L156.212 117.727L154.054 109.059C150.549 106.671 146.966 104.359 143.46 102.241H143.075C137.72 98.9276 132.481 96.0769 128.013 93.7655H127.627C119.615 89.9132 113.72 87.6018 112.565 88.7575C111.409 89.9132 113.412 95.6917 117.072 103.82V104.013C119.114 108.635 121.772 114.029 124.777 119.422V119.807L128.629 126.395L137.643 128.899L130.285 129.168C131.672 131.48 133.136 133.791 134.639 136.026L147.39 138.337L162.452 141.111L160.334 126.241L159.332 112.68L156.828 110.947Z" fill="#1F0C0D"/>
<path d="M233.836 212.803L116.301 91.8013L231.678 214.729L233.836 212.803Z" fill="#5E2128"/>
<path d="M168.577 88.3333L176.282 89.8743L167.576 84.7507C161.142 63.6399 158.061 43.5308 160.256 42.3751C162.452 41.2194 180.982 55.9738 197.008 73.8871V83.2097L199.473 76.6993L202.671 80.5516V95.6142L206.292 84.7507C212.584 92.2217 217.572 100.7 221.046 109.829C223.223 116.889 225.796 123.822 228.751 130.593V141.611L230.908 135.293C234.965 143.826 238.528 152.585 241.579 161.527L241.117 163.068L241.772 162.105C244.276 170.696 244.43 177.168 239.576 180.211C231.563 184.834 221.316 172.507 210.452 157.675L214.921 157.328L209.219 155.98C203.865 148.622 198.279 140.571 192.77 133.945L202.786 135.832L186.491 126.356C178.481 114.746 172.43 101.901 168.577 88.3333V88.3333Z" fill="#FADE99"/>
<path d="M199.473 76.6228L197.162 83.3259V74.0418C194.195 70.7288 191.152 67.4543 188.147 64.4495L187.801 64.1028C182.985 59.4415 178.439 55.1654 174.394 51.8139L174.048 51.5057C166.921 45.4575 161.489 41.8363 160.334 42.3757C159.178 42.915 159.486 49.5795 161.181 58.8251L162.067 59.2103L161.181 58.8251V59.2874C162.144 64.2954 163.531 70.5747 165.226 76.931V77.3933C165.881 79.8973 166.613 82.4013 167.383 85.0979L175.743 90.1445L168.038 88.6035C168.886 91.3002 169.81 93.9583 170.812 96.6164L183.447 102.125L198.086 108.636L199.743 92.7255L201.13 79.2424L199.473 76.6228Z" fill="#1F0C0D"/>
<path d="M253.637 201.284L162.915 47.1914L250.825 202.324L253.637 201.284Z" fill="#5E2128"/>
<path d="M217.425 63.2173L224.282 66.6844L217.271 59.8658C216.577 37.792 218.735 17.4903 221.123 16.8739C223.512 16.2575 237.611 35.365 248.513 57.0151L246.163 66.0295L250.016 60.174L252.134 64.6427L248.089 79.243L254.638 69.3425C258.763 78.1784 261.368 87.6466 262.343 97.3489C262.774 104.658 263.61 111.937 264.847 119.153L261.996 130.055L265.849 124.546C267.569 133.831 268.753 143.208 269.393 152.63L268.545 154.017L269.393 153.246C269.393 162.222 268.044 168.655 262.574 170.158C253.637 172.546 246.934 158.061 240.269 140.88L244.699 141.689L239.691 138.877C236.378 130.363 233.065 121.272 229.675 113.336L238.651 117.766L224.667 104.36C220.037 91.1295 217.591 77.2336 217.425 63.2173V63.2173Z" fill="#FADE99"/>
<path d="M250.17 59.9041L246.318 65.7596L248.667 56.7452C246.703 52.8929 244.815 49.0405 242.465 45.1882V44.803C239.152 39.1015 235.878 33.8239 232.873 29.3937V29.047C227.557 21.3423 223.242 16.4499 221.855 16.7966C220.468 17.1433 219.197 23.5767 218.427 32.8993L219.236 33.5542L218.427 32.8993V33.3616C218.042 38.6393 217.772 44.9186 217.772 51.429V59.75L224.629 66.6842L217.772 63.2171C217.772 66.0293 218.119 68.88 218.311 71.6922L228.635 80.2829L241.04 90.2989L246.741 75.2363L251.749 62.6007L250.17 59.9041Z" fill="#1F0C0D"/>
<path d="M270.009 193.118L222.664 22.0366L267.312 194.235L270.009 193.118Z" fill="#5E2128"/>
<path d="M270.163 45.6886L276.173 51.0048L271.165 42.3756C276.134 20.2247 283.801 0 286.574 0C289.348 0 298.131 23.1139 303.37 47.6532L298.362 56.1283L303.948 51.1203C304.295 52.8154 304.603 54.5489 304.834 56.1283L296.744 69.727L305.643 61.6372C307.409 71.581 307.5 81.7499 305.913 91.7238C304.353 99.2184 303.209 106.793 302.484 114.414L296.667 124.43L301.675 119.884C300.962 129.71 299.676 139.486 297.823 149.162L296.629 150.318L297.669 149.817C295.473 158.908 292.083 164.879 286.112 164.879C276.443 164.879 273.63 148.469 271.512 129.322L275.711 131.326L271.242 127.127C270.24 117.65 269.354 107.557 267.89 98.6195L275.595 105.477L265.926 88.6034C265.027 74.1638 266.458 59.6735 270.163 45.6886V45.6886Z" fill="#FADE99"/>
<path d="M304.025 51.2744L298.439 56.2824L303.447 47.8073C302.484 43.2616 301.405 38.7158 300.288 34.4012V33.939C298.516 27.2744 296.436 21.1107 294.779 15.8716V15.4093C290.927 6.04815 287.999 0 286.497 0C284.995 0 281.99 6.08667 278.792 15.4093L279.409 16.2568L278.715 15.4093V15.7945C276.866 20.8025 274.863 27.3515 273.206 33.8619V34.3242C272.513 36.9438 271.858 39.6019 271.203 42.2985L276.211 51.0818L270.202 45.7656C269.547 48.6934 269.007 51.5826 268.507 54.4333L276.828 65.9903L286.612 79.4734L296.629 65.9903L304.795 54.6645C304.431 53.5615 304.173 52.4264 304.025 51.2744V51.2744Z" fill="#1F0C0D"/>
<path d="M288 188.764L286.497 5.62451L284.764 189.226L288 188.764Z" fill="#5E2128"/>
<path d="M325.367 53.9339L329.643 60.3673L326.985 50.9291C337.54 31.5904 349.406 15.141 352.064 15.95C354.722 16.759 357.072 40.2196 355.916 64.2196L349.097 70.73L355.454 67.6097C355.454 69.2662 355.184 70.9227 355.068 72.6177L344.128 83.2116L354.144 78.2035C353.313 87.9197 350.851 97.4266 346.863 106.326C343.569 112.849 340.637 119.55 338.08 126.396L330.144 134.37L336.115 131.443C332.959 140.352 329.293 149.073 325.136 157.561L323.749 158.332H324.866C320.552 166.036 315.929 171.006 310.536 169.581C301.598 167.192 302.831 151.282 305.836 133.061L309.264 135.988L306.105 130.98C307.492 121.966 309.226 112.412 309.958 103.744L315.544 112.027L310.574 93.8055C313.266 79.7883 318.265 66.3149 325.367 53.9339V53.9339Z" fill="#FADE99"/>
<path d="M355.377 67.6086L349.097 70.7289L355.685 64.1029C355.685 59.6342 356.032 55.2426 356.07 50.9665V50.5042C356.203 44.4742 355.985 38.4414 355.415 32.4368V31.936C354.645 22.6134 353.412 16.18 351.987 15.8333C350.561 15.4866 346.285 20.3406 340.969 28.0837L341.316 29.0468L340.969 28.0837V28.4304C337.964 32.7836 334.651 38.0612 331.377 43.8397V44.225C330.067 46.4978 328.834 48.7707 327.524 51.1591L330.182 60.5973L325.983 53.9328C324.674 56.4368 323.441 58.9408 322.131 61.6375L327.139 74.3116L332.841 89.3742L345.245 79.4352L355.762 70.9216C355.233 69.9015 355.096 68.7228 355.377 67.6086Z" fill="#1F0C0D"/>
<path d="M306.722 190.304L350.446 21.0332L303.794 189.688L306.722 190.304Z" fill="#5E2128"/>
<path d="M377.797 70.7275L379.916 78.0084V67.9924C394.978 51.8897 410.734 39.1 413.123 40.4097C415.511 41.7195 411.736 65.1802 404.263 88.0245L396.173 92.7243L403.145 91.376L401.489 96.0373L388.314 103.472L399.563 101.161C396.221 110.262 391.377 118.739 385.232 126.24C380.357 131.721 375.792 137.47 371.556 143.459L361.887 149.469L368.359 148.159C363.018 155.949 357.23 163.422 351.023 170.541L349.483 170.888H350.6C344.436 177.206 338.735 181.058 333.688 178.015C325.675 173.392 331.184 158.406 338.696 141.495L341.239 145.347L339.544 139.684C343.396 131.325 347.248 122.58 350.446 114.605L353.643 124.044V105.167C359.757 92.4436 367.916 80.8092 377.797 70.7275V70.7275Z" fill="#FADE99"/>
<path d="M403.261 91.5312L396.288 92.8795L404.378 88.1797C405.765 83.9807 407.036 79.7046 408.23 75.5441V75.0818C409.925 68.7255 411.351 62.6773 412.275 57.4382V56.9759C413.97 47.7303 414.394 41.2199 413.123 40.5265C411.852 39.833 406.458 43.3772 399.331 49.5024V50.504V49.5024L399.023 49.8106C395.171 53.2776 390.433 57.5152 385.771 62.138L385.425 62.4847C383.614 64.3338 381.572 66.337 379.954 68.1476V78.1637L377.566 70.8828C375.678 72.9245 373.714 75.0818 371.98 77.2391L373.367 90.7222L375.062 106.363L389.662 99.8522L402.067 94.3434L403.261 91.5312Z" fill="#1F0C0D"/>
<path d="M321.707 196.47L324.173 197.972L410.735 45.1504L321.707 196.47Z" fill="#5E2128"/>
<path d="M420.982 104.976L421.675 112.295L423.678 103.126C441.168 91.3384 458.773 83.0559 460.545 84.5583C462.317 86.0607 453.919 107.326 442.054 126.934L433.463 129.592H440.243L437.701 133.444L423.794 137.489L434.773 137.759C429.701 145.586 423.345 152.501 415.974 158.215C410.254 162.275 404.762 166.647 399.524 171.313L389.508 174.472H395.865C389.19 180.587 382.167 186.311 374.831 191.614H373.29L374.33 191.923C367.165 196.622 361.078 198.626 357.187 194.927C350.715 188.918 359.036 176.128 369.63 161.99L371.248 165.842L370.902 160.218C375.91 153.207 381.842 145.926 386.311 138.992L387.274 148.468L391.473 131.21C399.839 120.94 409.803 112.082 420.982 104.976V104.976Z" fill="#FADE99"/>
<path d="M440.243 129.901H433.463L442.054 127.127C444.25 123.275 446.368 119.808 448.256 116.186V115.801C451.222 110.215 453.842 104.899 455.961 100.392V100.007C459.505 91.7627 461.316 85.8302 460.314 84.9441C459.312 84.0581 453.495 86.2154 445.521 90.2989V91.2619V90.2989C441.014 92.6488 435.89 95.6151 430.458 98.9281H430.073L423.755 103.05L421.752 112.219L421.059 104.899C418.863 106.44 416.629 108.02 414.471 109.676L412.853 122.581L410.734 137.567L425.797 134.832L438.548 132.366L440.243 129.901Z" fill="#1F0C0D"/>
<path d="M340.43 211.378L342.279 213.497L456.962 88.335L340.43 211.378Z" fill="#5E2128"/>
<path d="M455.267 145.156L454.112 152.321L458.311 144.077C477.958 137.259 496.834 133.56 498.144 135.641C499.454 137.721 486.047 155.711 469.791 171.467L460.969 171.853L467.402 173.74L463.935 176.899L449.643 177.284L460.044 180.289C453.245 186.579 445.43 191.672 436.93 195.352C430.452 197.789 424.112 200.58 417.938 203.711L407.383 204.174L413.393 205.984C405.51 210.147 397.394 213.852 389.085 217.079L387.621 216.694L388.507 217.233C380.494 219.93 374.215 220.276 371.364 215.769C366.703 208.411 377.874 198.318 391.434 187.416L391.935 191.615L392.975 186.145C399.755 181.06 406.882 175.358 413.046 169.888L411.582 179.21L420.173 163.262C430.809 155.359 442.663 149.244 455.267 145.156V145.156Z" fill="#FADE99"/>
<path d="M467.325 173.738L460.815 171.851L469.636 171.466C472.641 168.538 475.608 165.533 478.381 162.605L478.689 162.259C482.966 157.713 486.702 153.283 489.823 149.315L490.323 149.007C495.331 142.072 498.799 136.833 498.028 135.446C497.258 134.06 491.21 134.907 482.619 136.833L482.272 137.719L482.619 136.833H482.234C477.226 137.95 471.717 139.453 465.746 141.302H465.36L458.272 143.652L454.073 151.896L455.344 145.193C452.84 146.079 450.336 147.08 447.871 148.12L443.094 160.024L437.47 174.008L452.532 175.01L465.36 175.626L467.325 173.738Z" fill="#1F0C0D"/>
<path d="M351.794 226.208L353.258 228.52L493.714 138.221L351.794 226.208Z" fill="#5E2128"/>
<path d="M471.332 197.47L468.712 203.673L474.298 197.162C493.56 195.275 511.28 195.968 511.974 198.125C512.667 200.283 496.911 213.535 478.767 224.244L470.754 222.703L476.109 225.823L472.256 227.942L459.312 225.246L468.057 230.254C460.596 234.365 452.495 237.191 444.096 238.613C437.731 239.4 431.416 240.544 425.181 242.042L415.55 240.193L420.558 243.12C412.565 245.153 404.462 246.722 396.288 247.82L395.017 247.05L395.711 247.743C388.006 248.437 382.15 247.435 380.648 242.735C377.99 235.031 389.971 228.443 405.033 221.663L404.571 225.515L406.536 220.661C413.739 217.31 421.598 213.881 428.186 210.337L425.065 218.504L435.967 206.177C447.206 201.377 459.15 198.436 471.332 197.47Z" fill="#FADE99"/>
<path d="M476.224 225.708L470.87 222.588L478.882 224.129C482.234 222.126 485.508 220.084 488.629 218.004H488.975C493.394 215.143 497.663 212.057 501.765 208.758H502.073C508.507 203.75 512.513 199.628 512.089 198.472C511.666 197.317 506.08 196.508 497.836 196.431L497.335 197.201L497.836 196.431H497.451C492.828 196.431 487.435 196.431 481.656 196.931H481.271L474.414 197.471L468.52 204.174L471.139 197.972L463.82 198.973L456.963 208.488L448.95 220.045L462.24 224.167L473.566 227.673L476.224 225.708Z" fill="#1F0C0D"/>
<path d="M363.043 247.472L364.006 249.783L507.621 199.703L363.043 247.472Z" fill="#5E2128"/>
<path d="M468.519 248.589L464.975 253.597L471.254 248.936C488.667 251.093 504.307 255.369 504.5 257.411C504.692 259.453 487.896 268.082 469.829 273.976L463.01 270.855L467.171 274.708L463.319 275.825L452.339 270.855L459.042 277.019C451.541 279.192 443.726 280.078 435.929 279.639C430.13 279.058 424.304 278.801 418.478 278.868L410.041 275.016L413.893 278.637C406.416 278.899 398.931 278.732 391.473 278.136L390.471 277.366L390.972 278.136C383.884 277.173 378.991 275.132 378.529 270.663C377.72 263.343 390.086 259.876 404.301 256.756L403.145 260.107L405.996 256.255C413.123 254.753 420.635 253.25 427.299 251.247L422.754 257.719L435.197 249.205C446.197 247.189 457.452 246.981 468.519 248.589Z" fill="#FADE99"/>
<path d="M466.978 274.746L462.856 270.894L469.675 273.899C473.027 272.782 476.378 271.626 479.691 270.432H480.076C485.084 268.583 489.514 266.579 493.328 264.807H493.636C500.339 261.61 504.77 258.836 504.616 257.681C504.461 256.525 499.608 254.714 492.365 252.981L491.749 253.52L492.365 252.981H492.018C487.896 251.979 483.081 251.016 477.919 250.207H477.534L471.331 249.36L465.052 254.021L468.596 249.013L461.893 248.396L453.88 255.6L444.442 264.075L455.344 270.047L464.667 275.401L466.978 274.746Z" fill="#1F0C0D"/>
<path d="M370.632 270.356C370.726 271.078 370.894 271.788 371.133 272.475L500.455 257.836L370.632 270.356Z" fill="#5E2128"/>
<path d="M288.539 168.384H288.038C221.123 168.731 192.038 235.453 192.038 282.297C202.863 283.492 193.078 280.988 206.369 282.914C213.341 252.095 237.534 212.686 288.269 212.686C339.004 212.686 363.235 251.826 370.208 282.875C383.499 280.988 373.714 283.492 384.539 282.259C384.616 235.453 355.454 168.77 288.539 168.384Z" fill="#E02C26"/>
<path d="M376.063 274.362C366.047 239.691 338.388 201.168 288.423 201.168C238.458 201.168 210.491 239.691 200.436 274.362H200.089C203.133 231.37 230.908 176.552 287.999 176.244H288.462C345.746 176.552 373.213 231.409 376.372 274.362H376.063Z" fill="#1FA3AB"/>
<path d="M378.531 296.807C384.847 296.634 389.827 291.373 389.654 285.056C389.481 278.74 384.22 273.759 377.904 273.933C371.587 274.106 366.607 279.367 366.78 285.683C366.953 292 372.214 296.98 378.531 296.807Z" fill="#FA9652"/>
<path d="M209.823 285.704C209.996 279.388 205.016 274.127 198.7 273.954C192.383 273.781 187.122 278.761 186.949 285.078C186.776 291.394 191.756 296.655 198.073 296.828C204.389 297.001 209.65 292.021 209.823 285.704Z" fill="#FA9652"/>
<path d="M378.425 293.36C382.827 293.24 386.299 289.574 386.179 285.171C386.059 280.769 382.393 277.297 377.99 277.417C373.588 277.537 370.116 281.203 370.236 285.606C370.356 290.008 374.022 293.48 378.425 293.36Z" fill="#E02C26"/>
<path d="M206.352 285.621C206.471 281.219 202.999 277.553 198.596 277.434C194.194 277.315 190.528 280.787 190.409 285.19C190.29 289.592 193.762 293.258 198.165 293.377C202.567 293.496 206.233 290.024 206.352 285.621Z" fill="#E02C26"/>
<path d="M378.318 289.323C380.487 289.262 382.196 287.454 382.136 285.285C382.075 283.116 380.268 281.406 378.098 281.467C375.929 281.528 374.22 283.335 374.28 285.505C374.341 287.674 376.148 289.383 378.318 289.323Z" fill="#1FA3AB"/>
<path d="M202.342 285.576C202.402 283.407 200.693 281.599 198.523 281.539C196.354 281.478 194.547 283.188 194.486 285.357C194.425 287.526 196.135 289.334 198.304 289.394C200.473 289.455 202.281 287.746 202.342 285.576Z" fill="#1FA3AB"/>
<path d="M374.291 268.545L376.14 270.433C376.003 268.246 375.719 266.071 375.293 263.923L371.248 259.723L372.866 252.019C371.826 247.974 370.593 243.929 369.014 239.923L358.689 238.228C359.717 239.691 360.718 241.181 361.694 242.696L370.323 244.083L368.359 253.984C370.639 258.709 372.62 263.572 374.291 268.545V268.545Z" fill="#FADE99"/>
<path d="M358.728 238.112L362.041 223.936C361.001 221.971 359.884 220.083 358.728 218.119L345.245 221.393L346.208 201.322C344.693 199.73 343.139 198.189 341.547 196.7L326.754 206.716L325.136 184.912C323.441 184.025 321.63 183.139 319.82 182.369L303.64 198.356L292.083 175.974H287.653L300.905 201.592L305.335 202.363L321.322 186.452L322.825 208.025C324.699 208.873 326.523 209.759 328.295 210.684L342.24 201.014L341.393 219.236C343.499 220.931 345.528 222.741 347.479 224.667L358.459 221.971L355.685 233.797L358.728 238.112Z" fill="#FADE99"/>
<path d="M202.709 268.546L200.86 270.433C200.974 268.244 201.257 266.068 201.707 263.923L205.752 259.724L204.134 252.019C205.174 247.974 206.407 243.929 207.987 239.923L218.118 238.112C217.078 239.576 216.077 241.079 215.113 242.581L206.561 243.968L208.603 253.984C206.333 258.709 204.364 263.572 202.709 268.546V268.546Z" fill="#FADE99"/>
<path d="M218.118 238.11L214.805 223.934C215.846 221.969 216.963 220.081 218.118 218.117L231.679 221.43L230.716 201.359C232.218 199.741 233.759 198.239 235.377 196.736L250.17 206.752L251.711 184.871C253.406 183.985 255.216 183.099 257.027 182.329L273.168 198.393L284.725 176.357H289.194L275.903 201.975L271.473 202.746L255.563 186.836L254.061 208.024C252.186 208.871 250.362 209.757 248.59 210.682L234.606 201.089L235.492 219.58C233.395 221.284 231.389 223.098 229.483 225.012L218.504 222.316L221.277 234.142C220.25 235.375 219.197 236.698 218.118 238.11Z" fill="#FADE99"/>
<path d="M196.507 335.691C199.464 335.691 201.862 333.294 201.862 330.336C201.862 327.379 199.464 324.981 196.507 324.981C193.55 324.981 191.152 327.379 191.152 330.336C191.152 333.294 193.55 335.691 196.507 335.691Z" fill="#1FA3AB"/>
<path d="M199.473 326.446C203.388 326.446 206.561 323.273 206.561 319.358C206.561 315.443 203.388 312.27 199.473 312.27C195.558 312.27 192.385 315.443 192.385 319.358C192.385 323.273 195.558 326.446 199.473 326.446Z" fill="#E02C26"/>
<path d="M379.492 452.223L374.869 447.215L378.722 454.92C372.712 473.18 364.815 489.09 362.58 488.859C360.346 488.627 354.645 468.788 352.179 447.985L356.802 441.398L351.794 445.25C351.798 443.803 351.669 442.359 351.409 440.936L359.113 430.265L351.023 436.197C350.302 427.782 350.992 419.306 353.065 411.119C354.905 405.003 356.41 398.792 357.572 392.512L363.197 384.499L358.497 387.928C359.87 379.803 361.709 371.764 364.006 363.851L365.123 363.003L364.237 363.35C366.856 355.645 370.092 350.945 375.139 351.369C383.152 352.14 384.308 365.97 384.616 382.188L381.264 380.223L384.693 384.075C384.693 392.05 384.693 400.486 385.348 408.037L379.184 401.603L386.003 416.666C385.765 428.792 383.566 440.8 379.492 452.223Z" fill="#FADE99"/>
<path d="M379.916 451.415L367.627 430.613L352.218 448.257L356.802 441.399L351.794 445.252C351.798 443.805 351.67 442.36 351.409 440.937L359.113 430.266L351.024 436.199V429.534L360.654 418.632L369.784 408.154L376.911 420.096L384.616 433.078C383.393 439.274 381.824 445.396 379.916 451.415V451.415Z" fill="#1F0C0D"/>
<path d="M385.078 407.614L379.068 401.258L381.534 406.69L371.21 389.393L353.296 409.926C355.039 404.045 356.479 398.079 357.611 392.051L363.235 384.038L358.535 387.467L359.421 382.844L364.044 377.528L373.174 367.049L380.301 378.992L384.346 385.81C384.5 393.13 384.577 400.642 385.078 407.614Z" fill="#1F0C0D"/>
<path d="M369.63 477.688C366.433 484.545 363.621 488.975 362.465 488.86C361.309 488.744 359.267 483.852 357.457 476.186L364.275 468.481L369.63 477.688Z" fill="#1F0C0D"/>
<path d="M362.85 484.314L379.338 317.509L376.603 317.239L362.85 484.314Z" fill="#5E2128"/>
<path d="M382.343 421.715L385.502 418.094L383.114 423.756C387.89 436.585 393.9 447.718 395.518 447.525C397.136 447.333 400.526 433.041 401.836 418.132L398.33 413.509L402.183 415.975V412.931L396.404 405.496L402.26 409.349C402.618 403.297 401.954 397.228 400.295 391.397C398.768 387.093 397.482 382.707 396.443 378.261L392.244 372.675L395.672 374.986C394.448 369.33 392.904 363.748 391.049 358.267L390.086 357.728H390.741C388.776 352.72 386.311 349.214 383.036 349.599C377.335 350.293 376.873 360.232 377.065 371.712L379.415 370.209L377.104 373.021C377.104 378.684 377.451 384.578 377.104 390.126L381.226 385.503L377.027 396.443C377.423 405.099 379.218 413.633 382.343 421.715V421.715Z" fill="#FADE99"/>
<path d="M398.946 437.584C399.64 434.387 400.294 430.573 400.834 426.49L391.473 416.474L385.039 428.57C386.4 431.989 387.943 435.333 389.662 438.586L393.514 431.498L398.946 437.584Z" fill="#FADE99"/>
<path d="M393.476 432.116L398.908 437.894V437.625L393.399 431.769L389.547 438.857L393.476 432.116Z" fill="#FADE99"/>
<path d="M385.463 418.131L383.036 423.756C383.601 425.296 384.192 426.812 384.808 428.301L386.657 424.873L391.473 416.321L398.253 423.524L400.911 426.337C401.258 423.678 401.566 420.982 401.758 418.208L398.253 413.585L402.105 416.051V414.163L396.327 408L389.392 400.642L384.616 409.309L380.571 416.667C381.11 418.337 381.662 420.006 382.227 421.675L385.463 418.131Z" fill="#1F0C0D"/>
<path d="M400.872 426.336L398.214 423.524L391.473 416.32L386.696 424.988L384.847 428.416V428.686L391.511 416.358L400.872 426.336Z" fill="#5E2128"/>
<path d="M401.913 400.641C401.696 397.484 401.088 394.365 400.102 391.357C399.101 388.584 398.253 385.54 397.444 382.381L385.579 369.823L377.296 384.885V389.893L381.418 385.271L376.873 396.173C376.857 398.755 377.076 401.334 377.528 403.877L387.621 385.232L401.913 400.641Z" fill="#1F0C0D"/>
<path d="M392.32 376.796L385.54 369.592L380.763 378.26L377.296 384.616V385.233L385.617 369.823L397.444 382.42V382.151L392.32 376.796Z" fill="#1F0C0D"/>
<path d="M395.056 444.21L380.879 325.559L378.991 325.828L395.056 444.21Z" fill="#5E2128"/>
<path d="M380.109 335.691C383.066 335.691 385.463 333.294 385.463 330.336C385.463 327.379 383.066 324.981 380.109 324.981C377.151 324.981 374.754 327.379 374.754 330.336C374.754 333.294 377.151 335.691 380.109 335.691Z" fill="#1FA3AB"/>
<path d="M377.142 326.446C381.057 326.446 384.231 323.273 384.231 319.358C384.231 315.443 381.057 312.27 377.142 312.27C373.228 312.27 370.054 315.443 370.054 319.358C370.054 323.273 373.228 326.446 377.142 326.446Z" fill="#E02C26"/>
</svg>
