<svg width="415" height="454" viewBox="0 0 415 454" fill="none" xmlns="http://www.w3.org/2000/svg">
<path d="M126.832 255.522H122.186V294.555H126.832V255.522Z" fill="#5E2128"/>
<path d="M293.372 253.525H288.725V292.558H293.372V253.525Z" fill="#5E2128"/>
<path d="M123.301 418.948L127.576 414.302L124.184 421.457C129.76 438.372 137.055 453.102 139.146 452.916C141.237 452.73 146.488 434.329 148.765 415.045L144.443 408.911L149.09 412.304C149.09 410.971 149.214 409.639 149.462 408.307L142.306 398.41L149.787 403.893C150.453 396.096 149.809 388.243 147.882 380.659C146.177 374.993 144.781 369.238 143.7 363.42L138.496 355.985L142.864 359.145C141.587 351.619 139.881 344.172 137.752 336.841L136.73 336.051L137.566 336.376C135.243 329.546 132.223 325.038 127.715 325.457C120.281 326.154 119.212 338.978 118.933 353.894L122.046 352.082L118.887 355.66C118.887 363.048 118.887 370.855 118.283 377.871L123.719 371.738L117.4 385.678C117.546 397.015 119.539 408.253 123.301 418.948Z" fill="#FADE99"/>
<path d="M123.022 418.205L134.407 399.107L148.719 415.277L144.444 408.911L149.09 412.303C149.09 410.971 149.214 409.639 149.462 408.307L142.306 398.41L149.787 403.893C149.787 401.895 149.787 399.897 149.787 397.945L140.959 387.815L132.455 378.104L125.95 389.209L118.794 401.244C119.887 406.972 121.298 412.634 123.022 418.205Z" fill="#1F0C0D"/>
<path d="M118.143 377.636L123.719 371.735L121.442 376.753L131.014 360.722L147.603 379.727C145.99 374.285 144.656 368.763 143.607 363.185L138.403 355.75L142.771 358.91L141.934 354.635L137.613 349.663L129.156 339.951L122.557 351.01L118.794 357.33C118.654 364.207 118.608 371.27 118.143 377.636Z" fill="#1F0C0D"/>
<path d="M132.456 442.646C135.43 449.012 138.032 453.101 139.147 453.008C140.263 452.915 142.121 448.361 143.794 441.252L137.614 434.003L132.456 442.646Z" fill="#1F0C0D"/>
<path d="M138.728 448.686L123.44 294.137L125.996 293.904L138.728 448.686Z" fill="#5E2128"/>
<path d="M120.839 390.695L117.912 387.35L120.142 392.507C115.728 404.403 110.152 414.719 108.665 414.533C107.178 414.347 104.018 401.104 102.81 387.303L106.062 383.028L102.67 385.305C102.67 384.376 102.67 383.4 102.67 382.47L108.014 375.593L102.577 379.311C102.305 373.693 102.98 368.069 104.576 362.676C105.946 358.684 107.094 354.62 108.014 350.501L111.546 345.343L108.386 347.481C109.491 342.153 110.902 336.893 112.614 331.728L113.358 331.171H112.754C114.566 326.524 116.843 323.271 120.049 323.643C125.346 324.294 125.765 333.494 125.579 344.135L123.395 342.741L125.532 345.343C125.532 350.594 125.207 356.17 125.532 361.189L121.722 356.914L125.765 367.09C125.418 375.174 123.754 383.147 120.839 390.695Z" fill="#FADE99"/>
<path d="M105.272 405.378C104.621 402.404 104.017 398.873 103.506 395.109L112.195 385.815L118.283 396.921C116.842 400.406 115.355 403.705 114.008 406.214L110.43 399.663L105.272 405.378Z" fill="#FADE99"/>
<path d="M110.337 400.314L105.318 405.657V405.425L110.43 399.988L114.008 406.54L110.337 400.314Z" fill="#FADE99"/>
<path d="M117.772 387.349L120.002 392.507C119.491 393.947 118.934 395.341 118.376 396.735L116.657 393.576L112.242 385.676L105.969 392.368L103.506 394.97C103.181 392.507 102.902 389.998 102.717 387.442L105.969 383.167L102.577 385.444C102.577 384.84 102.577 384.282 102.577 383.678L107.921 377.963L114.194 371.271L118.608 379.31L122.372 386.141C121.876 387.69 121.365 389.239 120.839 390.788L117.772 387.349Z" fill="#1F0C0D"/>
<path d="M103.506 394.971L105.969 392.369L112.242 385.678L116.656 393.717L118.376 396.876V397.109L112.195 385.678L103.506 394.971Z" fill="#5E2128"/>
<path d="M102.577 371.273C102.777 368.365 103.339 365.492 104.25 362.723C105.179 360.167 105.969 357.333 106.713 354.405L117.679 342.742L125.346 356.682C125.346 358.262 125.346 359.842 125.346 361.329L121.536 357.054L125.764 367.091C125.765 369.427 125.563 371.759 125.16 374.061L115.867 357.054L102.577 371.273Z" fill="#1F0C0D"/>
<path d="M111.545 349.062L117.818 342.371L122.232 350.41L125.485 356.311C125.485 356.311 125.485 356.59 125.485 356.729L117.818 342.789L106.898 354.36V353.941L111.545 349.062Z" fill="#1F0C0D"/>
<path d="M108.943 411.51L122 301.615L123.813 301.848L108.943 411.51Z" fill="#5E2128"/>
<path d="M38.9174 257.984L42.9601 254.035L36.5012 257.287C20.9812 252.641 7.3663 246.089 7.5057 244.184C7.6451 242.278 24.3732 236.981 41.8449 234.704L47.5603 238.561L44.4006 234.379L48.025 233.961L57.3184 240.327L52.1606 233.636C59.3107 232.884 66.5363 233.34 73.5354 234.983C78.7323 236.452 84.0067 237.631 89.3342 238.515L96.2113 243.161L93.2374 239.258C100.129 240.291 106.955 241.718 113.683 243.533L114.426 244.462L114.148 243.672C120.421 245.671 124.556 248.319 124.277 252.501C123.813 259.285 112.103 260.494 98.4882 261.005L100.115 258.124L96.9084 261.051C90.1706 261.284 82.9682 261.423 76.6487 261.981L81.853 256.776L69.3534 262.817C59.0135 262.862 48.7348 261.23 38.9174 257.984Z" fill="#FADE99"/>
<path d="M44.4925 234.378L47.6523 238.56L41.8439 234.703C38.5912 235.168 35.3385 235.679 32.2717 236.283H31.9929C27.3462 237.212 22.6994 238.235 19.0285 239.257H18.7033C12.0585 241.116 7.59764 242.928 7.50471 243.904C7.41177 244.879 11.5473 247.389 17.9133 250.177L18.6103 250.037L17.9598 250.455H18.2386C21.8166 251.989 26.0915 253.662 30.6918 255.102H31.017L36.5466 256.914L43.0056 253.662L38.9629 257.611L45.0036 259.238L53.5071 253.94L63.4975 247.714L54.39 240.558L46.7229 234.146L44.4925 234.378Z" fill="#1F0C0D"/>
<path d="M132.131 251.989L11.3162 244.415L131.573 253.708L132.131 251.989Z" fill="#5E2128"/>
<path d="M29.3449 209.939L34.7816 206.918L27.0216 208.498C11.9198 198.973 -0.626326 188.285 0.0242134 186.287C0.674753 184.289 19.9121 183.638 39.196 186.287L44.1679 191.863L41.8446 186.519L45.7943 187.124L53.6937 196.417L50.1622 187.821C57.9514 189.063 65.4758 191.607 72.4199 195.348C77.5576 198.443 82.863 201.251 88.3117 203.759L94.2595 210.589L92.2614 205.617C99.2551 208.693 106.066 212.168 112.66 216.026L113.218 217.234V216.305C119.305 220.255 122.93 224.251 121.443 228.572C118.98 235.635 106.248 233.544 91.7038 230.198L94.2595 227.596L90.031 229.78C82.8286 228.107 75.2544 226.202 68.2844 225.134L75.3009 221.137L60.3385 223.925C49.3124 220.988 38.8425 216.263 29.3449 209.939Z" fill="#FADE99"/>
<path d="M41.8439 186.519L43.9814 191.816L39.1953 186.147C35.6173 185.682 32.0393 185.31 28.6008 185.078H28.229C22.9318 184.706 17.9134 184.521 13.6384 184.521H13.2666C5.69251 184.521 0.441733 185.218 0.0699961 186.333C-0.301741 187.448 3.36916 190.979 9.36341 195.951L10.1534 195.719L9.31695 195.905H9.59575C12.9414 198.554 16.984 201.574 21.3984 204.548H21.7237L27.0674 208.033L34.8274 206.453L29.3907 209.473C31.3423 210.681 33.3404 211.843 35.292 212.958L45.7936 209.799L58.1538 206.081L50.7656 195.487L44.4925 186.937L41.8439 186.519Z" fill="#1F0C0D"/>
<path d="M137.706 232.986L4.15967 187.728L136.916 235.17L137.706 232.986Z" fill="#5E2128"/>
<path d="M36.8259 161.197L43.2849 159.245H34.6885C20.9807 145.677 10.2468 131.365 11.4549 129.506C12.6631 127.648 33.0621 131.365 52.8106 138.521L56.7139 145.723L55.7845 139.404L59.8272 140.984L65.9608 152.74L64.2415 142.842C72.1773 145.974 79.529 150.419 85.9881 155.993C90.6517 160.394 95.5536 164.536 100.672 168.399L105.318 177.042L104.389 171.28C111.052 176.16 117.429 181.419 123.487 187.033L123.766 188.427V187.451C129.295 193.027 132.176 198.092 129.574 202.274C125.485 209.104 112.381 204.04 97.6049 197.069L100.904 194.932L95.9321 196.28C88.7297 192.794 81.1555 189.031 74.139 186.15L82.4566 183.594L66.0073 183.036C55.1621 177.384 45.3067 170.008 36.8259 161.197Z" fill="#FADE99"/>
<path d="M55.7846 139.398L56.8069 145.532L52.9036 138.329C49.1398 137.075 45.4224 135.82 41.8444 134.752H41.4727C35.9431 133.079 30.6924 131.731 26.185 130.755H25.8133C17.7745 129.036 12.1055 128.525 11.455 129.594C10.8044 130.662 13.9642 135.263 18.8897 141.675H19.7726H18.8897L19.122 141.954C22.0495 145.578 25.581 149.667 29.5771 153.85L29.8559 154.128C31.4048 155.77 32.9537 157.412 34.5027 159.054H43.0991L36.6401 161.005C38.4059 162.725 40.2646 164.398 42.0768 166.07L53.9259 165.187L67.866 164.165L62.5688 151.247L57.9221 140.281L55.7846 139.398Z" fill="#1F0C0D"/>
<path d="M147.232 211.751L15.4048 131.828L146.395 214.214C146.674 213.378 146.953 212.541 147.232 211.751Z" fill="#5E2128"/>
<path d="M61.9188 119.28L68.7495 119.048L60.3854 116.724C50.4415 99.9031 43.5179 83.2214 45.1907 81.6415C46.8635 80.0616 65.915 88.9833 83.4331 101.018L85.4312 109.057L85.9888 102.784L89.5203 105.34L92.5406 118.443L93.3771 108.314C100.361 113.454 106.425 119.738 111.313 126.9C114.766 132.416 118.52 137.737 122.558 142.839L124.975 152.504L125.486 146.51C130.784 153.004 135.702 159.8 140.216 166.862V168.303L140.588 167.373C144.584 174.25 146.071 179.966 142.493 183.404C136.545 189.073 125.207 180.663 112.661 170.115L116.425 168.86H111.081C104.901 163.609 98.442 157.987 92.4942 153.34L101.323 152.968L85.3383 148.322C75.9952 139.988 68.0836 130.177 61.9188 119.28Z" fill="#FADE99"/>
<path d="M85.9886 102.783L85.431 109.056L83.4329 101.017C80.1802 98.7868 76.881 96.6493 73.6283 94.6977H73.2566C68.2846 91.6308 63.452 88.9822 59.3165 86.8447H58.9447C51.51 83.1274 46.0733 81.1293 45.0046 82.198C43.9359 83.2668 45.7945 88.6105 49.1866 96.1382H50.0695H49.1866V96.5099C51.0918 100.785 53.5545 105.803 56.389 110.822V111.193C57.5042 113.192 58.6659 115.236 59.8276 117.281L68.1917 119.604L61.361 119.836C62.6621 121.974 64.0096 124.111 65.4036 126.202L77.2063 128.34L91.1464 130.896L89.2413 116.955L88.3119 104.409L85.9886 102.783Z" fill="#1F0C0D"/>
<path d="M157.315 197.159L48.4431 85.0342L155.317 198.925L157.315 197.159Z" fill="#5E2128"/>
<path d="M96.8616 81.8296L103.832 83.2701L95.9323 78.6233C89.9845 59.0607 87.1035 40.4274 89.1481 39.2193C91.1926 38.0111 108.339 51.8118 123.208 68.4006V77.0435L125.485 71.0027L128.459 74.4878V88.4279L131.805 78.3445C137.632 85.2666 142.25 93.1211 145.466 101.578C147.489 108.12 149.878 114.542 152.622 120.815V131.038L154.62 125.183C158.382 133.088 161.687 141.202 164.518 149.486L164.099 150.926L164.704 150.043C167.027 157.989 167.166 163.983 162.659 166.818C155.224 171.093 145.745 159.755 135.662 145.954L139.797 145.629L134.5 144.374C129.528 137.544 124.37 130.202 119.259 123.975L128.552 125.741L113.45 116.959C106.042 106.232 100.438 94.3657 96.8616 81.8296Z" fill="#FADE99"/>
<path d="M125.486 71.0012L123.348 77.2278V68.5849C120.607 65.5181 117.772 62.4978 114.984 59.7097L114.659 59.3845C110.198 55.063 105.969 51.1133 102.252 48L101.927 47.7212C95.3285 42.0987 90.31 38.7531 89.1484 39.4036C87.9867 40.0542 88.3584 46.0949 89.9383 54.6448L90.7747 55.0166L89.9383 54.6448V55.063C90.8212 59.7097 92.1223 65.5181 93.7021 71.4194V71.8376C94.3062 74.161 95.0032 76.4843 95.7002 78.8542L103.6 83.5009L96.6296 82.0604C97.4195 84.5696 98.2559 87.0324 99.1853 89.4951L110.663 94.6065L124.185 100.647L125.718 85.9172L127.019 73.4175L125.486 71.0012Z" fill="#1F0C0D"/>
<path d="M175.669 186.471L91.6104 43.7236L173.067 187.446L175.669 186.471Z" fill="#5E2128"/>
<path d="M142.121 58.5476L148.487 61.7538L141.982 55.4343C141.331 34.9888 143.33 16.2626 145.653 15.612C147.976 14.9615 160.941 32.7584 171.024 52.7857L168.84 61.1498L172.511 55.7131L174.462 59.8487L170.699 73.3706L176.6 64.3095C180.441 72.486 182.876 81.2518 183.802 90.2382C184.203 97.0136 184.978 103.762 186.126 110.451L183.477 120.535L186.916 115.423C188.515 124.026 189.617 132.715 190.215 141.445L189.425 142.746L190.215 142.049C190.215 150.367 188.96 156.361 183.895 157.708C175.624 159.939 169.398 146.51 163.217 130.572L167.307 131.315L162.66 128.713C159.593 120.813 156.526 112.403 153.366 105.061L161.684 109.15L148.72 96.7435C144.46 84.4546 142.231 71.5535 142.121 58.5476Z" fill="#FADE99"/>
<path d="M172.463 55.4806L168.792 60.9172L170.976 52.5531C169.164 48.8822 167.305 45.2578 165.214 41.8192V41.4475C162.148 36.1502 159.127 31.2712 156.339 27.2286V26.9033C151.414 19.7474 147.417 15.2401 146.116 15.5653C144.815 15.8906 143.654 21.8384 142.957 30.4813L143.7 31.0853L142.957 30.4813C142.957 30.4813 142.957 30.7601 142.957 30.8995C142.585 35.7785 142.353 41.5404 142.353 47.6276C142.353 47.6276 142.353 47.9064 142.353 48.0458C142.353 50.4156 142.353 52.6925 142.353 55.3412L148.719 61.7536L142.353 58.5474C142.353 61.1495 142.678 63.7982 142.864 66.4003L152.436 74.3462L163.913 83.6396L169.211 69.6995L173.857 57.9898L172.463 55.4806Z" fill="#1F0C0D"/>
<path d="M190.818 178.9L146.953 20.4004L188.309 179.922L190.818 178.9Z" fill="#5E2128"/>
<path d="M190.958 42.3315L196.534 47.257L191.887 39.1253C196.487 18.5868 203.597 0 206.106 0C208.615 0 216.886 21.4213 221.672 44.1437L217.026 51.9967L222.184 47.35C222.509 48.9298 222.788 50.5097 223.02 51.9967L215.539 64.5892L223.856 57.2474C225.487 66.463 225.566 75.8863 224.089 85.1277C222.65 92.0653 221.595 99.077 220.929 106.131L215.539 115.424L220.185 111.196C219.476 120.306 218.235 129.367 216.468 138.333L215.353 139.401L216.329 138.937C214.284 147.347 211.171 152.877 205.734 152.877C196.766 152.877 194.164 137.682 192.212 119.932L196.116 121.79L191.98 117.887C191.051 109.105 190.214 99.7648 188.867 91.4937L196.116 97.8597L187.054 82.0609C186.217 68.6941 187.535 55.2797 190.958 42.3315Z" fill="#FADE99"/>
<path d="M222.323 47.4894L217.165 52.1361L221.812 44.2831C220.929 40.0546 219.907 35.8726 218.884 31.8764V31.4582C217.258 25.2781 215.492 19.5626 213.773 14.7301V14.3119C210.288 5.62252 207.5 0 206.106 0C204.712 0 201.924 5.62252 198.904 14.1725L199.461 14.9624L198.904 14.1725V14.5442C197.184 19.1909 195.419 25.0922 193.792 31.2723V31.6905C193.142 34.1068 192.538 36.5696 191.934 39.0788L196.58 47.2106L191.004 42.285C190.4 44.9801 189.889 47.6752 189.424 50.3238L197.138 60.9183L206.199 73.418L215.492 60.9183L223.066 50.4168C222.695 49.441 222.509 48.4652 222.323 47.4894Z" fill="#1F0C0D"/>
<path d="M207.5 174.997L206.106 5.20605L204.479 175.322L207.5 174.997Z" fill="#5E2128"/>
<path d="M242.117 50.0901L246.067 56.0379L243.604 47.3021C253.223 29.2729 264.375 14.0317 266.838 14.7751C269.301 15.5186 271.484 37.2652 270.276 59.4765L264.003 65.5172L269.905 62.6362C269.905 64.1696 269.672 65.703 269.533 67.2829L259.496 77.0875L268.789 72.4408C268.023 81.4468 265.745 90.2595 262.052 98.5088C259.002 104.551 256.287 110.756 253.92 117.096L246.578 124.484L252.108 121.789C249.183 130.047 245.785 138.13 241.931 145.998L240.63 146.695H241.653C237.656 153.99 233.381 158.451 228.363 157.104C220.092 154.873 221.393 140.143 223.995 123.276L227.155 125.971L224.274 121.324C225.575 112.96 227.155 104.131 227.945 96.0925L233.103 103.76L228.456 86.892C230.951 73.9558 235.567 61.5209 242.117 50.0901Z" fill="#FADE99"/>
<path d="M269.905 62.6404L264.004 65.5214L270.091 59.3878C270.091 55.2522 270.416 51.1631 270.463 47.2134C270.463 47.2134 270.463 46.9346 270.463 46.7952C270.463 40.6615 270.463 34.9461 269.859 30.067V29.6024C269.162 20.9595 268 15.0117 266.699 14.6864C265.398 14.3612 261.402 18.8685 256.476 26.0244L256.801 26.9073L256.476 26.0244V26.3497C253.688 30.3923 250.621 35.2713 247.601 40.5686V40.9403C246.393 43.0313 245.231 45.1688 244.069 47.3528L246.532 56.0886L242.582 50.1408C241.374 52.4642 240.213 54.7875 239.097 57.2038L243.744 68.96L249.041 82.9001L260.519 73.6067L270.277 65.7073C269.533 64.4991 269.859 63.5698 269.905 62.6404Z" fill="#1F0C0D"/>
<path d="M224.74 176.297L265.352 19.4707L222.137 175.74L224.74 176.297Z" fill="#5E2128"/>
<path d="M290.676 65.5178L292.767 72.2555V62.9621C306.707 48.0461 321.437 36.197 323.528 37.4052C325.619 38.6133 322.227 60.3599 315.304 81.5024L307.823 85.8703L314.281 84.6157C313.77 86.0562 313.259 87.4967 312.748 88.9372L300.527 95.8143L310.936 93.6768C307.835 102.11 303.343 109.963 297.646 116.91C293.125 121.983 288.89 127.304 284.961 132.849L275.946 138.471L281.987 137.263C277.033 144.476 271.665 151.396 265.909 157.987L264.469 158.313H265.491C259.776 164.307 254.478 167.606 249.971 164.911C242.536 160.636 247.648 146.742 254.618 131.083L256.988 134.521L255.408 129.271C258.846 121.511 262.61 113.425 265.491 106.037L268.465 114.773V97.3012C274.09 85.5687 281.592 74.8331 290.676 65.5178Z" fill="#FADE99"/>
<path d="M314.281 84.8002L307.822 86.0548L315.303 81.6869C316.604 77.7837 317.766 73.834 318.788 69.9772V69.559C320.368 63.6577 321.669 58.0816 322.552 53.2026V52.7844C324.132 44.2344 324.503 38.1937 323.342 37.5432C322.18 36.8926 317.162 40.1918 310.563 45.8608V46.7901V45.8608L310.285 46.1396C306.567 49.3458 302.339 53.2491 298.017 57.5705L297.692 57.8958C296.019 59.615 294.3 61.3343 292.627 63.1465V72.44L290.397 65.7022C288.631 67.6074 286.912 69.6055 285.239 71.6036L286.54 84.1032L288.12 98.6009L301.642 92.5602L313.119 87.4488L314.281 84.8002Z" fill="#1F0C0D"/>
<path d="M238.727 181.875L241.003 183.269L321.066 41.8232L238.727 181.875Z" fill="#5E2128"/>
<path d="M330.683 97.2534L331.334 104.038L333.192 95.5341C349.409 84.6144 365.719 76.9473 367.346 78.3413C368.972 79.7353 361.212 99.4374 350.199 117.652L342.253 120.115H348.526L346.157 123.786L333.285 127.55L343.462 127.782C338.761 135.037 332.87 141.446 326.036 146.741C320.737 150.5 315.649 154.549 310.795 158.869L301.502 161.796H307.403C301.225 167.464 294.724 172.771 287.933 177.688H286.493L287.469 177.967C280.824 182.335 275.201 184.193 271.577 180.755C265.583 175.179 273.296 163.33 283.101 150.226L284.588 153.897L284.262 148.692C288.909 142.187 294.392 135.449 298.667 129.037L299.55 137.819L303.36 121.556C311.107 112.043 320.332 103.837 330.683 97.2534Z" fill="#FADE99"/>
<path d="M348.528 120.351H342.255L350.201 117.889C352.246 114.497 354.197 111.105 355.963 107.759V107.387C358.704 102.229 361.121 97.3038 362.979 92.9824V92.6106C366.279 84.99 367.951 79.4605 367.022 78.6705C366.093 77.8806 360.703 79.8322 353.314 83.6425V84.5254V83.6425H353.175C348.993 85.8264 344.253 88.568 339.235 91.6348H338.863L333.008 95.4451L331.15 103.949L330.499 97.1644C328.454 98.6049 326.41 100.045 324.412 101.579L322.925 113.521L321.206 127.461L335.146 124.766L346.948 122.489L348.528 120.351Z" fill="#1F0C0D"/>
<path d="M256.058 195.815L257.777 197.766L364.094 81.8311L256.058 195.815Z" fill="#5E2128"/>
<path d="M362.468 134.478L361.399 141.122L365.302 133.502C383.517 127.182 400.989 123.744 402.197 125.695C403.405 127.647 390.999 144.282 375.943 158.873L367.765 159.245L373.713 161.01L370.507 163.938L357.264 164.309L366.882 167.097C360.594 172.916 353.367 177.629 345.507 181.038C339.5 183.3 333.62 185.891 327.896 188.798L318.092 189.216L323.668 190.889C316.36 194.743 308.835 198.172 301.131 201.158L299.784 200.786L300.62 201.297C293.185 203.806 287.377 204.132 284.728 199.95C280.407 193.119 290.769 183.779 303.315 173.696L303.78 177.599L304.756 172.534C311.029 167.562 317.767 162.451 323.343 157.386L321.995 166.029L329.941 151.252C339.799 143.929 350.786 138.263 362.468 134.478Z" fill="#FADE99"/>
<path d="M373.619 160.96L367.671 159.194L375.849 158.823C378.637 156.128 381.379 153.339 383.934 150.598L384.213 150.273C388.163 146.044 391.648 141.955 394.529 138.284L394.994 138.005C399.64 131.593 402.846 126.714 402.149 125.459C401.452 124.205 395.83 124.948 387.791 126.76L387.466 127.597L387.791 126.76H387.419C382.773 127.783 377.661 129.177 372.132 130.896H371.76L365.208 133.08L361.305 140.7L362.467 134.474C360.143 135.31 357.82 136.24 355.543 137.169L351.129 148.182L345.924 161.146L359.864 162.075L371.76 162.633L373.619 160.96Z" fill="#1F0C0D"/>
<path d="M266.606 209.565L267.954 211.702L398.062 128.062L266.606 209.565Z" fill="#5E2128"/>
<path d="M377.337 182.943L374.92 188.705L380.078 182.664C397.829 180.898 414.324 181.549 414.975 183.547C415.625 185.545 401.035 197.859 384.214 207.756L376.779 206.316L381.751 209.197L378.266 211.149L366.277 208.639L374.363 213.286C367.447 217.102 359.938 219.725 352.151 221.046C346.257 221.769 340.409 222.824 334.633 224.206L325.712 222.486L330.358 225.182C322.952 227.069 315.443 228.528 307.868 229.549L306.707 228.852L307.357 229.503C300.155 230.154 294.811 229.224 293.417 224.856C290.954 217.84 302.06 211.613 316 205.34L315.582 208.965L317.394 204.457C324.085 201.344 331.334 198.184 337.468 194.885L334.587 202.459L344.67 191.028C355.05 186.585 366.082 183.854 377.337 182.943Z" fill="#FADE99"/>
<path d="M381.751 209.104L376.779 206.223L384.213 207.663C387.327 205.805 390.347 203.9 393.228 201.995H393.553C398.2 199.021 402.057 196.093 405.402 193.445H405.681C411.629 188.798 415.346 184.988 414.975 183.919C414.603 182.85 409.398 182.107 401.778 182.014L401.313 182.711L401.778 182.014H401.406C397.131 182.014 392.113 182.014 386.769 182.478H386.397L380.031 182.989L374.873 189.03L377.29 183.268L370.506 184.198L364.186 193.166L356.751 203.714L369.065 207.524L379.567 210.777L381.751 209.104Z" fill="#1F0C0D"/>
<path d="M277.015 229.271L277.898 231.408L410.933 184.941L277.015 229.271Z" fill="#5E2128"/>
<path d="M374.688 230.292L371.389 234.939L377.197 230.618C393.321 232.616 407.819 236.566 408.005 238.471C408.191 240.376 392.624 248.368 375.803 253.805L369.484 250.924L373.34 254.502L369.855 255.524L359.679 250.924L365.906 256.639C358.998 258.634 351.803 259.451 344.624 259.056C339.251 258.523 333.852 258.29 328.453 258.359L320.647 254.967L324.225 258.312C317.263 258.496 310.297 258.279 303.361 257.662L302.432 256.872L302.896 257.569C296.344 256.686 291.791 254.781 291.373 250.645C290.629 243.861 301.967 240.655 315.257 237.774L314.188 240.887L316.836 237.448C323.435 236.054 330.405 234.66 336.585 232.802L332.356 238.796L343.88 230.897C354.049 229.025 364.454 228.821 374.688 230.292Z" fill="#FADE99"/>
<path d="M373.295 254.546L369.484 250.922L375.804 253.71C378.917 252.687 382.031 251.619 385.097 250.504H385.423C390.069 248.784 394.158 246.972 397.69 245.299H397.969C404.195 242.325 408.284 239.77 408.145 238.701C408.006 237.632 403.498 235.959 396.807 234.333L396.249 234.844L396.807 234.333H396.482C392.671 233.404 388.211 232.521 383.425 231.777H383.053L377.291 230.987L371.482 235.309L374.782 230.662L368.555 230.104L361.12 236.796L352.385 244.649L362.468 250.178L371.111 255.15L373.295 254.546Z" fill="#1F0C0D"/>
<path d="M284.032 250.455C284.032 251.105 284.357 251.756 284.496 252.406L404.289 238.838L284.032 250.455Z" fill="#5E2128"/>
<path d="M208.011 155.99H207.546C145.559 156.316 118.608 218.117 118.608 261.517C128.645 262.632 119.584 260.309 131.898 262.075C138.357 233.404 160.754 197.021 207.778 197.021C254.803 197.021 277.2 233.311 283.659 262.075C295.973 260.309 286.912 262.632 296.949 261.517C296.995 218.117 269.998 156.362 208.011 155.99Z" fill="#E02C26"/>
<path d="M289.143 254.175C279.849 221.973 254.246 186.24 207.965 186.24C161.683 186.24 135.755 221.973 126.461 254.175H126.136C128.97 214.352 154.574 163.564 207.593 163.285H208.011C261.076 163.564 286.633 214.399 289.468 254.175H289.143Z" fill="#1FA3AB"/>
<path d="M291.364 274.952C297.213 274.792 301.825 269.92 301.664 264.072C301.504 258.223 296.632 253.611 290.783 253.771C284.934 253.932 280.323 258.803 280.483 264.652C280.643 270.501 285.515 275.113 291.364 274.952Z" fill="#FA9652"/>
<path d="M135.067 264.685C135.227 258.836 130.615 253.965 124.766 253.805C118.917 253.644 114.046 258.256 113.885 264.105C113.725 269.954 118.337 274.825 124.186 274.986C130.035 275.146 134.906 270.534 135.067 264.685Z" fill="#FA9652"/>
<path d="M291.276 271.754C295.355 271.642 298.571 268.246 298.46 264.167C298.349 260.088 294.952 256.871 290.874 256.982C286.795 257.094 283.578 260.49 283.689 264.569C283.8 268.648 287.197 271.865 291.276 271.754Z" fill="#E02C26"/>
<path d="M131.867 264.593C131.977 260.514 128.76 257.118 124.681 257.008C120.602 256.897 117.206 260.115 117.096 264.194C116.985 268.272 120.202 271.669 124.281 271.779C128.36 271.889 131.756 268.672 131.867 264.593Z" fill="#E02C26"/>
<path d="M291.169 268.016C293.17 267.96 294.747 266.293 294.691 264.292C294.635 262.291 292.968 260.714 290.967 260.77C288.966 260.826 287.389 262.493 287.445 264.494C287.501 266.495 289.168 268.072 291.169 268.016Z" fill="#1FA3AB"/>
<path d="M128.113 264.539C128.169 262.538 126.592 260.871 124.592 260.815C122.591 260.759 120.923 262.336 120.867 264.337C120.811 266.338 122.388 268.005 124.389 268.061C126.39 268.117 128.057 266.54 128.113 264.539Z" fill="#1FA3AB"/>
<path d="M287.423 248.783L289.143 250.548C289.143 248.55 288.631 246.552 288.353 244.508L284.589 240.604L286.076 233.356C285.1 229.592 283.985 225.874 282.637 222.157L273.065 220.577C274.025 221.94 274.955 223.319 275.853 224.713L283.845 226.014L281.94 235.307C284.048 239.68 285.879 244.181 287.423 248.783Z" fill="#FADE99"/>
<path d="M273.019 220.578L276.086 207.428C275.11 205.616 274.088 203.803 273.019 202.038L260.473 205.104L261.356 186.518C259.962 185.031 258.521 183.606 257.034 182.243L243.326 191.536L241.886 171.276C240.306 170.44 238.633 169.65 236.96 168.907L221.998 183.776L211.311 163.052H207.965H207.175L219.442 186.796L223.531 187.493L238.354 172.763L239.748 192.558C241.483 193.333 243.172 194.154 244.813 195.021L257.731 186.053L256.895 203.106C258.846 204.686 260.721 206.359 262.517 208.125L272.694 205.616L270.138 216.582C271.16 218.022 272.09 219.277 273.019 220.578Z" fill="#FADE99"/>
<path d="M128.459 248.783L126.74 250.548C126.74 248.55 127.204 246.552 127.529 244.508L131.293 240.604L129.806 233.356C130.782 229.592 131.897 225.874 133.245 222.157L142.817 220.577C141.841 221.925 140.912 223.319 140.029 224.713L132.037 226.014L133.942 235.307C131.832 239.679 130 244.18 128.459 248.783Z" fill="#FADE99"/>
<path d="M142.864 220.577L139.797 207.427C140.773 205.615 141.795 203.802 142.864 202.037L155.41 205.103L154.527 186.517C155.921 185.03 157.361 183.636 158.848 182.242L172.556 191.535L173.997 171.275C175.577 170.439 177.249 169.649 178.922 168.906L193.885 183.775L204.479 163.376H207.825H208.615L196.347 187.121L192.258 187.818L177.435 173.088L176.041 192.883C174.306 193.657 172.618 194.478 170.976 195.345L158.012 186.284L158.848 203.338C156.897 204.918 155.038 206.59 153.272 208.356L143.096 205.847L145.652 216.813C144.722 218.021 143.793 219.276 142.864 220.577Z" fill="#FADE99"/>
<path d="M122.744 311.005C125.49 311.005 127.716 308.779 127.716 306.033C127.716 303.288 125.49 301.062 122.744 301.062C119.998 301.062 117.772 303.288 117.772 306.033C117.772 308.779 119.998 311.005 122.744 311.005Z" fill="#1FA3AB"/>
<path d="M125.485 302.406C129.104 302.406 132.037 299.473 132.037 295.855C132.037 292.236 129.104 289.303 125.485 289.303C121.867 289.303 118.934 292.236 118.934 295.855C118.934 299.473 121.867 302.406 125.485 302.406Z" fill="#E02C26"/>
<path d="M292.256 418.946L287.981 414.3L291.373 421.455C285.797 438.37 278.502 453.1 276.411 452.914C274.32 452.728 269.069 434.327 266.792 415.043L271.16 408.909L266.513 412.302C266.513 410.969 266.389 409.637 266.142 408.305L273.297 398.408L265.816 403.891C265.152 396.094 265.796 388.242 267.721 380.657C269.428 374.991 270.824 369.236 271.903 363.418L277.108 355.983L272.74 359.143C274.014 351.616 275.721 344.169 277.851 336.839L278.873 336.049L278.037 336.374C280.453 329.358 283.474 324.897 288.12 325.269C295.555 325.966 296.624 338.791 296.903 353.707L293.789 351.894L296.949 355.472C296.949 362.861 296.949 370.667 297.553 377.684L291.838 371.736L298.157 385.676C298.015 397.013 296.021 408.251 292.256 418.946Z" fill="#FADE99"/>
<path d="M292.534 418.205L281.15 398.921L266.838 415.277L271.159 408.911L266.513 412.303C266.513 410.971 266.389 409.639 266.141 408.307L273.297 398.41L265.816 403.893C265.816 401.895 265.816 399.897 265.816 397.945L274.644 387.815L283.101 378.104L289.7 389.163L296.856 401.198C295.734 406.943 294.291 412.621 292.534 418.205Z" fill="#1F0C0D"/>
<path d="M297.413 377.636L291.837 371.735L294.114 376.753L284.542 360.722L267.953 379.727C269.567 374.285 270.901 368.763 271.95 363.185L277.154 355.75L272.786 358.91L273.622 354.635L277.944 349.663L286.401 339.951L292.999 351.01L296.763 357.33C296.902 364.207 296.949 371.27 297.413 377.636Z" fill="#1F0C0D"/>
<path d="M283.102 442.646C280.128 449.012 277.526 453.101 276.457 453.008C275.389 452.915 273.483 448.361 271.811 441.252L278.13 434.003L283.102 442.646Z" fill="#1F0C0D"/>
<path d="M276.828 448.686L292.116 294.137L289.56 293.904L276.828 448.686Z" fill="#5E2128"/>
<path d="M294.904 390.695L297.831 387.349L295.601 392.507C300.015 404.402 305.591 414.718 307.078 414.532C308.565 414.346 311.725 401.103 312.933 387.302L309.68 383.028L313.072 385.304C313.072 384.375 313.072 383.399 313.072 382.47L307.729 375.593L313.165 379.31C313.497 373.703 312.885 368.079 311.353 362.675C309.983 358.684 308.835 354.619 307.915 350.501L304.011 345.343L307.171 347.48C306.064 342.153 304.653 336.893 302.943 331.728L302.06 331.217H302.664C300.852 326.57 298.575 323.317 295.369 323.689C290.071 324.34 289.653 333.54 289.839 344.181L292.023 342.787L289.885 345.389C289.885 350.64 290.211 356.216 289.885 361.234L293.696 356.959L289.792 367.089C290.198 375.184 291.925 383.157 294.904 390.695Z" fill="#FADE99"/>
<path d="M310.285 405.378C310.936 402.404 311.54 398.873 312.051 395.109L303.362 385.815L297.414 397.014C298.855 400.499 300.295 403.798 301.689 406.307L305.267 399.756L310.285 405.378Z" fill="#FADE99"/>
<path d="M305.221 400.314L310.239 405.657V405.425L305.128 399.988L301.55 406.54L305.221 400.314Z" fill="#FADE99"/>
<path d="M297.785 387.349L295.555 392.507C296.082 393.932 296.624 395.341 297.181 396.735L298.901 393.576L303.362 385.676L309.635 392.368L312.097 394.97C312.423 392.507 312.701 389.998 312.887 387.442L309.635 383.167L313.027 385.444C313.027 384.84 313.027 384.282 313.027 383.678L307.683 377.963L301.41 371.271L296.996 379.31L293.232 386.141C293.727 387.69 294.238 389.239 294.765 390.788L297.785 387.349Z" fill="#1F0C0D"/>
<path d="M312.05 394.971L309.587 392.369L303.361 385.678L298.946 393.717L297.227 396.876V397.109L303.407 385.678L312.05 394.971Z" fill="#5E2128"/>
<path d="M313.026 371.274C312.827 368.35 312.265 365.462 311.353 362.677C310.424 360.121 309.634 357.287 308.891 354.36L297.878 342.696L290.211 356.636C290.211 358.216 290.211 359.796 290.211 361.283L294.021 357.008L289.793 367.092C289.787 369.428 289.99 371.761 290.397 374.062L299.69 357.055L313.026 371.274Z" fill="#1F0C0D"/>
<path d="M304.151 349.062L297.878 342.371L293.464 350.41L290.258 356.311C290.258 356.311 290.258 356.59 290.258 356.729L297.925 342.789L308.891 354.453V354.034L304.151 349.062Z" fill="#1F0C0D"/>
<path d="M306.66 411.51L293.556 301.615L291.79 301.848L306.66 411.51Z" fill="#5E2128"/>
<path d="M292.814 311.005C295.56 311.005 297.786 308.779 297.786 306.033C297.786 303.288 295.56 301.062 292.814 301.062C290.068 301.062 287.842 303.288 287.842 306.033C287.842 308.779 290.068 311.005 292.814 311.005Z" fill="#1FA3AB"/>
<path d="M290.073 302.406C293.691 302.406 296.624 299.473 296.624 295.855C296.624 292.236 293.691 289.303 290.073 289.303C286.454 289.303 283.521 292.236 283.521 295.855C283.521 299.473 286.454 302.406 290.073 302.406Z" fill="#E02C26"/>
</svg>
