<svg width="312" height="277" viewBox="0 0 312 277" fill="none" xmlns="http://www.w3.org/2000/svg">
<path d="M146.63 277.021C227.612 277.021 293.26 276.177 293.26 275.136C293.26 274.096 227.612 273.252 146.63 273.252C65.6486 273.252 0 274.096 0 275.136C0 276.177 65.6486 277.021 146.63 277.021Z" fill="#68251C"/>
<path d="M293 100.773C283.6 102.457 218.242 97.5256 190.784 87.5225C190.784 87.5225 166.192 33.4976 185.613 31.2725C205.034 29.0474 300.636 58.3751 305.186 86.1994C306.248 92.7345 301.017 99.3298 293 100.773Z" fill="#FFC192"/>
<path d="M288.41 66.3537C259.048 46.1069 200.424 29.5887 185.653 31.2726C176.514 32.315 177.115 44.8239 180.322 57.7738C206.437 54.4662 257.605 55.9897 288.41 66.3537Z" fill="#FFCDAB"/>
<path d="M303.141 80.7469C300.76 83.221 297.648 84.8653 294.263 85.4378C284.863 87.1217 219.504 82.1702 192.046 72.1671C192.046 72.1671 182.466 51.1385 180.021 34.8008C172.485 47.2095 190.824 87.5026 190.824 87.5026C218.242 97.5257 283.6 102.457 293.04 100.753C301.057 99.3098 306.288 92.7346 305.226 86.2396C304.859 84.3004 304.154 82.441 303.141 80.7469V80.7469Z" fill="#F79E77"/>
<path d="M24.231 205.676C31.9674 210.267 98.6083 254.188 140.196 227.888C143.644 225.703 134.083 177.511 90.3509 165.744C52.8115 155.701 4.12847 166.165 24.231 205.676Z" fill="#F9B282"/>
<path d="M91.6939 166.185C75.0186 186.431 44.975 190.441 19.5613 189.458C19.8946 195.144 21.4898 200.684 24.2312 205.676C31.9675 210.266 98.6085 254.188 140.196 227.887C143.604 225.722 134.284 178.553 91.6939 166.185Z" fill="#F4956C"/>
<path d="M27.0974 176.408C17.1563 154.157 -11.2037 117.271 20.2429 80.4863C20.2429 80.4863 46.4583 87.4023 37.1386 132.927C34.5331 145.677 25.2735 162.315 31.1259 173.02L27.0974 176.408Z" fill="#FFC192"/>
<path d="M20.2427 80.4863C17.8554 83.2745 15.6971 86.251 13.7891 89.3869C19.0201 97.5257 23.5497 110.255 24.4717 130.482C25.1331 144.875 20.6436 164.561 28.1595 175.546L31.1658 172.94C25.2734 162.315 34.5329 145.677 37.1785 132.847C46.4582 87.4023 20.2427 80.4863 20.2427 80.4863Z" fill="#F79E77"/>
<path d="M35.495 109.254C56.1186 94.4595 98.849 91.3523 125.064 79.525C125.064 79.525 141.68 34.2404 122.118 33.4185C102.557 32.5966 17.5169 65.3723 13.1276 92.2143C12.0253 98.6492 29.362 113.624 35.495 109.254Z" fill="#FFC192"/>
<path d="M130.997 56.3107C132.621 45.0247 131.779 33.7787 122.118 33.3377C107.427 32.6761 55.9785 51.0386 29.2419 71.566C65.7391 59.2575 113.721 53.384 130.997 56.3107Z" fill="#FFCDAB"/>
<path d="M126.267 56.8723C96.2036 72.2879 43.7326 80.6272 19.5815 104.041C24.5721 109.253 31.166 113.343 34.5733 110.897C55.257 96.103 98.8492 91.352 125.065 79.5247C125.065 79.5247 133.883 55.4691 131.077 42.0781C129.747 47.0943 128.142 52.0332 126.267 56.8723V56.8723Z" fill="#F79E77"/>
<path d="M276.144 191.262C268.989 196.675 198.42 251.08 154.326 229.511C150.679 227.726 154.807 178.773 196.796 162.295C232.853 148.143 292.399 156.542 276.144 191.262Z" fill="#F9B282"/>
<path d="M215.035 157.324C208.807 158.386 202.702 160.079 196.816 162.376C154.828 178.854 150.719 227.807 154.347 229.591C198.44 251.161 268.989 196.755 276.144 191.343C280.614 181.801 279.351 174.263 274.441 168.61C252.835 170.956 230.488 169.272 215.035 157.324Z" fill="#F4956C"/>
<path d="M129.374 234.202C119.994 230.794 106.746 196.455 112.979 191.704C119.212 186.953 123.902 200.083 148.334 197.718C172.765 195.352 189.401 191.303 191.084 193.388C196.315 199.843 179.219 234.002 166.292 236.768C153.982 239.3 141.215 238.413 129.374 234.202Z" fill="#FFF4C7"/>
<path d="M192.668 198.459C193.197 196.343 192.918 194.106 191.886 192.185C190.162 189.98 173.206 194.189 148.294 196.795C123.381 199.401 118.631 185.469 112.237 190.441C110.774 191.583 110.373 194.45 110.714 198.098C138.814 215.559 180.081 207.741 192.668 198.459Z" fill="#E8DCAA"/>
<path d="M172.104 221.794C158.18 225.128 143.64 224.887 129.834 221.092C123.541 219.308 115.224 206.719 110.634 195.353C110.353 206.759 120.976 232.318 128.933 235.285C140.972 239.702 154.016 240.612 166.552 237.911C176.734 235.646 195.373 205.837 198.219 192.727C192.788 202.77 179.119 220.07 172.104 221.794Z" fill="#E8DCAA"/>
<path d="M190.704 203.992C190.704 203.992 243.776 163.137 241.391 154.217L172.365 200.965L190.704 203.992Z" fill="#E8DCAA"/>
<path d="M124.764 203.832C124.764 203.832 69.7875 173.201 70.7897 159.489L139.114 197.758L124.764 203.832Z" fill="#E8DCAA"/>
<path d="M58.1229 149.886C56.6599 154.377 110.955 202.007 151.2 200.143C191.445 198.278 246.141 160.972 257.946 146.559C257.946 146.559 249.828 127.354 239.106 119.216C228.383 111.077 144.546 104.061 144.546 104.061C144.546 104.061 72.1526 107.027 58.1229 149.886Z" fill="#FFC192"/>
<path d="M149.155 187.314C117.909 188.577 79.2074 166.546 58.5437 151.23C63.2136 160.011 113.46 201.948 151.3 200.204C191.565 198.359 246.241 161.033 258.046 146.62C258.046 146.62 257.685 145.758 257.024 144.354C233.073 161.294 185.833 185.81 149.155 187.314Z" fill="#F79E77"/>
<path d="M149.155 187.314C117.909 188.577 79.2074 166.546 58.5437 151.23C63.2136 160.011 113.46 201.948 151.3 200.204C191.565 198.359 246.241 161.033 258.046 146.62C258.046 146.62 257.685 145.758 257.024 144.354C233.073 161.294 185.833 185.81 149.155 187.314Z" fill="#F4956C"/>
<path d="M160.6 140.124C163.654 139.048 166.958 138.894 170.1 139.683C219.304 151.972 240.068 127.655 258.046 146.559C258.046 146.559 251.432 116.129 240.729 108.01C230.026 99.8913 144.646 104.001 144.646 104.001C144.646 104.001 118.751 90.7902 95.582 99.9915C78.7665 106.687 64.1355 131.845 58.1228 149.887C89.6495 125.591 125.445 152.513 160.6 140.124Z" fill="#E88B6B"/>
<path d="M249.929 80.4259C249.929 80.4259 253.937 113.302 251.773 115.888C249.608 118.474 232.933 133.929 198.58 133.929C164.228 133.929 171.984 125.49 165.33 126.292C158.676 127.094 151.661 136.576 133.944 134.31C116.226 132.045 82.9757 124.708 75.2193 118.434C67.4629 112.159 75.2193 87.0411 78.9071 78.5415C82.5949 70.0419 119.914 32.435 158.696 33.0965C197.478 33.758 244.016 68.1575 249.929 80.4259Z" fill="#FFC192"/>
<path d="M160.339 75.3752C204.505 75.3752 240.308 65.0359 240.308 52.2818C240.308 39.5277 204.505 29.1885 160.339 29.1885C116.174 29.1885 80.3701 39.5277 80.3701 52.2818C80.3701 65.0359 116.174 75.3752 160.339 75.3752Z" fill="#FFCDAB"/>
<path d="M275.844 174.984C291.276 153.575 330.138 119.316 302.119 79.584C302.119 79.584 271.494 84.0744 273.058 130.482C273.499 143.492 280.614 160.972 271.975 171.075L275.844 174.984Z" fill="#FFC192"/>
<path d="M274.461 173.581C283.901 163.899 287.147 142.85 286.686 130.502C285.765 106.306 285.123 94.5389 296.968 81.168C288.31 84.7763 270.733 94.8596 273.058 130.462C273.899 143.432 280.614 160.952 271.975 171.056L274.461 173.581Z" fill="#F79E77"/>
<path d="M195.233 79.3034C195.233 58.0142 180.041 40.7744 161.321 40.7744C142.602 40.7744 127.41 58.0142 127.41 79.3034C127.41 100.593 134.745 117.692 161.321 117.853C189.14 117.071 195.233 100.593 195.233 79.3034Z" fill="#E88B6B"/>
<path d="M194.411 57.3527C193.61 52.9826 190.523 49.7551 187.497 50.136C184.47 50.5169 182.646 54.3658 183.488 58.7158C184.33 63.0659 187.376 66.3134 190.403 65.9325C193.429 65.5516 195.293 61.7228 194.411 57.3527Z" fill="#F79E77"/>
<path d="M194.231 58.9563C193.73 54.7867 190.984 51.5592 188.118 51.7396C185.252 51.92 183.308 55.4482 183.789 59.6178C184.27 63.7875 187.016 67.0149 189.902 66.8345C192.788 66.6541 194.732 63.1259 194.231 58.9563Z" fill="#FFB185"/>
<path d="M139.495 59.7578C140.677 55.3075 139.174 51.3383 136.148 50.8973C133.122 50.4563 129.714 53.7238 128.532 58.1741C127.349 62.6244 128.852 66.5936 131.879 67.0346C134.905 67.4756 138.292 64.1479 139.495 59.7578Z" fill="#F79E77"/>
<path d="M138.553 61.0015C139.495 57.3932 138.293 54.1858 135.847 53.8249C133.402 53.4641 130.636 56.1102 129.694 59.7185C128.752 63.3269 129.955 66.5343 132.4 66.8951C134.845 67.256 137.591 64.6099 138.553 61.0015Z" fill="#FFB185"/>
<path d="M155.228 29.0677C151.901 23.8958 141.559 8.74077 146.309 4.00984C151.059 -0.721095 172.605 -0.861419 174.81 1.72456C177.014 4.31053 165.57 29.0677 165.57 29.0677H155.228Z" fill="#60371B"/>
<path d="M169.278 3.2881C171.213 3.29342 173.146 3.40048 175.07 3.60884C175.217 2.97871 175.132 2.31671 174.83 1.74453C172.605 -0.861491 151.18 -0.861492 146.309 4.00976C145.688 4.78757 145.269 5.70761 145.09 6.68729C144.912 7.66698 144.98 8.67564 145.287 9.62273C152.51 5.25153 160.839 3.05242 169.278 3.2881V3.2881Z" fill="#A55E2F"/>
<path d="M166.712 25.2787C164.708 21.4899 155.368 23.4344 145.868 29.6087C136.368 35.783 131.598 39.8123 133.602 43.6411C135.607 47.47 143.624 49.5548 153.124 43.3605C162.624 37.1662 168.717 29.0875 166.712 25.2787Z" fill="#4C2B14"/>
<path d="M190.783 40.9549C192.206 36.9457 186.775 33.0366 177.816 27.564C168.857 22.0913 160.499 20.9086 159.076 24.958C157.653 29.0073 163.746 36.7452 172.665 42.2178C181.584 47.6905 189.36 45.0043 190.783 40.9549Z" fill="#4C2B14"/>
<path d="M131.959 78.7222C135.166 88.7454 141.98 96.6436 159.658 97.0245C177.335 97.4054 188.479 87.1216 191.726 77.1987C194.973 67.2758 178.438 27.6442 173.247 26.5016C168.056 25.3589 152.322 24.5972 147.111 31.0721C141.9 37.5471 129.013 69.5811 131.959 78.7222Z" fill="#FFB185"/>
<path d="M133.162 75.7159C136.248 85.0976 142.742 92.615 159.758 92.9758C176.774 93.3367 187.416 83.6342 190.603 74.2726C193.79 64.911 177.836 27.5446 172.866 26.4621C167.895 25.3796 152.663 24.658 147.692 30.7721C142.722 36.8862 130.276 67.096 133.162 75.7159Z" fill="#F79E77"/>
<path d="M133.081 74.5723C136.168 83.7335 142.622 91.0704 159.598 91.4112C176.573 91.752 187.176 82.2901 190.403 73.1691C193.63 64.048 178.778 27.7842 173.828 26.7418C168.877 25.6994 152.322 24.9978 147.412 30.9515C142.501 36.9053 130.275 66.1528 133.081 74.5723Z" fill="#FFC192"/>
<path d="M142.922 33.0174C148.093 31.1731 157.654 31.0127 162.063 41.7575C163.125 35.0821 171.803 26.2818 181.183 31.0929C175.844 25.4931 168.708 21.9458 161.021 21.0697C153.866 20.2879 142.922 33.0174 142.922 33.0174Z" fill="#60371B"/>
<path d="M25.6341 170.995C22.5075 173.601 17.1963 182.542 19.3809 182.923C21.5655 183.304 29.4021 174.543 29.4021 174.543L25.6341 170.995Z" fill="#FFC192"/>
<path d="M26.5764 172.398C27.8991 171.075 30.0236 171.777 29.8633 173.661C29.7866 174.364 29.5306 175.035 29.12 175.611C28.7094 176.187 28.1579 176.647 27.5183 176.949C26.416 177.73 25.5141 180.838 24.2314 180.958C21.8864 181.279 23.1291 178.953 23.9107 177.51C24.672 175.743 25.563 174.034 26.5764 172.398V172.398Z" fill="#F79E77"/>
<path d="M281.596 167.348C282.919 171.357 282.678 181.38 280.534 180.217C278.389 179.055 276.305 167.408 276.305 167.408L281.596 167.348Z" fill="#FFC192"/>
<path d="M279.852 167.929C279.551 165.924 277.206 165.082 276.124 166.806C275.745 167.479 275.545 168.238 275.545 169.011C275.545 169.784 275.745 170.543 276.124 171.216C276.585 172.639 275.362 175.967 276.344 176.949C278.208 178.794 278.649 175.927 278.89 174.183C279.366 172.125 279.688 170.034 279.852 167.929V167.929Z" fill="#F79E77"/>
<path d="M108.951 272.912C107.948 244.346 3.00643 252.224 13.3884 194.089C15.8536 180.298 33.0901 160.592 61.1695 186.692C89.2489 212.793 109.933 249.738 115.845 274.896L108.951 272.912Z" fill="#FFC192"/>
<path style="mix-blend-mode:multiply" opacity="0.4" d="M158.155 66.1536C158.295 67.1159 162.925 68.3788 163.887 66.1536C164.849 63.9285 161.882 56.4111 161.401 56.4111C159.304 59.2272 158.166 62.6422 158.155 66.1536V66.1536Z" fill="url(#paint0_linear)"/>
<path d="M156.712 60.9011C156.712 60.4601 155.509 59.6182 154.046 59.6182C152.583 59.6182 151.38 60.4601 151.38 60.9011C151.38 61.3422 152.583 61.1617 154.046 61.1617C155.509 61.1617 156.712 61.3422 156.712 60.9011Z" fill="#512E22"/>
<path d="M171.122 60.9011C171.122 60.4601 169.92 59.6182 168.456 59.6182C166.993 59.6182 165.791 60.4601 165.791 60.9011C165.791 61.3422 166.993 61.1617 168.456 61.1617C169.92 61.1617 171.122 61.3422 171.122 60.9011Z" fill="#512E22"/>
<path d="M165.33 71.385C165.33 70.944 163.325 70.5029 161.021 70.5029C158.716 70.5029 156.711 70.944 156.711 71.385C156.711 71.826 158.716 71.6055 161.021 71.6055C163.325 71.6055 165.33 71.826 165.33 71.385Z" fill="#E58765"/>
<path d="M163.005 74.272C163.005 73.7107 162.163 73.1494 161.141 73.1494C160.119 73.1494 159.277 73.7107 159.277 74.272C159.277 74.8333 160.119 74.5527 161.141 74.5527C162.163 74.5527 163.005 74.8333 163.005 74.272Z" fill="#F79E77"/>
<path d="M155.91 55.5494C156.491 55.369 157.073 53.8455 157.093 53.5448C157.113 53.2441 147.653 50.0367 146.109 51.039C144.566 52.0413 140.517 58.1955 141.56 59.0575C142.602 59.9195 144.466 54.3466 147.332 53.9257C150.198 53.5047 154.808 55.9102 155.91 55.5494Z" fill="#60371B"/>
<path d="M166.633 55.3884C166.011 55.2682 165.27 53.8048 165.23 53.3838C165.19 52.9628 174.99 48.9736 176.694 49.8156C178.398 50.6575 183.188 56.3908 182.145 57.353C181.103 58.3152 178.678 52.9428 175.612 52.8025C172.545 52.6621 167.815 55.649 166.633 55.3884Z" fill="#60371B"/>
<path d="M161.702 92.1931C165.798 92.1931 169.118 90.434 169.118 88.264C169.118 86.0941 165.798 84.335 161.702 84.335C157.606 84.335 154.286 86.0941 154.286 88.264C154.286 90.434 157.606 92.1931 161.702 92.1931Z" fill="#F79E77"/>
<path d="M161.702 90.1892C165.1 90.1892 167.855 88.7622 167.855 87.0018C167.855 85.2415 165.1 83.8145 161.702 83.8145C158.304 83.8145 155.549 85.2415 155.549 87.0018C155.549 88.7622 158.304 90.1892 161.702 90.1892Z" fill="#FFC192"/>
<path d="M248.185 113.803C248.425 112.019 245.599 111.518 241.892 112.68C238.184 113.843 234.997 116.229 234.756 118.013C234.516 119.797 237.342 120.298 241.05 119.135C244.758 117.973 247.964 115.587 248.185 113.803Z" fill="#F79E77"/>
<path d="M76.0008 113.884C75.3595 112.26 78.1654 111.118 82.1739 111.498C86.1824 111.879 90.1908 113.503 90.732 115.307C91.2731 117.111 88.6676 118.074 84.579 117.673C80.4903 117.272 76.6422 115.588 76.0008 113.884Z" fill="#F79E77"/>
<path d="M147.873 188.897C150.983 188.897 153.505 187.587 153.505 185.971C153.505 184.354 150.983 183.044 147.873 183.044C144.762 183.044 142.241 184.354 142.241 185.971C142.241 187.587 144.762 188.897 147.873 188.897Z" fill="#FFC192"/>
<path d="M147.572 186.492C149.443 186.492 150.959 185.702 150.959 184.728C150.959 183.754 149.443 182.964 147.572 182.964C145.702 182.964 144.185 183.754 144.185 184.728C144.185 185.702 145.702 186.492 147.572 186.492Z" fill="#F4956C"/>
<path d="M13.0475 196.314C5.71195 252.003 107.968 244.706 108.93 272.911L113.42 274.194C112.237 247.733 35.0139 233.701 13.0475 196.314Z" fill="#F79E77"/>
<path d="M86.2825 274.635H115.825L111.315 268.621C111.315 268.621 94.4197 266.296 86.2825 274.635Z" fill="#F79E77"/>
<path d="M232.813 275.137H203.27L206.717 268.001C206.717 268.001 224.695 266.758 232.813 275.137Z" fill="#F79E77"/>
<path d="M208.802 272.089C206.336 235.584 310.517 233.379 281.696 175.365C276.324 164.179 253.917 151.029 238.104 175.365C220.947 201.846 202.288 237.729 203.29 274.815L208.802 272.089Z" fill="#FFC192"/>
<path d="M205.615 273.713L208.802 272.109C206.397 236.467 305.607 233.52 283.5 179.415C291.998 212.131 203.551 241.699 205.615 273.713Z" fill="#F79E77"/>
<path d="M277.467 203.671C282.216 203.671 286.065 197.514 286.065 189.919C286.065 182.324 282.216 176.167 277.467 176.167C272.718 176.167 268.869 182.324 268.869 189.919C268.869 197.514 272.718 203.671 277.467 203.671Z" fill="#FFC192"/>
<path d="M22.0467 214.616C26.7953 214.616 30.6449 208.459 30.6449 200.864C30.6449 193.269 26.7953 187.112 22.0467 187.112C17.298 187.112 13.4485 193.269 13.4485 200.864C13.4485 208.459 17.298 214.616 22.0467 214.616Z" fill="#FFC192"/>
<path d="M86.4627 115.628C86.8435 115.207 85.9617 114.646 84.4585 114.325C83.365 113.974 82.1805 114.038 81.1314 114.506C80.7506 114.926 81.6325 115.488 83.1357 115.809C84.2291 116.16 85.4136 116.095 86.4627 115.628Z" fill="#FFC192"/>
<path d="M246.521 114.264C246.521 113.703 245.559 113.743 244.177 114.264C242.794 114.786 241.631 115.768 241.551 116.269C241.471 116.77 242.513 116.79 243.896 116.269C245.279 115.748 246.421 114.746 246.521 114.264Z" fill="#FFC192"/>
<path d="M180.597 68.1141C182.705 67.3665 184.062 65.7708 183.629 64.5499C183.196 63.3291 181.137 62.9455 179.03 63.6932C176.922 64.4408 175.565 66.0365 175.998 67.2574C176.431 68.4782 178.49 68.8618 180.597 68.1141Z" fill="#FFB185"/>
<path d="M146.354 68.0832C146.641 66.8202 145.115 65.396 142.946 64.9022C140.776 64.4084 138.785 65.032 138.497 66.2951C138.21 67.5581 139.736 68.9823 141.905 69.4761C144.075 69.9699 146.066 69.3462 146.354 68.0832Z" fill="#FFB185"/>
<path d="M16.575 97.9863C16.575 97.9863 18.92 103.299 23.1489 104.562L23.4696 110.034C23.4696 110.034 15.4727 102.677 16.575 97.9863Z" fill="#F79E77"/>
<path d="M177.175 207.46C183.829 203.21 189.761 196.295 191.525 197.437C194.912 203.17 181.504 213.474 181.504 213.474L177.175 207.46Z" fill="#FFF4C7"/>
<path d="M121.537 212.772C114.803 208.181 110.674 197.196 112.378 195.652C114.081 194.108 124.884 207.519 124.884 207.519L121.537 212.772Z" fill="#FFF4C7"/>
<path d="M165.23 72.1074C165.65 72.1074 165.991 71.7932 165.991 71.4057C165.991 71.0182 165.65 70.7041 165.23 70.7041C164.809 70.7041 164.468 71.0182 164.468 71.4057C164.468 71.7932 164.809 72.1074 165.23 72.1074Z" fill="#CC6D50"/>
<path d="M156.732 72.1074C157.152 72.1074 157.493 71.7932 157.493 71.4057C157.493 71.0182 157.152 70.7041 156.732 70.7041C156.311 70.7041 155.97 71.0182 155.97 71.4057C155.97 71.7932 156.311 72.1074 156.732 72.1074Z" fill="#CC6D50"/>
<path style="mix-blend-mode:overlay" d="M284.462 181.961C284.181 181.159 283.867 180.344 283.52 179.516C283.159 178.62 282.758 177.711 282.318 176.789C282.617 173.714 282.394 170.609 281.656 167.608C298.532 146.7 325.509 116.791 304.023 82.6117C296.868 66.5746 262.135 50.5376 231.59 40.7149C229.105 39.9264 226.653 39.1713 224.235 38.4497H224.094L223.413 38.2492C213.011 34.4003 198.5 31.5537 181.805 30.2307C180.582 29.4489 179.28 28.627 177.796 27.7449C176.694 27.0634 175.612 26.462 174.55 25.9207C172.598 24.6688 170.522 23.6209 168.356 22.7935C171.002 16.6393 174.63 7.63847 175.051 3.60916C175.151 3.11979 175.151 2.61511 175.051 2.12573C175.016 2.01659 174.962 1.91469 174.89 1.82504C172.605 -0.861166 151.18 -0.861166 146.31 4.01009C146.007 4.32168 145.756 4.68052 145.568 5.07254C145.568 5.07254 145.568 5.23291 145.568 5.3131C145.421 5.66087 145.314 6.02395 145.248 6.3956C145.248 6.3956 145.248 6.51588 145.248 6.57602C145.206 7.02947 145.206 7.48572 145.248 7.93917V8.01935C145.468 12.7302 149.256 19.546 152.363 24.5175C150.381 25.9432 148.505 27.5109 146.751 29.2083L146.029 29.6694C123.882 30.8321 104.922 34.6409 93.1774 39.893L90.5719 40.775L89.8704 41.0156L86.9642 42.058L84.0581 43.1405L83.3165 43.4211C81.3123 44.1629 79.308 44.9647 77.3038 45.7666L76.5622 46.0673L73.5158 47.3302L70.4493 48.6532L69.7077 48.974C67.65 49.8694 65.6057 50.7915 63.5748 51.7404L62.8532 52.0812C60.8089 53.0434 58.8047 54.0257 56.8405 55.028L56.1791 55.3688C54.1749 56.3911 52.1706 57.3734 50.1664 58.4759L49.525 58.8368C47.5742 59.9059 45.6702 60.9817 43.813 62.0642L43.2317 62.405C41.3745 63.5009 39.5707 64.6168 37.8203 65.7527L37.2791 66.1136C35.5421 67.2495 33.8719 68.3922 32.2685 69.5415L31.7675 69.9023C22.9087 76.1768 16.435 82.6919 14.03 89.0265C-5.35105 120.419 14.531 151.05 24.8528 171.758C22.2273 174.464 18.8401 180.177 18.8401 182.202C16.0684 185.657 14.1832 189.738 13.3485 194.089C13.2082 194.851 13.108 195.573 13.0078 196.314C12.8875 197.156 12.8074 197.998 12.7472 198.82C12.7472 199.622 12.7472 200.424 12.647 201.206C12.647 201.206 12.647 201.206 12.647 201.306C12.647 202.088 12.647 202.829 12.647 203.591C12.647 203.591 12.647 203.591 12.647 203.712C12.647 204.453 12.647 205.175 12.8274 205.877V206.017C12.8274 206.718 13.0078 207.42 13.128 208.021V208.182C13.2483 208.863 13.3886 209.525 13.569 210.186V210.327C13.7293 210.968 13.9297 211.61 14.1302 212.331V212.492C14.3306 213.113 14.5511 213.715 14.7916 214.316V214.476C15.0321 215.078 15.2926 215.666 15.5732 216.24V216.381C15.8538 216.962 16.1544 217.523 16.4551 218.085V218.225C16.7758 218.786 17.0964 219.328 17.4572 219.849V219.989C17.7979 220.53 18.1787 221.052 18.5595 221.573V221.693C18.947 222.214 19.3479 222.722 19.7621 223.217V223.337C20.183 223.838 20.6039 224.319 21.0448 224.8V224.9C21.4857 225.382 21.9467 225.843 22.4277 226.324C22.9087 226.785 23.4098 227.246 23.9109 227.687C24.4119 228.148 24.933 228.589 25.4742 229.01L28.0596 230.533L29.8033 231.776L31.6472 232.999C47.9417 243.423 71.271 248.635 88.0064 255.05H88.1467L89.8503 255.712L90.1309 255.812L91.6542 256.453L92.0149 256.614L93.4179 257.215L93.8388 257.396L95.1015 257.997L95.5624 258.217L96.7249 258.799L97.2059 259.039L98.2681 259.621L98.7692 259.901L99.7312 260.483L100.232 260.783L101.094 261.365L101.575 261.685L102.357 262.267L102.818 262.628L103.519 263.209L103.96 263.59L104.582 264.191L105.002 264.592L105.544 265.214L105.924 265.635L106.405 266.276L106.726 266.717C106.866 266.938 106.987 267.158 107.127 267.379L107.387 267.84L107.548 268.18C102.156 268 91.8746 268.521 86.0623 274.515H115.064L115.845 274.736V274.515V274.395C112.197 260.758 106.708 247.681 99.5308 235.525C108.622 236.678 117.85 236.065 126.708 233.721C127.399 234.321 128.185 234.802 129.033 235.144C141.072 239.561 154.117 240.472 166.653 237.77C168.906 237.051 170.963 235.824 172.666 234.182C185.112 235.184 198.48 232.398 211.367 227.807C205.869 242.834 203.153 258.736 203.35 274.736H203.491L203.33 275.056H232.873C226.499 268.501 214.133 267.84 209.063 267.86C209.063 267.619 209.063 267.399 209.183 267.158C209.303 266.918 209.283 266.737 209.343 266.517C209.403 266.296 209.483 265.915 209.584 265.615C209.684 265.314 209.724 265.194 209.804 264.973C209.884 264.753 210.005 264.392 210.105 264.111L210.365 263.49C210.486 263.209 210.606 262.928 210.746 262.648L211.067 262.046L211.528 261.224L211.889 260.663L212.41 259.841L212.81 259.3L213.412 258.478L213.833 257.957L214.514 257.155L214.955 256.674L215.717 255.872L216.178 255.411L217.019 254.589L217.48 254.168L218.422 253.346L218.883 252.965L219.926 252.123L220.346 251.783L221.489 250.901L221.87 250.62L223.152 249.698L223.473 249.477L224.896 248.515L225.137 248.355L226.72 247.332H226.84C251.953 231.496 293.621 219.428 285.845 186.331C285.57 184.822 285.105 183.354 284.462 181.961V181.961ZM247.283 156.663C251.176 153.665 254.779 150.309 258.046 146.64C255.896 137.08 252.746 127.774 248.646 118.875C249.763 117.99 250.808 117.018 251.773 115.969C252.815 114.766 252.474 106.928 251.773 98.9294C261.133 99.8916 269.811 100.553 277.006 100.934C273.96 108.05 272.156 117.613 272.998 130.583C273.379 141.969 278.89 156.803 274.441 167.087C272.471 165.586 270.307 164.358 268.007 163.438C261.606 159.852 254.566 157.551 247.283 156.663V156.663ZM30.0639 170.194C26.797 159.59 34.7738 144.635 37.1589 132.928C38.9726 124.836 39.5203 116.511 38.7823 108.251C48.0419 102.879 60.4682 98.9094 73.596 95.301C71.5917 104.402 70.7299 114.104 74.7183 118.094C67.5898 127.778 61.9926 138.501 58.1232 149.887C58.0824 150.335 58.2032 150.783 58.4639 151.15V151.15C58.5842 151.351 58.7245 151.591 58.8848 151.832L59.0452 152.092L59.6064 152.834L59.907 153.235L60.5884 154.037L61.0294 154.558L61.8311 155.42L62.4123 156.041L63.3142 156.964L64.0357 157.685L65.0178 158.627L65.8997 159.449L66.9619 160.432L67.964 161.334L69.1065 162.336C54.1147 161.454 39.4638 163.9 30.0639 170.194Z" fill="url(#paint1_linear)"/>
<defs>
<linearGradient id="paint0_linear" x1="161.081" y1="53.7851" x2="161.081" y2="70.7042" gradientUnits="userSpaceOnUse">
<stop stop-color="#FFEAB0"/>
<stop offset="1" stop-color="#F46E00"/>
</linearGradient>
<linearGradient id="paint1_linear" x1="141.119" y1="2.64694" x2="178.633" y2="271.867" gradientUnits="userSpaceOnUse">
<stop stop-color="#FFE6A0"/>
<stop offset="1" stop-color="#3B0029"/>
</linearGradient>
</defs>
</svg>
