<svg width="354" height="172" viewBox="0 0 354 172" fill="none" xmlns="http://www.w3.org/2000/svg">
<path d="M4.38248 152.04C3.16567 151.655 2.09517 150.907 1.31452 149.895C0.533868 148.883 0.0803778 147.656 0.0148516 146.378C-0.0506746 145.101 0.274895 143.834 0.94791 142.747C1.62093 141.66 2.60921 140.805 3.78027 140.298C17.8638 134.262 33.5945 133.29 48.3105 137.547C49.8829 137.983 51.4219 138.52 52.9943 139.023C56.5648 140.438 60.3364 141.276 64.1687 141.506C67.5143 141.506 71.0607 139.392 71.2614 137.245C71.0387 135.178 70.34 133.191 69.2206 131.441C67.864 128.979 66.8295 126.352 66.1426 123.624C65.6387 120.964 65.6752 118.229 66.2501 115.583C66.8249 112.937 67.9263 110.435 69.4882 108.226C73.4859 102.372 79.6326 98.3432 86.5844 97.021C97.1231 95.1088 107.193 98.7655 116.695 103.026C118.208 103.716 119.386 104.98 119.969 106.54C120.553 108.1 120.494 109.829 119.806 111.346C119.119 112.863 117.858 114.044 116.302 114.629C114.746 115.214 113.022 115.155 111.509 114.466C104.015 111.111 96.1194 108.092 88.9597 109.367C85.3547 110.092 82.1672 112.182 80.0604 115.204C79.4297 115.976 78.9573 116.866 78.6703 117.821C78.3832 118.777 78.2872 119.78 78.3876 120.773C78.8694 122.455 79.543 124.076 80.395 125.604C82.6787 129.369 83.8396 133.711 83.7406 138.117C82.9042 147.88 73.2019 153.784 64.3025 153.885C59.1025 153.761 53.9588 152.774 49.08 150.966C47.6748 150.496 46.2696 150.027 44.8645 149.624C32.9181 146.266 20.1877 147.082 8.76524 151.939C7.36486 152.504 5.80721 152.54 4.38248 152.04V152.04Z" fill="#D14618"/>
<path d="M34.0246 72.6631L346.873 73.2334V78.5004L34.0246 77.9301C32.586 77.9301 19.7053 76.7559 19.7053 75.3134C19.7053 73.8037 32.586 72.6631 34.0246 72.6631Z" fill="#9D9D9C"/>
<path d="M345.267 84.6409C350.09 84.6409 354 80.7207 354 75.8849C354 71.0491 350.09 67.1289 345.267 67.1289C340.445 67.1289 336.535 71.0491 336.535 75.8849C336.535 80.7207 340.445 84.6409 345.267 84.6409Z" fill="#F9B233"/>
<path d="M163.4 139.87C200.096 123.078 216.268 79.6357 199.521 42.8396C182.775 6.04358 139.452 -10.1727 102.757 6.61946C66.061 23.4117 49.889 66.8535 66.6353 103.65C83.3816 140.446 126.705 156.662 163.4 139.87Z" fill="#E94E1B"/>
<g opacity="0.2">
<path opacity="0.2" d="M170.626 10.3994L120.442 145.363C124.946 146.172 129.516 146.554 134.092 146.503L181.6 18.4845C178.201 15.452 174.527 12.7452 170.626 10.3994V10.3994Z" fill="#1D1D1B"/>
<path opacity="0.2" d="M184.477 21.2002L137.873 146.367C142.957 146.038 147.992 145.172 152.895 143.784L194.046 33.0091C191.277 28.7481 188.07 24.7902 184.477 21.2002V21.2002Z" fill="#1D1D1B"/>
<path opacity="0.2" d="M174.708 133.452L203.881 55.1178C202.806 50.9055 201.362 46.7967 199.565 42.8393C198.662 40.8264 197.625 38.8806 196.554 37.002L157.243 142.342C159.284 141.604 161.325 140.799 163.332 139.893C167.308 138.09 171.114 135.934 174.708 133.452V133.452Z" fill="#1D1D1B"/>
<path opacity="0.2" d="M205.253 61.8613L180.161 129.293C189.768 121.161 197.124 110.685 201.519 98.8741C205.915 87.0631 207.2 74.3157 205.253 61.8613V61.8613Z" fill="#1D1D1B"/>
<path opacity="0.2" d="M143.861 70.7511L66.477 43.2754C64.6807 47.2987 63.2475 51.4754 62.1946 55.7552L139.378 83.1303L143.861 70.7511Z" fill="#1D1D1B"/>
<path opacity="0.2" d="M61.0571 61.0883C60.2676 66.0338 59.9873 71.0476 60.2207 76.0506L80.9301 66.5901L62.9306 60.3838L61.0571 61.0883Z" fill="#1D1D1B"/>
<path opacity="0.2" d="M60.2205 79.9425C60.6243 84.4835 61.4532 88.9764 62.6962 93.3617L103.714 74.6755L85.8479 68.335L60.2205 79.9425Z" fill="#1D1D1B"/>
<path opacity="0.2" d="M108.598 76.4199L63.9343 96.8506C64.715 99.0871 65.6183 101.324 66.6443 103.56C67.4807 105.372 68.3505 107.116 69.3208 108.794L126.497 82.6263L108.598 76.4199Z" fill="#1D1D1B"/>
<path opacity="0.2" d="M131.415 84.5059L71.1941 112.082C73.5763 115.918 76.3092 119.523 79.3574 122.851L133.824 97.9921L137.973 86.8207L131.415 84.5059Z" fill="#1D1D1B"/>
<path opacity="0.2" d="M82.0339 125.636C85.591 129.101 89.4923 132.193 93.6767 134.862L125.46 120.302L131.984 102.79L82.0339 125.636Z" fill="#1D1D1B"/>
<path opacity="0.2" d="M97.3906 137.177C102.672 140.092 108.29 142.345 114.119 143.886L117.029 142.544L123.553 125.032L97.3906 137.177Z" fill="#1D1D1B"/>
<path opacity="0.2" d="M149.883 54.9494L75.2759 28.5137C72.5201 32.0952 70.101 35.9248 68.0493 39.9535L145.266 67.3286L149.883 54.9494Z" fill="#1D1D1B"/>
<path opacity="0.2" d="M155.738 39.1494L88.4575 15.2969C84.5469 18.2782 80.9485 21.6503 77.718 25.3612L151.154 51.3944L155.738 39.1494Z" fill="#1D1D1B"/>
<path opacity="0.2" d="M161.627 23.4825L108.097 4.56152C106.257 5.23248 104.45 5.93699 102.643 6.77568C98.9002 8.49416 95.3077 10.5254 91.9041 12.8479L156.876 35.8952L161.627 23.4825Z" fill="#1D1D1B"/>
<path opacity="0.2" d="M167.28 8.48557C150.906 -0.193667 131.853 -2.30446 113.985 2.58114L162.931 19.9254L167.28 8.48557Z" fill="#1D1D1B"/>
</g>
<path d="M86.2834 88.4658L31.248 107.722C29.8763 108.192 18.1331 113.56 18.6015 114.935C19.0699 116.311 31.616 113.124 32.9542 112.654L88.4581 93.2296L86.2834 88.4658Z" fill="#9D9D9C"/>
<path d="M184.243 59.8153L263.735 32.0377L261.995 27.0391L182.068 54.9844L184.243 59.8153Z" fill="#9D9D9C"/>
<path d="M263.236 38.3989C267.769 36.8031 270.154 31.8245 268.563 27.2788C266.971 22.7332 262.006 20.3419 257.473 21.9377C252.94 23.5335 250.555 28.5121 252.146 33.0578C253.738 37.6034 258.703 39.9948 263.236 38.3989Z" fill="#F9B233"/>
<path d="M229.141 69.3773C228.284 69.3808 227.445 69.6329 226.727 70.1031C226.009 70.5733 225.441 71.2416 225.093 72.0276L223.521 75.5501C223.351 75.9467 223.267 76.3744 223.272 76.8058C223.278 77.2372 223.374 77.6626 223.553 78.0545C223.733 78.4465 223.993 78.7964 224.315 79.0815C224.638 79.3667 225.017 79.5808 225.428 79.71V79.71C226.266 80.0406 227.198 80.045 228.04 79.7223C228.882 79.3995 229.573 78.773 229.978 77.9656L232.019 73.3359C232.206 72.9043 232.285 72.4328 232.247 71.9634C232.208 71.494 232.055 71.0414 231.8 70.646C231.545 70.2507 231.196 69.9248 230.784 69.6975C230.373 69.4703 229.912 69.3487 229.442 69.3438L229.141 69.3773Z" fill="#E94E1B"/>
<path d="M233.658 79.5744C232.819 79.2438 231.887 79.2394 231.046 79.5622C230.204 79.8849 229.513 80.5115 229.108 81.3189L223.521 93.9329C223.351 94.3294 223.267 94.7572 223.272 95.1886C223.278 95.6199 223.374 96.0453 223.553 96.4373C223.733 96.8293 223.993 97.1791 224.315 97.4643C224.638 97.7494 225.017 97.9636 225.428 98.0928V98.0928C226.266 98.4234 227.198 98.4278 228.04 98.105C228.882 97.7823 229.573 97.1557 229.978 96.3483L235.565 83.8685C235.757 83.4654 235.86 83.025 235.867 82.5781C235.873 82.1311 235.782 81.6881 235.601 81.2797C235.419 80.8713 235.152 80.5073 234.816 80.2129C234.481 79.9185 234.086 79.7006 233.658 79.5744V79.5744Z" fill="#E94E1B"/>
<path d="M219.908 79.5419C219.47 79.6595 219.063 79.8726 218.717 80.1661C218.37 80.4596 218.093 80.8262 217.904 81.2396C217.716 81.6531 217.621 82.1033 217.626 82.5579C217.631 83.0125 217.736 83.4604 217.934 83.8696L221.915 92.7933L225.696 84.2722L224.424 81.4206C224.043 80.5969 223.367 79.9467 222.531 79.5988C221.695 79.2509 220.758 79.2306 219.908 79.5419V79.5419Z" fill="#E94E1B"/>
<path d="M241.788 88.028C242.626 88.3586 243.558 88.3629 244.4 88.0402C245.242 87.7174 245.933 87.0909 246.338 86.2835L251.925 73.8037C252.094 73.4071 252.179 72.9794 252.173 72.548C252.168 72.1166 252.072 71.6912 251.892 71.2992C251.712 70.9073 251.453 70.5574 251.13 70.2723C250.807 69.9871 250.428 69.773 250.018 69.6437C249.179 69.3131 248.247 69.3088 247.405 69.6315C246.564 69.9543 245.873 70.5808 245.468 71.3882L239.881 83.868C239.711 84.2646 239.626 84.6924 239.632 85.1237C239.638 85.5551 239.733 85.9805 239.913 86.3725C240.093 86.7644 240.352 87.1143 240.675 87.3994C240.998 87.6846 241.377 87.8987 241.788 88.028V88.028Z" fill="#E94E1B"/>
<path d="M234.193 73.8033L238.175 82.7271L241.955 74.2059L240.885 71.4214C240.48 70.614 239.789 69.9875 238.947 69.6647C238.105 69.342 237.173 69.3463 236.335 69.6769C235.907 69.7806 235.507 69.9749 235.161 70.2466C234.815 70.5182 234.531 70.8611 234.328 71.252C234.126 71.643 234.009 72.0729 233.985 72.513C233.962 72.9531 234.033 73.393 234.193 73.8033V73.8033Z" fill="#E94E1B"/>
<path d="M249.951 87.8957C249.112 87.5651 248.18 87.5607 247.339 87.8835C246.497 88.2062 245.806 88.8328 245.401 89.6402L239.881 102.12C239.711 102.517 239.626 102.944 239.632 103.376C239.638 103.807 239.733 104.232 239.913 104.624C240.093 105.016 240.352 105.366 240.675 105.651C240.998 105.937 241.377 106.151 241.788 106.28V106.28C242.626 106.611 243.558 106.615 244.4 106.292C245.242 105.969 245.933 105.343 246.338 104.535L251.891 92.0556C252.061 91.6591 252.145 91.2313 252.14 90.7999C252.134 90.3686 252.038 89.9432 251.859 89.5512C251.679 89.1592 251.419 88.8094 251.096 88.5242C250.774 88.2391 250.395 88.0249 249.984 87.8957H249.951Z" fill="#E94E1B"/>
<path d="M236.267 87.8947C235.842 88.0054 235.445 88.2061 235.104 88.4833C234.762 88.7605 234.484 89.1079 234.287 89.502C234.091 89.8961 233.981 90.3278 233.965 90.7681C233.948 91.2084 234.026 91.6471 234.193 92.0547L238.174 100.978L241.955 92.4573L240.884 89.6392C240.479 88.8158 239.776 88.1777 238.919 87.8538C238.062 87.53 237.114 87.5446 236.267 87.8947Z" fill="#E94E1B"/>
<path d="M262.296 69.3773C261.438 69.3808 260.6 69.6329 259.882 70.1031C259.164 70.5733 258.596 71.2416 258.248 72.0276L256.675 75.5501C256.506 75.9467 256.421 76.3744 256.427 76.8058C256.433 77.2372 256.528 77.6626 256.708 78.0545C256.888 78.4465 257.147 78.7964 257.47 79.0815C257.793 79.3667 258.172 79.5808 258.582 79.71V79.71C259.421 80.0406 260.353 80.045 261.195 79.7223C262.037 79.3995 262.728 78.773 263.133 77.9656L265.173 73.3359C265.361 72.9043 265.44 72.4328 265.401 71.9634C265.363 71.494 265.21 71.0414 264.955 70.646C264.699 70.2507 264.351 69.9248 263.939 69.6975C263.528 69.4703 263.067 69.3487 262.597 69.3438L262.296 69.3773Z" fill="#E94E1B"/>
<path d="M266.813 79.5744C265.974 79.2438 265.042 79.2394 264.2 79.5622C263.359 79.8849 262.667 80.5115 262.263 81.3189L256.675 93.9329C256.506 94.3294 256.421 94.7572 256.427 95.1886C256.433 95.6199 256.528 96.0453 256.708 96.4373C256.888 96.8293 257.147 97.1791 257.47 97.4643C257.793 97.7494 258.172 97.9636 258.582 98.0928C259.421 98.4234 260.353 98.4278 261.195 98.105C262.037 97.7823 262.728 97.1557 263.132 96.3483L268.72 83.8685C268.912 83.4654 269.015 83.025 269.021 82.5781C269.028 82.1311 268.937 81.6881 268.756 81.2797C268.574 80.8713 268.306 80.5073 267.971 80.2129C267.636 79.9185 267.24 79.7006 266.813 79.5744V79.5744Z" fill="#E94E1B"/>
<path d="M253.062 79.5412C252.624 79.6587 252.218 79.8719 251.871 80.1654C251.525 80.4589 251.248 80.8255 251.059 81.2389C250.871 81.6524 250.775 82.1026 250.78 82.5572C250.786 83.0118 250.891 83.4597 251.089 83.8689L255.07 92.7926L258.85 84.2714L257.612 81.2857C257.208 80.4783 256.517 79.8517 255.675 79.529C254.833 79.2062 253.901 79.2106 253.062 79.5412V79.5412Z" fill="#E94E1B"/>
<path d="M274.943 88.028C275.782 88.3586 276.713 88.3629 277.555 88.0402C278.397 87.7174 279.088 87.0909 279.493 86.2835L285.08 73.8037C285.25 73.4071 285.334 72.9794 285.329 72.548C285.323 72.1166 285.227 71.6912 285.048 71.2992C284.868 70.9073 284.608 70.5574 284.285 70.2723C283.963 69.9871 283.584 69.773 283.173 69.6437C282.334 69.3131 281.403 69.3088 280.561 69.6315C279.719 69.9543 279.028 70.5808 278.623 71.3882L273.036 83.868C272.867 84.2646 272.782 84.6924 272.788 85.1237C272.793 85.5551 272.889 85.9805 273.069 86.3725C273.248 86.7644 273.508 87.1143 273.831 87.3994C274.154 87.6846 274.533 87.8987 274.943 88.028V88.028Z" fill="#E94E1B"/>
<path d="M267.448 73.805L271.43 82.7287L275.21 74.2076L273.939 71.356C273.534 70.5486 272.843 69.922 272.001 69.5993C271.159 69.2765 270.227 69.2809 269.389 69.6115V69.6115C268.971 69.7364 268.585 69.9489 268.255 70.2348C267.925 70.5207 267.66 70.8736 267.477 71.27C267.293 71.6665 267.196 72.0974 267.191 72.5345C267.186 72.9715 267.274 73.4045 267.448 73.805Z" fill="#E94E1B"/>
<path d="M283.106 87.8957C282.268 87.5651 281.336 87.5607 280.494 87.8835C279.652 88.2062 278.961 88.8328 278.556 89.6402L273.003 102.12C272.833 102.517 272.749 102.944 272.754 103.376C272.76 103.807 272.856 104.232 273.035 104.624C273.215 105.016 273.475 105.366 273.797 105.651C274.12 105.937 274.499 106.151 274.91 106.28C275.748 106.611 276.68 106.615 277.522 106.292C278.364 105.969 279.055 105.343 279.46 104.535L285.013 92.0556C285.183 91.6591 285.267 91.2313 285.262 90.7999C285.256 90.3686 285.16 89.9432 284.981 89.5512C284.801 89.1592 284.541 88.8094 284.219 88.5242C283.896 88.2391 283.517 88.0249 283.106 87.8957Z" fill="#E94E1B"/>
<path d="M269.422 87.8959C269.012 88.0252 268.633 88.2393 268.31 88.5244C267.987 88.8096 267.728 89.1594 267.548 89.5514C267.368 89.9434 267.272 90.3688 267.267 90.8002C267.261 91.2315 267.346 91.6593 267.515 92.0558L271.497 100.98L275.277 92.4584L274.006 89.6068C273.595 88.7975 272.895 88.1724 272.047 87.8556C271.198 87.5387 270.261 87.5531 269.422 87.8959V87.8959Z" fill="#E94E1B"/>
<path d="M295.452 69.3773C294.594 69.3808 293.755 69.6329 293.037 70.1031C292.319 70.5733 291.752 71.2416 291.403 72.0276L289.831 75.5501C289.662 75.9467 289.577 76.3744 289.583 76.8058C289.588 77.2372 289.684 77.6626 289.864 78.0545C290.043 78.4465 290.303 78.7964 290.626 79.0815C290.949 79.3667 291.327 79.5808 291.738 79.71V79.71C292.577 80.0406 293.508 80.045 294.35 79.7223C295.192 79.3995 295.883 78.773 296.288 77.9656L298.329 73.3359C298.517 72.9043 298.595 72.4328 298.557 71.9634C298.519 71.494 298.365 71.0414 298.11 70.646C297.855 70.2507 297.506 69.9248 297.095 69.6975C296.683 69.4703 296.222 69.3487 295.753 69.3438L295.452 69.3773Z" fill="#E94E1B"/>
<path d="M299.968 79.5744C299.129 79.2438 298.198 79.2394 297.356 79.5622C296.514 79.8849 295.823 80.5115 295.418 81.3189L289.831 93.9329C289.662 94.3294 289.577 94.7572 289.583 95.1886C289.588 95.6199 289.684 96.0453 289.864 96.4373C290.043 96.8293 290.303 97.1791 290.626 97.4643C290.949 97.7494 291.327 97.9636 291.738 98.0928C292.577 98.4234 293.508 98.4278 294.35 98.105C295.192 97.7823 295.883 97.1557 296.288 96.3483L301.875 83.8685C302.068 83.4654 302.171 83.025 302.177 82.5781C302.183 82.1311 302.092 81.6881 301.911 81.2797C301.73 80.8713 301.462 80.5073 301.127 80.2129C300.791 79.9185 300.396 79.7006 299.968 79.5744Z" fill="#E94E1B"/>
<path d="M286.218 79.5409C285.791 79.6736 285.399 79.8977 285.068 80.1977C284.737 80.4976 284.474 80.8662 284.299 81.2779C284.124 81.6896 284.041 82.1345 284.054 82.5818C284.068 83.0292 284.178 83.4682 284.378 83.8685L288.359 92.7923L292.139 84.2711L290.868 81.4195C290.486 80.5639 289.788 79.8902 288.921 79.5398C288.054 79.1895 287.085 79.1899 286.218 79.5409V79.5409Z" fill="#E94E1B"/>
<path d="M308.098 88.028C308.937 88.3586 309.868 88.3629 310.71 88.0402C311.552 87.7174 312.243 87.0909 312.648 86.2835L318.269 73.8037C318.438 73.4071 318.523 72.9794 318.517 72.548C318.511 72.1166 318.416 71.6912 318.236 71.2992C318.056 70.9073 317.797 70.5574 317.474 70.2723C317.151 69.9871 316.772 69.773 316.362 69.6437V69.6437C315.523 69.3131 314.591 69.3088 313.749 69.6315C312.907 69.9543 312.216 70.5808 311.811 71.3882L306.191 83.868C306.021 84.2646 305.937 84.6924 305.942 85.1237C305.948 85.5551 306.044 85.9805 306.223 86.3725C306.403 86.7644 306.663 87.1143 306.986 87.3994C307.308 87.6846 307.687 87.8987 308.098 88.028V88.028Z" fill="#E94E1B"/>
<path d="M300.604 73.8037L304.451 82.761L308.232 74.2398L306.96 71.3882C306.555 70.5808 305.864 69.9543 305.022 69.6315C304.181 69.3088 303.249 69.3131 302.41 69.6437V69.6437C302.009 69.7836 301.64 70.0054 301.328 70.2951C301.017 70.5848 300.768 70.9361 300.598 71.3269C300.429 71.7177 300.341 72.1396 300.342 72.5659C300.343 72.9921 300.432 73.4136 300.604 73.8037Z" fill="#E94E1B"/>
<path d="M316.328 87.8957C315.489 87.5651 314.558 87.5607 313.716 87.8835C312.874 88.2062 312.183 88.8328 311.778 89.6402L306.224 102.12C306.055 102.517 305.97 102.944 305.976 103.376C305.981 103.807 306.077 104.232 306.257 104.624C306.437 105.016 306.696 105.366 307.019 105.651C307.342 105.937 307.721 106.151 308.131 106.28C308.97 106.611 309.902 106.615 310.744 106.292C311.585 105.969 312.276 105.343 312.681 104.535L318.235 92.0556C318.404 91.6591 318.489 91.2313 318.483 90.7999C318.478 90.3686 318.382 89.9432 318.202 89.5512C318.023 89.1592 317.763 88.8094 317.44 88.5242C317.117 88.2391 316.738 88.0249 316.328 87.8957V87.8957Z" fill="#E94E1B"/>
<path d="M307.128 89.6402C306.723 88.8328 306.032 88.2062 305.19 87.8835C304.348 87.5607 303.417 87.5651 302.578 87.8957V87.8957C302.167 88.0249 301.788 88.2391 301.466 88.5242C301.143 88.8094 300.883 89.1592 300.703 89.5512C300.524 89.9432 300.428 90.3686 300.422 90.7999C300.417 91.2313 300.501 91.6591 300.671 92.0556L304.451 100.979L308.232 92.4582L307.128 89.6402Z" fill="#E94E1B"/>
<path d="M233.658 97.7922C232.819 97.4616 231.887 97.4572 231.046 97.78C230.204 98.1027 229.513 98.7293 229.108 99.5367L223.554 112.016C223.385 112.413 223.3 112.841 223.306 113.272C223.311 113.704 223.407 114.129 223.587 114.521C223.766 114.913 224.026 115.263 224.349 115.548C224.672 115.833 225.051 116.047 225.461 116.176C226.3 116.507 227.232 116.511 228.073 116.189C228.915 115.866 229.606 115.239 230.011 114.432L235.565 101.952C235.734 101.556 235.819 101.128 235.813 100.696C235.808 100.265 235.712 99.8397 235.532 99.4477C235.353 99.0557 235.093 98.7059 234.77 98.4207C234.447 98.1356 234.068 97.9214 233.658 97.7922Z" fill="#E94E1B"/>
<path d="M217.934 101.95L221.915 110.874L225.695 102.353L224.424 99.5015C224.019 98.6941 223.328 98.0675 222.486 97.7448C221.644 97.4221 220.713 97.4264 219.874 97.757V97.757C219.456 97.882 219.07 98.0944 218.74 98.3803C218.411 98.6662 218.145 99.0191 217.962 99.4155C217.779 99.812 217.681 100.243 217.676 100.68C217.671 101.117 217.759 101.55 217.934 101.95V101.95Z" fill="#E94E1B"/>
<path d="M225.428 134.36C226.266 134.691 227.198 134.695 228.04 134.372C228.882 134.049 229.573 133.423 229.978 132.616L235.531 120.136C235.701 119.739 235.785 119.311 235.78 118.88C235.774 118.449 235.678 118.023 235.499 117.631C235.319 117.239 235.059 116.889 234.737 116.604C234.414 116.319 234.035 116.105 233.624 115.976V115.976C232.786 115.645 231.854 115.641 231.012 115.964C230.17 116.286 229.479 116.913 229.074 117.72L223.521 130.2C223.351 130.597 223.267 131.024 223.272 131.456C223.278 131.887 223.374 132.313 223.553 132.705C223.733 133.096 223.993 133.446 224.315 133.731C224.638 134.017 225.017 134.231 225.428 134.36V134.36Z" fill="#E94E1B"/>
<path d="M217.934 120.169L221.915 129.093L225.695 120.572L224.424 117.72C224.019 116.913 223.328 116.286 222.486 115.964C221.644 115.641 220.713 115.645 219.874 115.976C219.456 116.101 219.07 116.313 218.74 116.599C218.411 116.885 218.145 117.238 217.962 117.634C217.779 118.031 217.681 118.462 217.676 118.899C217.671 119.336 217.759 119.769 217.934 120.169Z" fill="#E94E1B"/>
<path d="M249.951 106.111C249.112 105.78 248.18 105.776 247.339 106.098C246.497 106.421 245.806 107.048 245.401 107.855L239.881 120.301C239.711 120.698 239.626 121.126 239.632 121.557C239.638 121.988 239.733 122.414 239.913 122.806C240.093 123.198 240.352 123.548 240.675 123.833C240.998 124.118 241.377 124.332 241.788 124.461V124.461C242.626 124.792 243.558 124.796 244.4 124.473C245.242 124.151 245.933 123.524 246.338 122.717L251.891 110.237C252.061 109.84 252.145 109.413 252.14 108.981C252.134 108.55 252.038 108.124 251.859 107.732C251.679 107.341 251.419 106.991 251.096 106.706C250.774 106.42 250.395 106.206 249.984 106.077L249.951 106.111Z" fill="#E94E1B"/>
<path d="M236.267 106.111C235.842 106.221 235.445 106.422 235.104 106.699C234.762 106.976 234.484 107.324 234.287 107.718C234.091 108.112 233.981 108.544 233.965 108.984C233.948 109.424 234.026 109.863 234.193 110.27L238.174 119.194L242.055 110.707L240.884 107.855C240.479 107.032 239.776 106.393 238.919 106.07C238.062 105.746 237.114 105.76 236.267 106.111V106.111Z" fill="#E94E1B"/>
<path d="M241.788 142.677C242.634 143.015 243.577 143.019 244.427 142.69C245.277 142.36 245.971 141.72 246.371 140.899L251.925 128.486C252.094 128.09 252.179 127.662 252.173 127.231C252.168 126.799 252.072 126.374 251.892 125.982C251.712 125.59 251.453 125.24 251.13 124.955C250.807 124.67 250.428 124.456 250.018 124.326V124.326C249.179 123.996 248.247 123.991 247.405 124.314C246.564 124.637 245.873 125.263 245.468 126.071L239.881 138.517C239.711 138.914 239.626 139.341 239.632 139.773C239.638 140.204 239.733 140.63 239.913 141.022C240.093 141.413 240.352 141.763 240.675 142.048C240.998 142.334 241.377 142.548 241.788 142.677V142.677Z" fill="#E94E1B"/>
<path d="M238.275 137.544L242.056 129.023L240.885 126.071C240.48 125.263 239.789 124.637 238.947 124.314C238.105 123.991 237.173 123.996 236.335 124.326C235.903 124.429 235.499 124.624 235.15 124.898C234.801 125.172 234.515 125.518 234.312 125.913C234.108 126.308 233.992 126.743 233.972 127.187C233.952 127.631 234.027 128.074 234.193 128.486L238.275 137.544Z" fill="#E94E1B"/>
<path d="M266.813 97.7922C265.974 97.4616 265.042 97.4572 264.2 97.78C263.359 98.1027 262.667 98.7293 262.263 99.5367L256.709 112.016C256.539 112.413 256.455 112.841 256.46 113.272C256.466 113.704 256.562 114.129 256.742 114.521C256.921 114.913 257.181 115.263 257.504 115.548C257.827 115.833 258.205 116.047 258.616 116.176C259.455 116.507 260.386 116.511 261.228 116.189C262.07 115.866 262.761 115.239 263.166 114.432L268.72 101.952C268.889 101.556 268.974 101.128 268.968 100.696C268.962 100.265 268.867 99.8397 268.687 99.4477C268.507 99.0557 268.248 98.7059 267.925 98.4207C267.602 98.1356 267.223 97.9214 266.813 97.7922Z" fill="#E94E1B"/>
<path d="M253.062 97.757C252.652 97.8863 252.273 98.1004 251.95 98.3855C251.627 98.6707 251.368 99.0205 251.188 99.4125C251.008 99.8045 250.913 100.23 250.907 100.661C250.901 101.093 250.986 101.52 251.155 101.917L255.137 110.841L258.917 102.32L257.612 99.5015C257.208 98.6941 256.517 98.0675 255.675 97.7448C254.833 97.4221 253.901 97.4264 253.062 97.757V97.757Z" fill="#E94E1B"/>
<path d="M263.166 132.648L268.72 120.168C268.889 119.771 268.974 119.344 268.968 118.912C268.962 118.481 268.867 118.055 268.687 117.663C268.507 117.272 268.248 116.922 267.925 116.637C267.602 116.351 267.223 116.137 266.813 116.008V116.008C265.974 115.677 265.042 115.673 264.2 115.996C263.359 116.319 262.667 116.945 262.263 117.752L256.709 130.232C256.539 130.629 256.455 131.057 256.46 131.488C256.466 131.919 256.562 132.345 256.742 132.737C256.921 133.129 257.181 133.479 257.504 133.764C257.827 134.049 258.205 134.263 258.616 134.392V134.392C259.455 134.723 260.386 134.727 261.228 134.404C262.07 134.082 262.761 133.455 263.166 132.648V132.648Z" fill="#E94E1B"/>
<path d="M253.062 115.976C252.652 116.105 252.273 116.319 251.95 116.604C251.627 116.889 251.368 117.239 251.188 117.631C251.008 118.023 250.913 118.449 250.907 118.88C250.901 119.311 250.986 119.739 251.155 120.136L255.137 129.059L258.917 120.538L257.612 117.72C257.208 116.913 256.517 116.286 255.675 115.964C254.833 115.641 253.901 115.645 253.062 115.976Z" fill="#E94E1B"/>
<path d="M283.106 106.111C282.268 105.78 281.336 105.776 280.494 106.098C279.652 106.421 278.961 107.048 278.556 107.855L273.003 120.335C272.833 120.731 272.749 121.159 272.754 121.591C272.76 122.022 272.856 122.447 273.035 122.839C273.215 123.231 273.475 123.581 273.797 123.866C274.12 124.151 274.499 124.365 274.91 124.495C275.748 124.825 276.68 124.83 277.522 124.507C278.364 124.184 279.055 123.558 279.46 122.75L285.013 110.27C285.183 109.874 285.267 109.446 285.262 109.015C285.256 108.583 285.16 108.158 284.981 107.766C284.801 107.374 284.541 107.024 284.219 106.739C283.896 106.454 283.517 106.24 283.106 106.111V106.111Z" fill="#E94E1B"/>
<path d="M269.422 106.11C269.012 106.24 268.633 106.454 268.31 106.739C267.987 107.024 267.728 107.374 267.548 107.766C267.368 108.158 267.272 108.583 267.267 109.015C267.261 109.446 267.346 109.874 267.515 110.27L271.497 119.194L275.21 110.706L273.939 107.855C273.535 107.055 272.849 106.434 272.015 106.112C271.181 105.79 270.257 105.789 269.422 106.11V106.11Z" fill="#E94E1B"/>
<path d="M274.943 142.679C275.79 143.017 276.732 143.021 277.582 142.691C278.432 142.362 279.127 141.722 279.526 140.901L285.08 128.421C285.249 128.024 285.334 127.597 285.328 127.165C285.323 126.734 285.227 126.308 285.047 125.916C284.868 125.524 284.608 125.175 284.285 124.889C283.962 124.604 283.583 124.39 283.173 124.261C282.334 123.93 281.403 123.926 280.561 124.249C279.719 124.571 279.028 125.198 278.623 126.005L273.069 138.485C272.894 138.881 272.803 139.31 272.804 139.744C272.804 140.177 272.896 140.606 273.073 141.001C273.249 141.397 273.507 141.751 273.83 142.04C274.152 142.329 274.531 142.546 274.943 142.679V142.679Z" fill="#E94E1B"/>
<path d="M271.43 137.545L275.21 129.024L273.939 126.172C273.534 125.365 272.843 124.738 272.001 124.416C271.159 124.093 270.228 124.097 269.389 124.428V124.428C268.978 124.557 268.6 124.771 268.277 125.056C267.954 125.342 267.694 125.691 267.514 126.083C267.335 126.475 267.239 126.901 267.233 127.332C267.228 127.764 267.312 128.191 267.482 128.588L271.43 137.545Z" fill="#E94E1B"/>
<path d="M296.321 114.432L301.875 101.952C302.045 101.556 302.129 101.128 302.124 100.696C302.118 100.265 302.022 99.8397 301.843 99.4477C301.663 99.0557 301.403 98.7059 301.08 98.4207C300.758 98.1356 300.379 97.9214 299.968 97.7922V97.7922C299.129 97.4616 298.198 97.4572 297.356 97.78C296.514 98.1027 295.823 98.7293 295.418 99.5367L289.864 112.016C289.695 112.413 289.61 112.841 289.616 113.272C289.622 113.704 289.717 114.129 289.897 114.521C290.077 114.913 290.336 115.263 290.659 115.548C290.982 115.833 291.361 116.047 291.771 116.176V116.176C292.61 116.507 293.542 116.511 294.384 116.189C295.225 115.866 295.917 115.239 296.321 114.432Z" fill="#E94E1B"/>
<path d="M286.217 97.7579C285.809 97.8937 285.433 98.114 285.114 98.4046C284.796 98.6951 284.542 99.0495 284.368 99.4447C284.195 99.8399 284.106 100.267 284.107 100.699C284.109 101.131 284.201 101.557 284.377 101.951L288.359 110.875L292.139 102.354L290.868 99.5024C290.462 98.6709 289.754 98.0268 288.889 97.7023C288.024 97.3779 287.068 97.3978 286.217 97.7579V97.7579Z" fill="#E94E1B"/>
<path d="M296.321 132.648L301.875 120.168C302.045 119.771 302.129 119.344 302.124 118.912C302.118 118.481 302.022 118.055 301.843 117.663C301.663 117.272 301.403 116.922 301.08 116.637C300.758 116.351 300.379 116.137 299.968 116.008V116.008C299.129 115.677 298.198 115.673 297.356 115.996C296.514 116.319 295.823 116.945 295.418 117.752L289.864 130.232C289.695 130.629 289.61 131.057 289.616 131.488C289.622 131.919 289.717 132.345 289.897 132.737C290.077 133.129 290.336 133.479 290.659 133.764C290.982 134.049 291.361 134.263 291.771 134.392V134.392C292.61 134.723 293.542 134.727 294.384 134.404C295.225 134.082 295.917 133.455 296.321 132.648V132.648Z" fill="#E94E1B"/>
<path d="M286.217 115.974C285.809 116.11 285.433 116.33 285.114 116.62C284.796 116.911 284.542 117.265 284.368 117.661C284.195 118.056 284.106 118.483 284.107 118.915C284.109 119.347 284.201 119.773 284.377 120.167L288.359 129.091L292.139 120.57L290.868 117.718C290.462 116.887 289.754 116.243 288.889 115.918C288.024 115.594 287.068 115.614 286.217 115.974V115.974Z" fill="#E94E1B"/>
<path d="M316.328 106.111C315.489 105.78 314.558 105.776 313.716 106.098C312.874 106.421 312.183 107.048 311.778 107.855L306.224 120.335C306.055 120.731 305.97 121.159 305.976 121.591C305.981 122.022 306.077 122.447 306.257 122.839C306.437 123.231 306.696 123.581 307.019 123.866C307.342 124.151 307.721 124.365 308.131 124.495C308.97 124.825 309.902 124.83 310.744 124.507C311.585 124.184 312.276 123.558 312.681 122.75L318.235 110.27C318.404 109.874 318.489 109.446 318.483 109.015C318.478 108.583 318.382 108.158 318.202 107.766C318.023 107.374 317.763 107.024 317.44 106.739C317.117 106.454 316.738 106.24 316.328 106.111V106.111Z" fill="#E94E1B"/>
<path d="M307.128 107.855C306.723 107.048 306.032 106.421 305.19 106.098C304.348 105.776 303.417 105.78 302.578 106.111V106.111C302.167 106.24 301.788 106.454 301.466 106.739C301.143 107.024 300.883 107.374 300.703 107.766C300.524 108.158 300.428 108.583 300.422 109.015C300.417 109.446 300.501 109.874 300.671 110.27L304.451 119.194L308.399 110.707L307.128 107.855Z" fill="#E94E1B"/>
<path d="M316.328 124.326C315.489 123.996 314.558 123.991 313.716 124.314C312.874 124.637 312.183 125.263 311.778 126.071L306.224 138.551C306.055 138.947 305.97 139.375 305.976 139.806C305.981 140.238 306.077 140.663 306.257 141.055C306.437 141.447 306.696 141.797 307.019 142.082C307.342 142.367 307.721 142.581 308.131 142.711V142.711C308.982 143.046 309.928 143.046 310.779 142.71C311.629 142.373 312.321 141.726 312.715 140.899L318.268 128.419C318.426 128.024 318.501 127.6 318.487 127.175C318.474 126.75 318.373 126.332 318.191 125.947C318.008 125.563 317.749 125.221 317.428 124.942C317.108 124.663 316.733 124.453 316.328 124.326V124.326Z" fill="#E94E1B"/>
<path d="M304.451 137.545L308.232 129.024L306.96 126.172C306.556 125.365 305.864 124.738 305.023 124.416C304.181 124.093 303.249 124.097 302.41 124.428V124.428C302 124.557 301.621 124.771 301.298 125.056C300.975 125.342 300.716 125.691 300.536 126.083C300.356 126.475 300.261 126.901 300.255 127.332C300.249 127.764 300.334 128.191 300.503 128.588L304.451 137.545Z" fill="#E94E1B"/>
<path d="M230.011 150.965L235.565 138.485C235.757 138.082 235.86 137.641 235.867 137.194C235.873 136.747 235.782 136.304 235.601 135.896C235.419 135.488 235.152 135.124 234.816 134.829C234.481 134.535 234.086 134.317 233.658 134.191C232.819 133.86 231.887 133.856 231.046 134.178C230.204 134.501 229.513 135.128 229.108 135.935L223.554 148.415C223.385 148.811 223.3 149.239 223.306 149.671C223.311 150.102 223.407 150.527 223.587 150.919C223.766 151.311 224.026 151.661 224.349 151.946C224.672 152.231 225.051 152.446 225.461 152.575C226.284 152.916 227.204 152.94 228.043 152.643C228.883 152.346 229.584 151.748 230.011 150.965V150.965Z" fill="#E94E1B"/>
<path d="M217.933 138.384L221.915 147.308L225.695 138.787L224.424 135.935C224.019 135.135 223.334 134.515 222.5 134.192C221.666 133.87 220.742 133.869 219.907 134.19V134.19C219.487 134.312 219.097 134.521 218.763 134.806C218.43 135.09 218.161 135.442 217.974 135.839C217.787 136.236 217.687 136.668 217.68 137.107C217.673 137.546 217.759 137.981 217.933 138.384V138.384Z" fill="#E94E1B"/>
<path d="M230.011 169.082L235.565 156.602C235.734 156.206 235.819 155.778 235.813 155.347C235.808 154.915 235.712 154.49 235.532 154.098C235.353 153.706 235.093 153.356 234.77 153.071C234.447 152.786 234.068 152.572 233.658 152.443C232.819 152.112 231.887 152.108 231.046 152.43C230.204 152.753 229.513 153.38 229.108 154.187L223.554 166.667C223.385 167.063 223.3 167.491 223.306 167.923C223.311 168.354 223.407 168.779 223.587 169.171C223.766 169.563 224.026 169.913 224.349 170.198C224.672 170.483 225.051 170.698 225.461 170.827V170.827C226.3 171.157 227.232 171.162 228.073 170.839C228.915 170.516 229.606 169.89 230.011 169.082V169.082Z" fill="#E94E1B"/>
<path d="M217.934 156.602L221.915 165.526L225.695 157.005L224.424 154.321C224.019 153.513 223.328 152.887 222.486 152.564C221.644 152.241 220.713 152.246 219.874 152.576C219.477 152.704 219.11 152.911 218.795 153.186C218.48 153.46 218.225 153.796 218.043 154.172C217.862 154.549 217.758 154.958 217.739 155.376C217.721 155.794 217.787 156.211 217.934 156.602V156.602Z" fill="#E94E1B"/>
<path d="M241.788 161.028C242.626 161.359 243.558 161.363 244.4 161.04C245.242 160.717 245.933 160.091 246.338 159.283L251.891 146.804C252.061 146.407 252.145 145.979 252.14 145.548C252.134 145.117 252.038 144.691 251.859 144.299C251.679 143.907 251.419 143.557 251.097 143.272C250.774 142.987 250.395 142.773 249.984 142.644V142.644C249.146 142.313 248.214 142.309 247.372 142.632C246.53 142.954 245.839 143.581 245.434 144.388L239.881 156.734C239.688 157.137 239.585 157.577 239.579 158.024C239.573 158.471 239.663 158.914 239.845 159.323C240.026 159.731 240.294 160.095 240.629 160.389C240.965 160.684 241.36 160.902 241.788 161.028V161.028Z" fill="#E94E1B"/>
<path d="M238.275 155.629L242.055 147.108L240.884 144.256C240.479 143.449 239.788 142.822 238.946 142.5C238.105 142.177 237.173 142.181 236.334 142.512C235.899 142.614 235.491 142.81 235.138 143.086C234.786 143.362 234.498 143.712 234.294 144.111C234.09 144.51 233.976 144.949 233.958 145.397C233.941 145.845 234.021 146.292 234.193 146.705L238.275 155.629Z" fill="#E94E1B"/>
<path d="M250.018 160.761C249.179 160.43 248.247 160.426 247.405 160.749C246.564 161.071 245.873 161.698 245.468 162.505L241.219 172.033H248.813L251.958 164.954C252.133 164.554 252.22 164.121 252.216 163.684C252.211 163.247 252.113 162.816 251.93 162.419C251.746 162.023 251.481 161.67 251.151 161.384C250.822 161.098 250.435 160.886 250.018 160.761V160.761Z" fill="#E94E1B"/>
<path d="M240.885 162.505C240.48 161.698 239.789 161.071 238.947 160.749C238.105 160.426 237.173 160.43 236.335 160.761V160.761C235.903 160.864 235.499 161.059 235.15 161.333C234.801 161.607 234.515 161.953 234.312 162.348C234.108 162.743 233.992 163.177 233.972 163.621C233.952 164.066 234.027 164.509 234.193 164.921L237.539 171.999H239.178L242.156 165.29L240.885 162.505Z" fill="#E94E1B"/>
<path d="M263.166 150.965L268.72 138.485C268.912 138.082 269.015 137.641 269.021 137.194C269.028 136.747 268.937 136.304 268.755 135.896C268.574 135.488 268.306 135.124 267.971 134.829C267.636 134.535 267.24 134.317 266.813 134.191V134.191C265.974 133.86 265.042 133.856 264.2 134.178C263.359 134.501 262.667 135.128 262.263 135.935L256.709 148.415C256.539 148.811 256.455 149.239 256.46 149.671C256.466 150.102 256.562 150.527 256.742 150.919C256.921 151.311 257.181 151.661 257.504 151.946C257.827 152.231 258.205 152.446 258.616 152.575C259.439 152.916 260.359 152.94 261.198 152.643C262.038 152.346 262.739 151.748 263.166 150.965Z" fill="#E94E1B"/>
<path d="M255.07 147.308L258.85 138.787L257.612 135.935C257.208 135.128 256.517 134.501 255.675 134.178C254.833 133.856 253.901 133.86 253.062 134.191C252.652 134.32 252.273 134.534 251.95 134.819C251.627 135.104 251.368 135.454 251.188 135.846C251.008 136.238 250.913 136.663 250.907 137.095C250.901 137.526 250.986 137.954 251.155 138.351L255.07 147.308Z" fill="#E94E1B"/>
<path d="M263.166 169.082L268.72 156.602C268.889 156.206 268.974 155.778 268.968 155.347C268.962 154.915 268.867 154.49 268.687 154.098C268.507 153.706 268.248 153.356 267.925 153.071C267.602 152.786 267.223 152.572 266.813 152.443V152.443C265.974 152.112 265.042 152.108 264.2 152.43C263.359 152.753 262.667 153.38 262.263 154.187L256.709 166.667C256.539 167.063 256.455 167.491 256.46 167.923C256.466 168.354 256.562 168.779 256.742 169.171C256.921 169.563 257.181 169.913 257.504 170.198C257.827 170.483 258.205 170.698 258.616 170.827V170.827C259.455 171.157 260.386 171.162 261.228 170.839C262.07 170.516 262.761 169.89 263.166 169.082V169.082Z" fill="#E94E1B"/>
<path d="M255.07 165.526L258.85 157.005L257.612 154.321C257.208 153.513 256.517 152.887 255.675 152.564C254.833 152.241 253.901 152.246 253.062 152.576C252.652 152.706 252.273 152.92 251.95 153.205C251.627 153.49 251.368 153.84 251.188 154.232C251.008 154.624 250.913 155.049 250.907 155.481C250.901 155.912 250.986 156.34 251.155 156.736L255.07 165.526Z" fill="#E94E1B"/>
<path d="M274.943 161.028C275.782 161.359 276.713 161.363 277.555 161.04C278.397 160.717 279.088 160.091 279.493 159.283L285.047 146.804C285.216 146.407 285.301 145.979 285.295 145.548C285.29 145.117 285.194 144.691 285.014 144.299C284.834 143.907 284.575 143.557 284.252 143.272C283.929 142.987 283.55 142.773 283.14 142.644C282.301 142.313 281.369 142.309 280.528 142.632C279.686 142.954 278.995 143.581 278.59 144.388L273.036 156.868C272.867 157.265 272.782 157.692 272.788 158.124C272.793 158.555 272.889 158.98 273.069 159.372C273.248 159.764 273.508 160.114 273.831 160.399C274.154 160.685 274.533 160.899 274.943 161.028V161.028Z" fill="#E94E1B"/>
<path d="M271.43 155.629L275.21 147.108L273.972 144.256C273.567 143.449 272.876 142.822 272.035 142.5C271.193 142.177 270.261 142.181 269.422 142.512C269.012 142.641 268.633 142.855 268.31 143.14C267.987 143.426 267.728 143.775 267.548 144.167C267.368 144.559 267.272 144.985 267.267 145.416C267.261 145.848 267.346 146.275 267.515 146.672L271.43 155.629Z" fill="#E94E1B"/>
<path d="M283.173 160.761C282.334 160.43 281.403 160.426 280.561 160.749C279.719 161.071 279.028 161.698 278.623 162.505L274.341 171.999H281.935L285.08 164.921C285.25 164.524 285.334 164.097 285.329 163.665C285.323 163.234 285.227 162.808 285.048 162.416C284.868 162.024 284.608 161.675 284.285 161.389C283.963 161.104 283.584 160.89 283.173 160.761Z" fill="#E94E1B"/>
<path d="M273.972 162.505C273.567 161.698 272.876 161.071 272.035 160.749C271.193 160.426 270.261 160.43 269.422 160.761V160.761C269.012 160.89 268.633 161.104 268.31 161.389C267.987 161.675 267.728 162.024 267.548 162.416C267.368 162.808 267.272 163.234 267.267 163.665C267.261 164.097 267.346 164.524 267.515 164.921L270.66 171.999H272.3L275.277 165.29L273.972 162.505Z" fill="#E94E1B"/>
<path d="M296.321 150.965L301.875 138.485C302.068 138.082 302.171 137.641 302.177 137.194C302.183 136.747 302.092 136.304 301.911 135.896C301.73 135.488 301.462 135.124 301.127 134.829C300.791 134.535 300.396 134.317 299.968 134.191C299.129 133.86 298.198 133.856 297.356 134.178C296.514 134.501 295.823 135.128 295.418 135.935L289.864 148.415C289.695 148.811 289.61 149.239 289.616 149.671C289.622 150.102 289.717 150.527 289.897 150.919C290.077 151.311 290.336 151.661 290.659 151.946C290.982 152.231 291.361 152.446 291.771 152.575V152.575C292.594 152.916 293.514 152.94 294.354 152.643C295.194 152.346 295.894 151.748 296.321 150.965V150.965Z" fill="#E94E1B"/>
<path d="M288.225 147.308L292.005 138.787L290.734 135.935C290.33 135.135 289.644 134.515 288.81 134.192C287.976 133.87 287.052 133.869 286.217 134.19V134.19C285.809 134.326 285.433 134.547 285.114 134.837C284.796 135.128 284.542 135.482 284.368 135.877C284.195 136.272 284.106 136.7 284.107 137.132C284.109 137.563 284.201 137.99 284.377 138.384L288.225 147.308Z" fill="#E94E1B"/>
<path d="M296.321 169.082L301.875 156.602C302.045 156.206 302.129 155.778 302.124 155.347C302.118 154.915 302.022 154.49 301.843 154.098C301.663 153.706 301.403 153.356 301.08 153.071C300.758 152.786 300.379 152.572 299.968 152.443V152.443C299.129 152.112 298.198 152.108 297.356 152.43C296.514 152.753 295.823 153.38 295.418 154.187L289.864 166.667C289.695 167.063 289.61 167.491 289.616 167.923C289.622 168.354 289.717 168.779 289.897 169.171C290.077 169.563 290.336 169.913 290.659 170.198C290.982 170.483 291.361 170.698 291.771 170.827V170.827C292.61 171.157 293.542 171.162 294.384 170.839C295.225 170.516 295.917 169.89 296.321 169.082Z" fill="#E94E1B"/>
<path d="M288.225 165.526L292.005 157.005L290.768 154.321C290.363 153.513 289.672 152.887 288.83 152.564C287.988 152.241 287.056 152.246 286.217 152.576C285.829 152.714 285.473 152.929 285.169 153.208C284.865 153.487 284.62 153.824 284.449 154.199C284.277 154.575 284.182 154.981 284.17 155.393C284.158 155.806 284.228 156.217 284.377 156.602L288.225 165.526Z" fill="#E94E1B"/>
<path d="M308.098 161.028C308.937 161.359 309.868 161.363 310.71 161.04C311.552 160.717 312.243 160.091 312.648 159.283L318.202 146.804C318.371 146.407 318.456 145.979 318.45 145.548C318.444 145.117 318.349 144.691 318.169 144.299C317.989 143.907 317.73 143.557 317.407 143.272C317.084 142.987 316.705 142.773 316.295 142.644C315.456 142.313 314.524 142.309 313.682 142.632C312.841 142.954 312.149 143.581 311.745 144.388L306.191 156.868C306.021 157.265 305.937 157.692 305.942 158.124C305.948 158.555 306.044 158.98 306.223 159.372C306.403 159.764 306.663 160.114 306.986 160.399C307.308 160.685 307.687 160.899 308.098 161.028V161.028Z" fill="#E94E1B"/>
<path d="M304.451 155.629L308.232 147.108L307.128 144.256C306.723 143.449 306.032 142.822 305.19 142.5C304.348 142.177 303.417 142.181 302.578 142.512C302.167 142.641 301.788 142.855 301.466 143.14C301.143 143.426 300.883 143.775 300.703 144.167C300.524 144.559 300.428 144.985 300.422 145.416C300.417 145.848 300.501 146.275 300.671 146.672L304.451 155.629Z" fill="#E94E1B"/>
<path d="M316.328 160.761C315.49 160.43 314.558 160.426 313.716 160.749C312.874 161.071 312.183 161.698 311.778 162.505L307.529 172.033H315.124L318.269 164.954C318.443 164.554 318.531 164.121 318.526 163.684C318.521 163.247 318.424 162.816 318.24 162.419C318.057 162.023 317.792 161.67 317.462 161.384C317.132 161.098 316.746 160.886 316.328 160.761V160.761Z" fill="#E94E1B"/>
<path d="M307.128 162.505C306.723 161.698 306.032 161.071 305.19 160.749C304.348 160.426 303.417 160.43 302.578 160.761V160.761C302.167 160.89 301.788 161.104 301.466 161.389C301.143 161.675 300.883 162.024 300.703 162.416C300.524 162.808 300.428 163.234 300.422 163.665C300.417 164.097 300.501 164.524 300.671 164.921L303.816 171.999H305.455L308.433 165.29L307.128 162.505Z" fill="#E94E1B"/>
</svg>
